SplineFontDB: 1.0
FontName: NimbusSanL-ReguCond
FullName: Nimbus Sans L Condensed Regular
FamilyName: Nimbus Sans L Condensed
Weight: Regular
Copyright: Copyright (URW)++,Copyright 1999 by (URW)++ Design & Development; Cyrillic glyphs added by Valek Filippov (C) 2001-2004
Version: 1.06
ItalicAngle: 0
UnderlinePosition: -100
UnderlineWidth: 50
Ascent: 800
Descent: 200
NeedsXUIDChange: 1
UniqueID: 4011940
FSType: 12
OS2WinAscent: 0
OS2WinAOffset: 1
OS2WinDescent: 0
OS2WinDOffset: 1
HheadAscent: 0
HheadAOffset: 1
HheadDescent: 0
HheadDOffset: 1
ScriptLang: 2
 1 latn 1 dflt 
 1 DFLT 1 dflt 
Encoding: adobestandard
UnicodeInterp: none
DisplaySize: -36
AntiAlias: 1
FitToEm: 1
WinInfo: 30 30 13
BeginPrivate: 7
BlueValues 31 [-20 0 523 543 718 738 684 704]
BlueScale 8 0.039625
StdHW 4 [78]
StdVW 4 [73]
StemSnapH 191 [78 84 88] 
systemdict /internaldict known
{1183615869 systemdict /internaldict get exec
/StemSnapLength 2 copy known { get 3 lt } { pop pop true } ifelse }
{ true } ifelse { pop [78 88] } if
StemSnapV 194 [69 73 77 81] 
systemdict /internaldict known
{1183615869 systemdict /internaldict get exec
/StemSnapLength 2 copy known { get 4 lt } { pop pop true } ifelse }
{ true } ifelse { pop [73 81] } if
ForceBold 5 false
EndPrivate
BeginChars: 741 634
StartChar: exclam
Encoding: 33 33 2
Width: 228
Flags: W
HStem: 0 21G<74 153> 698 20G<74 153>
VStem: 74 79<0 102 480 718>
Fore
153 102 m 1
 153 0 l 1
 74 0 l 1
 74 102 l 1
 153 102 l 1
133 171 m 1
 94 171 l 1
 74 481 l 1
 74 718 l 1
 153 718 l 1
 153 481 l 1
 133 171 l 1
EndSplineSet
EndChar
StartChar: quotedbl
Encoding: 34 34 3
Width: 291
Flags: W
HStem: 698 20G<57 117 174 234>
VStem: 57 60<463 718> 174 60<463 718>
Fore
57 463 m 1
 57 718 l 1
 117 718 l 1
 117 463 l 1
 57 463 l 1
174 463 m 1
 174 718 l 1
 234 718 l 1
 234 463 l 1
 174 463 l 1
EndSplineSet
EndChar
StartChar: numbersign
Encoding: 35 35 4
Width: 456
Flags: W
HStem: 0 21G<84 138 240 295> 210 63<29 107 169 264 326 403> 415 63<52 130 193 287 350 427> 668 20G<162 217 318 373>
DStem: 107 210 162 210 84 0 138 0 130 415 185 415 115 273 169 273 162 688 217 688 138 478 193 478 264 210 318 210 240 0 295 0 287 415 342 415 272 273 326 273 318 688 373 688 295 478 350 478
Fore
318 210 m 1
 295 0 l 1
 240 0 l 1
 264 210 l 1
 162 210 l 1
 138 0 l 1
 84 0 l 1
 107 210 l 1
 23 210 l 1
 30 273 l 1
 115 273 l 1
 130 415 l 1
 46 415 l 1
 53 478 l 1
 138 478 l 1
 162 688 l 1
 217 688 l 1
 193 478 l 1
 295 478 l 1
 318 688 l 1
 373 688 l 1
 350 478 l 1
 434 478 l 1
 427 415 l 1
 342 415 l 1
 326 273 l 1
 410 273 l 1
 403 210 l 1
 318 210 l 1
287 415 m 1
 185 415 l 1
 169 273 l 1
 272 273 l 1
 287 415 l 1
EndSplineSet
EndChar
StartChar: dollar
Encoding: 36 36 5
Width: 456
Flags: W
VStem: 38 72<508 526> 208 38<-115 -19 54 308 409 638 710 775> 355 72<172 197>
Fore
412 521 m 1
 343 521 l 1
 335 591 310 622 246 638 c 1
 246 399 l 1
 330 369 357 356 386 328 c 0
 412 302 427 256 427 197 c 0
 427 115 401 52 350 15 c 0
 319 -7 294 -16 246 -19 c 1
 246 -115 l 1
 208 -115 l 1
 208 -19 l 1
 84 -10 27 63 26 213 c 1
 98 213 l 1
 104 103 126 71 208 54 c 1
 208 319 l 1
 142 339 115 352 87 379 c 0
 55 409 38 456 38 512 c 0
 38 583 65 643 114 679 c 0
 142 701 164 708 208 711 c 1
 208 775 l 1
 246 775 l 1
 246 711 l 1
 354 699 406 639 412 521 c 1
208 409 m 1
 208 638 l 1
 146 634 110 591 110 522 c 0
 110 462 141 426 208 409 c 1
246 308 m 1
 246 54 l 1
 279 56 296 62 315 78 c 0
 340 100 355 138 355 179 c 0
 355 231 329 276 290 291 c 2
 246 308 l 1
EndSplineSet
EndChar
StartChar: percent
Encoding: 37 37 6
Width: 729
Flags: W
HStem: -7 53<562.221 576> 321 53<145.221 161> 642 53<157 161>
VStem: 32 57<508 526> 223 57<492 526> 449 57<180 206> 640 57<180 206>
DStem: 503 703 549 703 180 -19 224 -19
Fore
157 695 m 0
 234 695 280 625 280 507 c 0
 280 390 234 321 156 321 c 0
 77 321 32 389 32 508 c 0
 32 627 77 695 157 695 c 0
157 642 m 0
 112 642 89 597 89 508 c 0
 89 420 112 374 156 374 c 0
 200 374 223 420 223 508 c 0
 223 595 200 642 157 642 c 0
549 703 m 1
 224 -19 l 1
 180 -19 l 1
 503 703 l 1
 549 703 l 1
574 367 m 0
 651 367 697 297 697 180 c 0
 697 62 651 -7 573 -7 c 0
 494 -7 449 61 449 180 c 0
 449 300 494 367 574 367 c 0
574 314 m 0
 529 314 506 269 506 180 c 0
 506 92 529 46 573 46 c 0
 617 46 640 92 640 180 c 0
 640 267 617 314 574 314 c 0
EndSplineSet
EndChar
StartChar: ampersand
Encoding: 38 38 7
Width: 547
Flags: W
HStem: -15 77<207 235> 641 77<233 249>
VStem: 36 72<176 194> 107 70<554 578> 308 70<554 578>
DStem: 209 339 272 382 342 141 380 226 381 82 424 155 436 0 529 0
Fore
424 155 m 1xd8
 529 0 l 1
 436 0 l 1
 381 82 l 1
 327 10 282 -15 211 -15 c 0
 102 -15 36 60 36 184 c 0xe8
 36 277 65 324 169 399 c 1
 119 475 107 504 107 556 c 0
 107 652 164 718 247 718 c 0
 325 718 378 658 378 569 c 0
 378 495 351 448 272 382 c 1
 380 226 l 1
 393 269 396 286 404 338 c 1
 472 338 l 1
 467 276 452 220 424 155 c 1xd8
342 141 m 1
 209 339 l 1
 129 276 108 245 108 183 c 0
 108 113 155 62 218 62 c 0
 266 62 306 87 342 141 c 1
235 439 m 1
 289 485 308 517 308 564 c 0
 308 611 283 641 243 641 c 0
 203 641 177 611 177 565 c 0xd8
 177 528 195 489 235 439 c 1
EndSplineSet
EndChar
StartChar: quoteright
Encoding: 39 8217 8
Width: 182
Flags: W
HStem: 698 20G<43 129>
VStem: 43 86<611 718>
Fore
43 611 m 1
 43 718 l 1
 129 718 l 1
 129 619 l 2
 129 527 105 484 43 462 c 1
 43 509 l 1
 75 516 87 546 87 611 c 1
 43 611 l 1
EndSplineSet
KernsSLIF: 119 1 1 0 116 -3 1 0 115 -13 1 0 114 -15 1 0 46 -48 1 0 111 -24 1 0 100 -16 1 0 44 -48 1 0 262 -60 1 0 256 -60 1 0 257 -60 1 0 225 -63 1 0 65 -60 1 0
EndChar
StartChar: parenleft
Encoding: 40 40 9
Width: 273
Flags: W
HStem: 713 20G<194 244>
VStem: 56 77<224 306>
Fore
194 733 m 1
 244 733 l 1
 157 533 133 431 133 254 c 0
 133 100 155 12 245 -207 c 1
 197 -207 l 1
 87 -3 56 101 56 262 c 0
 56 425 92 548 194 733 c 1
EndSplineSet
EndChar
StartChar: parenright
Encoding: 41 41 10
Width: 273
Flags: W
HStem: 713 20G<28 76>
VStem: 140 77<224 306>
Fore
79 -207 m 1
 29 -207 l 1
 116 -6 140 95 140 272 c 0
 140 425 119 514 28 733 c 1
 76 733 l 1
 186 528 217 425 217 264 c 0
 217 102 181 -21 79 -207 c 1
EndSplineSet
EndChar
StartChar: asterisk
Encoding: 42 42 11
Width: 319
Flags: W
HStem: 698 20G<134 183>
VStem: 134 49<608 718>
DStem: 120 557 159 525 65 465 105 431 159 525 197 557 212 431 252 465
Fore
32 591 m 1
 48 646 l 1
 134 608 l 1
 134 718 l 1
 183 718 l 1
 183 608 l 1
 269 646 l 1
 286 591 l 1
 197 557 l 1
 252 465 l 1
 212 431 l 1
 159 525 l 1
 105 431 l 1
 65 465 l 1
 120 557 l 1
 32 591 l 1
EndSplineSet
EndChar
StartChar: plus
Encoding: 43 43 12
Width: 479
Flags: W
HStem: 0 21G<210 270> 216 73<32 210 270 447>
VStem: 210 60<0 216 289 505>
Fore
210 289 m 1
 210 505 l 1
 270 505 l 1
 270 289 l 1
 447 289 l 1
 447 216 l 1
 270 216 l 1
 270 0 l 1
 210 0 l 1
 210 216 l 1
 32 216 l 1
 32 289 l 1
 210 289 l 1
EndSplineSet
EndChar
StartChar: comma
Encoding: 44 44 13
Width: 228
Flags: W
HStem: -20 20G<71 115>
VStem: 71 86<0 107>
Fore
71 0 m 1
 71 107 l 1
 157 107 l 1
 157 8 l 2
 157 -82 128 -134 71 -147 c 1
 71 -101 l 1
 100 -97 114 -64 115 0 c 1
 71 0 l 1
EndSplineSet
KernsSLIF: 39 -33 1 0 186 -22 1 0 49 -83 1 0
EndChar
StartChar: hyphen
Encoding: 45 45 14
Width: 273
Flags: W
HStem: 232 90<36 237>
Fore
237 322 m 1
 237 232 l 1
 36 232 l 1
 36 322 l 1
 237 322 l 1
EndSplineSet
KernsSLIF: 89 -67 1 0 87 -9 1 0 86 -29 1 0 84 -61 1 0 262 -3 1 0 256 -3 1 0 257 -3 1 0 225 -4 1 0 65 -3 1 0
EndChar
StartChar: period
Encoding: 46 46 15
Width: 228
Flags: W
HStem: 0 21G<71 157>
VStem: 71 86<0 107>
Fore
157 107 m 1
 157 0 l 1
 71 0 l 1
 71 107 l 1
 157 107 l 1
EndSplineSet
KernsSLIF: 39 -33 1 0 186 -22 1 0 49 -83 1 0
EndChar
StartChar: slash
Encoding: 47 47 16
Width: 228
Flags: W
HStem: -19 21G<-14 41> 717 20G<188 242>
DStem: 188 737 242 737 -14 -19 41 -19
Fore
242 737 m 1
 41 -19 l 1
 -14 -19 l 1
 188 737 l 1
 242 737 l 1
EndSplineSet
EndChar
StartChar: zero
Encoding: 48 48 17
Width: 456
Flags: W
HStem: -19 78<228 239> 625 78<221 239>
VStem: 30 77<343 382> 349 77<300 382>
Fore
230 703 m 0
 354 703 426 570 426 341 c 0
 426 112 354 -19 228 -19 c 0
 102 -19 30 112 30 343 c 0
 30 574 102 703 230 703 c 0
229 625 m 0
 149 625 107 528 107 343 c 0
 107 157 149 59 228 59 c 0
 307 59 349 157 349 343 c 0
 349 526 307 625 229 625 c 0
EndSplineSet
KernsSLIF: 55 -21 1 0 49 -31 1 0 52 5 1 0
EndChar
StartChar: one
Encoding: 49 49 18
Width: 456
Flags: W
HStem: 0 21G<217 294> 683 20G<238 294>
VStem: 217 77<0 703>
Fore
294 703 m 1
 294 0 l 1
 217 0 l 1
 217 499 l 1
 83 499 l 1
 83 569 l 1
 190 577 215 599 238 703 c 1
 294 703 l 1
EndSplineSet
KernsSLIF: 48 -43 1 0 50 -50 1 0 51 -51 1 0 54 -44 1 0 55 -64 1 0 46 -54 1 0 49 -90 1 0 57 -47 1 0 52 -59 1 0 53 -49 1 0 56 -46 1 0 44 -54 1 0
EndChar
StartChar: two
Encoding: 50 50 19
Width: 456
Flags: W
HStem: 0 83<102 416> 625 78<212 235>
VStem: 339 77<479 513>
Fore
108 451 m 1
 36 451 l 1
 38 532 47 572 72 615 c 0
 103 670 162 703 231 703 c 0
 342 703 416 618 416 492 c 0
 416 438 402 393 375 354 c 1
 353 325 324 300 262 258 c 2
 202 218 l 2
 144 179 108 131 102 83 c 1
 416 83 l 1
 416 0 l 1
 21 0 l 1
 26 131 66 214 156 279 c 2
 233 333 l 2
 281 367 300 384 313 403 c 0
 330 427 339 458 339 494 c 0
 339 573 294 625 225 625 c 0
 149 625 114 573 108 451 c 1
EndSplineSet
KernsSLIF: 55 -14 1 0 49 -29 1 0 52 -38 1 0
EndChar
StartChar: three
Encoding: 51 51 20
Width: 456
Flags: W
HStem: -19 78<214 237> 324 74<184 237> 625 78<214 237>
VStem: 331 75<508 526> 351 77<188 217>
Fore
184 324 m 1xe8
 184 400 l 1
 198 399 213 398 220 398 c 0
 290 398 331 439 331 511 c 0
 331 581 290 625 225 625 c 0
 153 625 120 581 113 473 c 1
 42 473 l 1
 45 545 53 582 76 622 c 0
 107 675 158 703 226 703 c 0
 335 703 406 630 406 517 c 0xf0
 406 445 380 396 330 372 c 1
 400 340 428 293 428 207 c 0
 428 70 347 -19 224 -19 c 0
 171 -19 123 -1 90 31 c 0
 52 69 36 118 28 215 c 1
 103 215 l 1
 106 159 112 133 127 108 c 0
 147 76 180 59 223 59 c 0
 300 59 351 114 351 197 c 0
 351 277 304 325 226 325 c 2
 216 325 l 2
 206 324 199 324 184 324 c 1xe8
EndSplineSet
KernsSLIF: 55 -15 1 0 49 -34 1 0 52 8 1 0
EndChar
StartChar: four
Encoding: 52 52 21
Width: 456
Flags: W
HStem: 0 21G<272 344> 171 77<86 272 344 429> 683 20G<284 344>
VStem: 272 72<0 171 248 703>
DStem: 284 703 272 569 20 258 86 248
Fore
429 171 m 1
 344 171 l 1
 344 0 l 1
 272 0 l 1
 272 171 l 1
 20 171 l 1
 20 258 l 1
 284 703 l 1
 344 703 l 1
 344 248 l 1
 429 248 l 1
 429 171 l 1
272 569 m 1
 86 248 l 1
 272 248 l 1
 272 569 l 1
EndSplineSet
KernsSLIF: 55 -39 1 0 49 -65 1 0 52 8 1 0
EndChar
StartChar: five
Encoding: 53 53 22
Width: 456
Flags: W
HStem: -19 77<212 235> 374 78<212 233> 601 87<91 389>
VStem: 344 77<204 238>
DStem: 91 688 145 601 47 311 120 408
Fore
145 601 m 1
 120 408 l 1
 156 439 188 452 231 452 c 0
 340 452 421 356 421 226 c 0
 421 157 401 92 365 47 c 0
 331 5 277 -19 214 -19 c 0
 143 -19 89 10 57 66 c 0
 40 96 33 121 26 175 c 1
 101 175 l 1
 105 141 110 124 123 105 c 0
 143 75 179 58 219 58 c 0
 293 58 344 124 344 219 c 0
 344 311 293 374 217 374 c 0
 174 374 142 354 110 307 c 1
 47 311 l 1
 91 688 l 1
 389 688 l 1
 389 601 l 1
 145 601 l 1
EndSplineSet
KernsSLIF: 55 -16 1 0 49 -56 1 0 52 4 1 0
EndChar
StartChar: six
Encoding: 54 54 23
Width: 456
Flags: W
HStem: -19 79<222 246> 370 78<222 246> 625 78<230 256>
VStem: 31 85<217 322> 350 75<204 238>
Fore
413 516 m 1
 342 516 l 1
 329 592 299 625 244 625 c 0
 200 625 167 600 142 546 c 0
 119 498 109 447 105 358 c 1
 137 420 180 448 242 448 c 0
 350 448 425 356 425 223 c 0
 425 153 408 98 370 49 c 0
 333 1 292 -19 232 -19 c 0
 103 -19 31 103 31 322 c 0
 31 560 111 703 243 703 c 0
 304 703 357 671 386 618 c 0
 402 589 408 565 413 516 c 1
236 370 m 0
 162 370 116 311 116 217 c 0
 116 124 165 60 236 60 c 0
 304 60 350 124 350 218 c 0
 350 310 305 370 236 370 c 0
EndSplineSet
KernsSLIF: 55 -13 1 0 49 -31 1 0 52 6 1 0
EndChar
StartChar: seven
Encoding: 55 55 24
Width: 456
Flags: W
HStem: 0 21G<112 192> 601 87<30 348>
Fore
30 601 m 1
 30 688 l 1
 429 688 l 1
 429 610 l 1
 307 444 228 242 192 0 c 1
 112 0 l 1
 137 199 222 416 348 601 c 1
 30 601 l 1
EndSplineSet
KernsSLIF: 50 -14 1 0 51 -14 1 0 54 -24 1 0 55 3 1 0 46 -95 1 0 49 -34 1 0 52 -72 1 0 53 -22 1 0 56 -15 1 0 44 -95 1 0 58 -47 1 0
EndChar
StartChar: eight
Encoding: 56 56 25
Width: 456
Flags: W
HStem: -19 78<222 240> 330 76<222 240> 625 78<208.707 240>
VStem: 31 77<188 206> 51 75<508 526> 328 75<508 526> 347 77<188 206>
Fore
129 373 m 1xf2
 75 402 51 444 51 510 c 0
 51 625 122 703 226 703 c 0
 331 703 403 629 403 519 c 0
 403 450 382 408 330 374 c 1
 369 351 386 333 403 300 c 0xec
 417 272 424 238 424 201 c 0
 424 70 346 -19 232 -19 c 0
 111 -19 31 66 31 195 c 0
 31 285 57 333 129 373 c 1xf2
228 330 m 0
 156 330 108 277 108 197 c 0
 108 112 156 59 231 59 c 0
 306 59 347 106 347 191 c 0xf2
 347 277 302 330 228 330 c 0
225 625 m 0
 163 625 126 584 126 516 c 0
 126 452 169 406 226 406 c 0
 285 406 328 453 328 518 c 0xec
 328 582 287 625 225 625 c 0
EndSplineSet
KernsSLIF: 55 -16 1 0 49 -36 1 0 52 6 1 0
EndChar
StartChar: nine
Encoding: 57 57 26
Width: 456
Flags: W
HStem: -19 73<194.319 224> 235 78<207 227> 625 78<208 226>
VStem: 34 75<462 478> 336 85<379 471>
Fore
41 169 m 1
 113 169 l 1
 120 92 152 54 210 54 c 0
 248 54 277 72 300 113 c 0
 323 154 336 208 350 325 c 1
 324 266 277 235 214 235 c 0
 106 235 34 326 34 462 c 0
 34 606 109 703 222 703 c 0
 351 703 421 590 421 379 c 0
 421 257 399 146 360 78 c 0
 323 12 275 -19 209 -19 c 0
 109 -19 47 51 41 169 c 1
224 625 m 0
 152 625 109 564 109 462 c 0
 109 365 149 313 223 313 c 0
 294 313 336 371 336 471 c 0
 336 566 293 625 224 625 c 0
EndSplineSet
KernsSLIF: 55 -19 1 0 49 -31 1 0 52 1 1 0
EndChar
StartChar: colon
Encoding: 58 58 27
Width: 228
Flags: W
HStem: 0 21G<71 157>
VStem: 71 86<0 107 409 516>
Fore
157 107 m 1
 157 0 l 1
 71 0 l 1
 71 107 l 1
 157 107 l 1
157 516 m 1
 157 409 l 1
 71 409 l 1
 71 516 l 1
 157 516 l 1
EndSplineSet
EndChar
StartChar: semicolon
Encoding: 59 59 28
Width: 228
Flags: W
HStem: -20 20G<71 115>
VStem: 71 86<0 107 409 516>
Fore
71 0 m 1
 71 107 l 1
 157 107 l 1
 157 8 l 2
 157 -82 128 -134 71 -147 c 1
 71 -101 l 1
 100 -97 114 -64 115 0 c 1
 71 0 l 1
157 409 m 1
 71 409 l 1
 71 516 l 1
 157 516 l 1
 157 409 l 1
EndSplineSet
EndChar
StartChar: less
Encoding: 60 60 29
Width: 479
Flags: W
DStem: 39 217 121 253 440 10 440 92 440 496 440 414 39 289 121 253
Fore
440 10 m 1
 39 217 l 1
 39 289 l 1
 440 496 l 1
 440 414 l 1
 121 253 l 1
 440 92 l 1
 440 10 l 1
EndSplineSet
EndChar
StartChar: equal
Encoding: 61 61 30
Width: 479
Flags: W
HStem: 115 73<32 447> 317 73<32 447>
Fore
447 390 m 1
 447 317 l 1
 32 317 l 1
 32 390 l 1
 447 390 l 1
447 188 m 1
 447 115 l 1
 32 115 l 1
 32 188 l 1
 447 188 l 1
EndSplineSet
EndChar
StartChar: greater
Encoding: 62 62 31
Width: 479
Flags: W
DStem: 39 414 39 496 358 253 440 289 358 253 440 217 39 92 39 10
Fore
39 10 m 1
 39 92 l 1
 358 253 l 1
 39 414 l 1
 39 496 l 1
 440 289 l 1
 440 217 l 1
 39 10 l 1
EndSplineSet
EndChar
StartChar: question
Encoding: 63 63 32
Width: 456
Flags: W
HStem: 0 21G<181 261> 650 77<221 239>
VStem: 181 80<0 102> 326 77<511 545>
Fore
118 493 m 1
 46 493 l 1
 49 583 59 618 89 658 c 0
 124 702 174 727 229 727 c 0
 331 727 403 647 403 532 c 0
 403 471 389 439 326 366 c 0
 263 294 255 271 255 183 c 1
 183 183 l 1
 184 287 194 315 260 398 c 0
 319 471 326 485 326 531 c 0
 326 605 288 650 226 650 c 0
 154 650 120 600 118 493 c 1
261 102 m 1
 261 0 l 1
 181 0 l 1
 181 102 l 1
 261 102 l 1
EndSplineSet
EndChar
StartChar: at
Encoding: 64 64 33
Width: 832
Flags: W
HStem: -19 62<424 442> 136 72<361 378> 500 72<424 442> 675 62<431 442>
VStem: 121 60<332 382> 243 67<284 318> 501 24<228 406> 659 53<396 446>
Fore
527 494 m 1
 543 556 l 1
 599 556 l 1
 581 477 574 446 560 392 c 0
 535 288 525 243 525 228 c 0
 525 210 530 201 542 201 c 0
 600 201 659 312 659 420 c 0
 659 566 562 675 431 675 c 0
 289 675 181 538 181 356 c 0
 181 179 291 43 435 43 c 0
 473 43 510 53 546 74 c 0
 582 94 602 112 635 157 c 1
 690 157 l 1
 664 109 650 90 624 64 c 0
 570 10 503 -19 433 -19 c 0
 259 -19 121 149 121 360 c 0
 121 569 259 737 431 737 c 0
 588 737 712 599 712 424 c 0
 712 344 686 268 639 210 c 0
 602 165 554 136 514 136 c 0
 484 136 466 158 464 200 c 1
 427 155 397 136 361 136 c 0
 294 136 243 207 243 301 c 0
 243 447 330 572 432 572 c 0
 476 572 503 550 527 494 c 1
433 500 m 0
 370 500 310 403 310 302 c 0
 310 248 339 208 378 208 c 0
 413 208 446 237 472 290 c 0
 489 325 501 372 501 406 c 0
 501 458 470 500 433 500 c 0
EndSplineSet
EndChar
StartChar: A
Encoding: 65 65 34
Width: 547
Flags: W
HStem: 0 21G<11 93 449 536> 209 87<179 391> 698 20G<232 323>
DStem: 232 718 274 614 11 0 179 296 232 718 155 209 11 0 93 0
Fore
391 209 m 1
 155 209 l 1
 93 0 l 1
 11 0 l 1
 232 718 l 1
 323 718 l 1
 536 0 l 1
 449 0 l 1
 391 209 l 1
179 296 m 1
 362 296 l 1
 274 614 l 1
 179 296 l 1
EndSplineSet
KernsSLIF: 121 -27 0 0 119 -21 0 0 118 -27 0 0 117 -12 0 0 116 -15 0 0 39 -48 0 0 186 -37 0 0 113 -11 0 0 46 5 0 0 111 -13 0 0 45 -2 0 0 172 -36 0 0 171 -40 0 0 103 -14 0 0 101 -14 0 0 100 -11 0 0 44 5 0 0 332 -10 0 0 99 -10 0 0 97 -3 0 0 89 -78 0 0 87 -39 0 0 86 -56 0 0 300 -29 0 0 298 -29 0 0 301 -29 0 0 299 -29 0 0 85 -29 0 0 84 -74 0 0 81 -28 0 0 286 -27 0 0 79 -27 0 0 71 -30 0 0 264 -29 0 0 67 -28 0 0
EndChar
StartChar: B
Encoding: 66 66 35
Width: 547
Flags: W
HStem: 0 83<141 322> 336 78<141 302> 635 83<61 302>
VStem: 61 80<0 336 0 635> 406 80<526 545> 434 80<214 225>
Fore
61 0 m 1xf4
 61 718 l 1
 320 718 l 2
 420 718 486 646 486 537 c 0xf8
 486 468 462 422 408 387 c 1
 485 349 514 302 514 214 c 0
 514 85 435 0 315 0 c 2
 61 0 l 1xf4
141 635 m 1
 141 414 l 1
 284 414 l 2
 367 414 406 450 406 528 c 0
 406 601 368 635 285 635 c 2
 141 635 l 1
141 336 m 1
 141 83 l 1
 311 83 l 2
 389 83 434 131 434 214 c 0xf4
 434 295 388 336 297 336 c 2
 141 336 l 1
EndSplineSet
KernsSLIF: 89 -31 0 0 87 -14 0 0 86 -25 0 0 288 -3 0 0 286 -3 0 0 289 -3 0 0 287 -3 0 0 79 -3 0 0 261 -15 0 0 262 -15 0 0 256 -15 0 0 259 -15 0 0 257 -15 0 0 225 -14 0 0 65 -15 0 0
EndChar
StartChar: C
Encoding: 67 67 36
Width: 592
Flags: W
HStem: -19 87<291 316> 650 87<299 325>
VStem: 36 82<332 382>
Fore
552 502 m 1
 475 502 l 1
 462 559 449 586 420 612 c 0
 392 636 354 650 313 650 c 0
 191 650 118 539 118 355 c 0
 118 173 188 68 308 68 c 0
 363 68 405 92 438 141 c 0
 459 173 469 202 481 264 c 1
 558 264 l 1
 538 151 516 99 471 53 c 0
 427 6 366 -19 301 -19 c 0
 139 -19 36 127 36 358 c 0
 36 590 143 737 311 737 c 0
 399 737 472 696 514 623 c 0
 536 586 545 558 552 502 c 1
EndSplineSet
KernsSLIF: 286 -4 0 0 287 -4 0 0 79 -4 0 0 75 -5 0 0 72 -6 0 0 262 -25 0 0 256 -25 0 0 257 -25 0 0 225 -24 0 0 65 -25 0 0
EndChar
StartChar: D
Encoding: 68 68 37
Width: 592
Flags: W
HStem: 0 83<146 308> 635 83<66 308>
VStem: 66 80<0 635> 471 82<335 385>
Fore
66 0 m 1
 66 718 l 1
 305 718 l 2
 456 718 553 580 553 367 c 0
 553 248 523 146 469 77 c 0
 429 27 370 0 302 0 c 2
 66 0 l 1
146 635 m 1
 146 83 l 1
 300 83 l 2
 406 83 471 188 471 359 c 0
 471 537 408 635 295 635 c 2
 146 635 l 1
EndSplineSet
KernsSLIF: 89 -44 0 0 88 -38 0 0 87 -18 0 0 86 -32 0 0 84 -30 0 0 74 -1 0 0 261 -33 0 0 262 -33 0 0 258 -33 0 0 256 -33 0 0 259 -33 0 0 257 -33 0 0 65 -33 0 0
EndChar
StartChar: E
Encoding: 69 69 38
Width: 547
Flags: W
HStem: 0 87<151 505> 325 87<151 472> 631 87<71 499>
VStem: 71 80<0 325 0 631>
Fore
505 87 m 1
 505 0 l 1
 71 0 l 1
 71 718 l 1
 499 718 l 1
 499 631 l 1
 151 631 l 1
 151 412 l 1
 472 412 l 1
 472 325 l 1
 151 325 l 1
 151 87 l 1
 505 87 l 1
EndSplineSet
EndChar
StartChar: F
Encoding: 70 70 39
Width: 501
Flags: W
HStem: 0 21G<71 151> 325 87<151 439> 631 87<71 478>
VStem: 71 80<0 325 0 631>
Fore
151 325 m 1
 151 0 l 1
 71 0 l 1
 71 718 l 1
 478 718 l 1
 478 631 l 1
 151 631 l 1
 151 412 l 1
 439 412 l 1
 439 325 l 1
 151 325 l 1
EndSplineSet
KernsSLIF: 117 -28 0 0 114 -32 0 0 46 -102 0 0 249 -17 0 0 250 -17 0 0 351 -17 0 0 352 -17 0 0 111 -17 0 0 106 -8 0 0 105 -8 0 0 45 -12 0 0 335 -19 0 0 101 -19 0 0 44 -102 0 0 328 -26 0 0 241 -26 0 0 322 -26 0 0 323 -26 0 0 97 -26 0 0 286 -15 0 0 79 -15 0 0 74 -50 0 0 261 -55 0 0 262 -55 0 0 258 -55 0 0 256 -55 0 0 259 -55 0 0 257 -55 0 0 65 -55 0 0
EndChar
StartChar: G
Encoding: 71 71 40
Width: 638
Flags: W
HStem: -19 83<306 328> 301 83<319 502> 650 87<306 328>
VStem: 39 82<316 386> 502 75<284 384>
Fore
319 301 m 1
 319 384 l 1
 577 384 l 1
 577 0 l 1
 525 0 l 1
 507 93 l 1
 479 52 462 35 431 15 c 0
 393 -8 353 -19 308 -19 c 0
 235 -19 179 7 132 62 c 0
 68 138 39 227 39 350 c 0
 39 581 151 737 317 737 c 0
 404 737 484 692 529 618 c 0
 550 583 559 555 567 500 c 1
 490 500 l 1
 476 558 461 584 430 611 c 0
 402 636 360 650 318 650 c 0
 197 650 121 535 121 353 c 0
 121 165 190 64 320 64 c 0
 375 64 420 86 455 129 c 0
 488 171 501 215 502 301 c 1
 319 301 l 1
EndSplineSet
KernsSLIF: 89 -47 0 0 87 -20 0 0 86 -36 0 0 84 -30 0 0 261 -4 0 0 262 -4 0 0 258 -4 0 0 256 -4 0 0 259 -4 0 0 257 -4 0 0 225 -2 0 0 65 -4 0 0
EndChar
StartChar: H
Encoding: 72 72 41
Width: 592
Flags: W
HStem: 0 21G<63 143 450 530> 334 87<143 450> 698 20G<63 143 450 530>
VStem: 63 80<0 334 0 718> 450 80<0 718>
Fore
450 421 m 1
 450 718 l 1
 530 718 l 1
 530 0 l 1
 450 0 l 1
 450 334 l 1
 143 334 l 1
 143 0 l 1
 63 0 l 1
 63 718 l 1
 143 718 l 1
 143 421 l 1
 450 421 l 1
EndSplineSet
EndChar
StartChar: I
Encoding: 73 73 42
Width: 228
Flags: W
HStem: 0 21G<75 154> 698 20G<75 154>
VStem: 75 79<0 718>
Fore
154 718 m 1
 154 0 l 1
 75 0 l 1
 75 718 l 1
 154 718 l 1
EndSplineSet
EndChar
StartChar: J
Encoding: 74 74 43
Width: 410
Flags: W
HStem: -19 83<173 191> 698 20G<271 351>
VStem: 14 75<156 231> 271 80<172 718>
Fore
14 231 m 1
 89 231 l 1
 89 181 l 2
 89 101 117 64 179 64 c 0
 241 64 271 105 271 188 c 2
 271 718 l 1
 351 718 l 1
 351 194 l 2
 351 58 289 -19 180 -19 c 0
 79 -19 14 51 14 160 c 2
 14 231 l 1
EndSplineSet
KernsSLIF: 262 -22 0 0 256 -22 0 0 225 -21 0 0 65 -22 0 0
EndChar
StartChar: K
Encoding: 75 75 44
Width: 547
Flags: W
HStem: 0 21G<62 142 441 544> 698 20G<62 142 428 538>
VStem: 62 80<0 252 0 718>
DStem: 235 360 292 428 441 0 544 0 428 718 538 718 142 370 292 428
Fore
142 252 m 1
 142 0 l 1
 62 0 l 1
 62 718 l 1
 142 718 l 1
 142 370 l 1
 428 718 l 1
 538 718 l 1
 292 428 l 1
 544 0 l 1
 441 0 l 1
 235 360 l 1
 142 252 l 1
EndSplineSet
KernsSLIF: 121 -52 0 0 362 -21 0 0 117 -21 0 0 351 -26 0 0 352 -26 0 0 111 -26 0 0 45 -38 0 0 101 -26 0 0 328 -6 0 0 241 -7 0 0 322 -6 0 0 97 -6 0 0 84 22 0 0 83 -27 0 0 286 -37 0 0 287 -37 0 0 234 -33 0 0 79 -37 0 0 71 -40 0 0 67 -37 0 0
EndChar
StartChar: L
Encoding: 76 76 45
Width: 456
Flags: W
HStem: 0 87<141 440> 698 20G<62 142>
VStem: 62 80<0 718>
Fore
142 718 m 1
 142 87 l 1
 440 87 l 1
 440 0 l 1
 62 0 l 1
 62 718 l 1
 142 718 l 1
EndSplineSet
KernsSLIF: 121 -47 0 0 362 -9 0 0 117 -9 0 0 39 -116 0 0 186 -105 0 0 45 -110 0 0 89 -92 0 0 87 -50 0 0 86 -78 0 0 298 -25 0 0 85 -25 0 0 84 -81 0 0 83 -11 0 0 290 -29 0 0 288 -29 0 0 286 -29 0 0 289 -29 0 0 287 -29 0 0 79 -29 0 0 71 -31 0 0 264 -32 0 0 67 -28 0 0 262 18 0 0 256 18 0 0 257 18 0 0 225 20 0 0 65 18 0 0
EndChar
StartChar: M
Encoding: 77 77 46
Width: 683
Flags: W
HStem: 0 21G<60 137 303 381 547 624> 698 20G<60 174 511 624>
VStem: 60 77<0 608> 547 77<0 718>
DStem: 135 608 174 718 303 0 343 108 511 718 549 609 343 108 381 0
Fore
624 0 m 1
 547 0 l 1
 547 424 l 1
 547 469 l 1
 548 493 548 540 549 609 c 1
 381 0 l 1
 303 0 l 1
 135 608 l 1
 136 544 136 490 136 470 c 0
 137 447 137 432 137 424 c 2
 137 0 l 1
 60 0 l 1
 60 718 l 1
 174 718 l 1
 343 108 l 1
 511 718 l 1
 624 718 l 1
 624 0 l 1
EndSplineSet
EndChar
StartChar: N
Encoding: 78 78 47
Width: 592
Flags: W
HStem: 0 21G<62 139 441 530> 698 20G<62 156 453 530>
VStem: 62 77<0 583> 453 77<135 718>
DStem: 139 583 156 718 441 0 453 135
Fore
453 135 m 1
 453 718 l 1
 530 718 l 1
 530 0 l 1
 441 0 l 1
 139 583 l 1
 139 0 l 1
 62 0 l 1
 62 718 l 1
 156 718 l 1
 453 135 l 1
EndSplineSet
KernsSLIF: 46 -4 0 0 249 4 0 0 351 1 0 0 352 1 0 0 111 1 0 0 335 1 0 0 101 1 0 0 44 -4 0 0 328 -1 0 0 241 -1 0 0 322 -1 0 0 323 -1 0 0 97 -1 0 0 286 1 0 0 287 1 0 0 79 1 0 0 71 -1 0 0 262 -4 0 0 256 -4 0 0 257 -4 0 0 225 -2 0 0 65 -4 0 0
EndChar
StartChar: O
Encoding: 79 79 48
Width: 638
Flags: W
HStem: -19 87<319 337> 650 87<303 337>
VStem: 32 82<358 382> 524 82<332 382>
Fore
323 737 m 0
 427 737 508 682 559 580 c 0
 589 518 606 437 606 358 c 0
 606 246 574 144 517 72 c 0
 470 13 400 -19 319 -19 c 0
 238 -19 168 13 121 72 c 0
 64 144 32 246 32 358 c 0
 32 472 64 576 121 646 c 0
 170 706 238 737 323 737 c 0
322 650 m 0
 195 650 114 536 114 358 c 0
 114 184 196 68 319 68 c 0
 442 68 524 184 524 359 c 0
 524 532 442 650 322 650 c 0
EndSplineSet
KernsSLIF: 89 -42 0 0 88 -35 0 0 87 -14 0 0 86 -30 0 0 84 -27 0 0 262 -29 0 0 256 -29 0 0 257 -29 0 0 225 -29 0 0 65 -29 0 0
EndChar
StartChar: P
Encoding: 80 80 49
Width: 547
Flags: W
HStem: 0 21G<71 151> 303 83<151 335> 635 83<71 328>
VStem: 71 80<0 303 0 635> 428 82<495 529>
Fore
151 303 m 1
 151 0 l 1
 71 0 l 1
 71 718 l 1
 335 718 l 2
 440 718 510 637 510 515 c 0
 510 387 441 303 335 303 c 2
 151 303 l 1
151 635 m 1
 151 386 l 1
 308 386 l 2
 388 386 428 428 428 512 c 0
 428 595 390 635 311 635 c 2
 151 635 l 1
EndSplineSet
KernsSLIF: 46 -123 0 0 249 -22 0 0 250 -22 0 0 351 -24 0 0 352 -24 0 0 111 -24 0 0 45 -28 0 0 335 -24 0 0 101 -24 0 0 44 -123 0 0 328 -21 0 0 241 -21 0 0 322 -21 0 0 323 -21 0 0 97 -21 0 0 74 -70 0 0 262 -62 0 0 256 -62 0 0 257 -62 0 0 225 -64 0 0 65 -62 0 0
EndChar
StartChar: Q
Encoding: 81 81 50
Width: 638
Flags: W
HStem: -19 87<319 337> 650 87<319 337>
VStem: 32 82<359 377> 524 82<327 377>
DStem: 344 148 385 208 406 90 459 137 471 29 521 78 561 -56 601 2
Fore
601 2 m 1
 561 -56 l 1
 471 29 l 1
 423 -5 379 -19 319 -19 c 0
 238 -19 168 13 121 72 c 0
 64 144 32 246 32 359 c 0
 32 472 64 574 121 646 c 0
 168 705 238 737 319 737 c 0
 400 737 470 705 517 646 c 0
 574 574 606 472 606 360 c 0
 606 301 597 242 579 188 c 0
 565 146 554 124 521 78 c 1
 601 2 l 1
344 148 m 1
 385 208 l 1
 459 137 l 1
 505 200 524 265 524 359 c 0
 524 534 442 650 319 650 c 0
 196 650 114 534 114 359 c 0
 114 184 196 68 319 68 c 0
 351 68 377 75 406 90 c 1
 344 148 l 1
EndSplineSet
EndChar
StartChar: R
Encoding: 82 82 51
Width: 592
Flags: W
HStem: 0 21G<72 152 463 561> 308 83<152 352> 635 83<72 361>
VStem: 72 80<0 308 0 635> 456 82<495 529>
Fore
152 308 m 1
 152 0 l 1
 72 0 l 1
 72 718 l 1
 345 718 l 2
 470 718 538 650 538 524 c 0
 538 443 517 399 456 353 c 1
 507 329 522 300 527 218 c 1
 531 88 l 1
 533 44 537 33 561 16 c 1
 561 0 l 1
 463 0 l 1
 456 29 450 104 450 180 c 0
 448 272 419 308 345 308 c 2
 152 308 l 1
152 635 m 1
 152 391 l 1
 336 391 l 2
 418 391 456 431 456 516 c 0
 456 596 421 635 350 635 c 2
 152 635 l 1
EndSplineSet
KernsSLIF: 121 -1 0 0 362 -5 0 0 363 -5 0 0 117 -4 0 0 250 -5 0 0 351 -5 0 0 352 -5 0 0 111 -5 0 0 45 4 0 0 335 -5 0 0 101 -5 0 0 328 -6 0 0 241 -6 0 0 322 -6 0 0 323 -6 0 0 97 -6 0 0 89 -29 0 0 87 -15 0 0 86 -22 0 0 298 -8 0 0 85 -8 0 0 84 -12 0 0 286 -6 0 0 287 -6 0 0 234 -3 0 0 79 -6 0 0 71 -9 0 0 264 -7 0 0 67 -7 0 0
EndChar
StartChar: S
Encoding: 83 83 52
Width: 547
Flags: W
HStem: -19 83<263 297> 654 83<270 282>
VStem: 60 77<516 542> 431 77<172 206>
Fore
492 508 m 1
 417 508 l 1
 414 548 408 569 394 593 c 0
 369 632 325 654 270 654 c 0
 186 654 137 608 137 530 c 0
 137 479 159 450 206 437 c 2
 374 390 l 2
 462 366 508 299 508 197 c 0
 508 63 420 -19 276 -19 c 0
 186 -19 128 8 83 71 c 0
 52 114 41 155 40 232 c 1
 115 232 l 1
 116 185 122 161 138 134 c 0
 165 89 214 64 280 64 c 0
 375 64 431 109 431 188 c 0
 431 257 403 284 306 312 c 2
 185 346 l 2
 102 369 60 427 60 518 c 0
 60 576 78 630 109 670 c 0
 145 715 199 737 270 737 c 0
 359 737 427 701 462 637 c 0
 480 602 487 572 492 508 c 1
EndSplineSet
KernsSLIF: 116 -2 0 0 89 -31 0 0 87 -17 0 0 86 -25 0 0 84 -14 0 0 262 -15 0 0 256 -15 0 0 257 -15 0 0 225 -14 0 0 65 -15 0 0
EndChar
StartChar: T
Encoding: 84 84 53
Width: 501
Flags: W
HStem: 0 21G<211 291> 631 87<11 211 11 490>
VStem: 211 80<0 631>
Fore
11 631 m 1
 11 718 l 1
 490 718 l 1
 490 631 l 1
 291 631 l 1
 291 0 l 1
 211 0 l 1
 211 631 l 1
 11 631 l 1
EndSplineSet
KernsSLIF: 121 -79 0 0 119 -80 0 0 118 -79 0 0 117 -75 0 0 59 -93 0 0 115 -74 0 0 114 -77 0 0 46 -80 0 0 249 -72 0 0 111 -76 0 0 106 -2 0 0 105 -2 0 0 45 -60 0 0 172 -96 0 0 171 -100 0 0 103 -76 0 0 101 -77 0 0 44 -80 0 0 58 -95 0 0 99 -73 0 0 241 -79 0 0 97 -79 0 0 89 19 0 0 87 19 0 0 86 17 0 0 83 -15 0 0 290 -26 0 0 233 -27 0 0 288 -26 0 0 286 -26 0 0 289 -26 0 0 287 -26 0 0 234 -22 0 0 79 -26 0 0 74 -80 0 0 71 -31 0 0 67 -27 0 0 261 -78 0 0 262 -78 0 0 258 -78 0 0 256 -78 0 0 259 -78 0 0 257 -78 0 0 225 -76 0 0 65 -78 0 0
EndChar
StartChar: U
Encoding: 85 85 54
Width: 592
Flags: W
HStem: -19 87<288 306> 698 20G<65 145 448 528>
VStem: 65 80<237 718> 448 80<236 718>
Fore
448 718 m 1
 528 718 l 1
 528 252 l 2
 528 87 436 -19 292 -19 c 0
 153 -19 65 81 65 239 c 2
 65 718 l 1
 145 718 l 1
 145 266 l 2
 145 139 199 68 295 68 c 0
 392 68 448 139 448 264 c 2
 448 718 l 1
EndSplineSet
KernsSLIF: 114 -6 0 0 46 -22 0 0 110 -1 0 0 109 -1 0 0 44 -24 0 0 261 -32 0 0 262 -32 0 0 256 -32 0 0 259 -32 0 0 257 -32 0 0 225 -32 0 0 65 -32 0 0
EndChar
StartChar: V
Encoding: 86 86 55
Width: 547
Flags: W
HStem: 0 21G<231 316> 698 20G<16 105 441 531>
Fore
274 103 m 1
 441 718 l 1
 531 718 l 1
 316 0 l 1
 231 0 l 1
 16 718 l 1
 105 718 l 1
 274 103 l 1
EndSplineSet
KernsSLIF: 121 -12 0 0 117 -35 0 0 59 -41 0 0 114 -37 0 0 46 -73 0 0 249 -41 0 0 111 -46 0 0 105 -5 0 0 45 -29 0 0 172 -64 0 0 171 -68 0 0 103 -44 0 0 101 -46 0 0 44 -73 0 0 58 -41 0 0 241 -47 0 0 97 -47 0 0 84 18 0 0 83 -26 0 0 290 -30 0 0 233 -27 0 0 288 -30 0 0 286 -30 0 0 289 -30 0 0 287 -30 0 0 79 -30 0 0 71 -34 0 0 67 -31 0 0 261 -58 0 0 262 -58 0 0 258 -58 0 0 256 -58 0 0 259 -58 0 0 257 -58 0 0 225 -60 0 0 65 -58 0 0
EndChar
StartChar: W
Encoding: 87 87 56
Width: 774
Flags: W
HStem: 0 21G<166 250 522 606> 698 20G<13 99 343 430 673 761>
DStem: 343 718 387 599 210 130 250 0 387 599 430 718 522 0 563 130
Fore
387 599 m 1
 250 0 l 1
 166 0 l 1
 13 718 l 1
 99 718 l 1
 210 130 l 1
 343 718 l 1
 430 718 l 1
 563 130 l 1
 673 718 l 1
 761 718 l 1
 606 0 l 1
 522 0 l 1
 387 599 l 1
EndSplineSet
KernsSLIF: 121 -2 0 0 117 -24 0 0 59 -31 0 0 114 -26 0 0 46 -46 0 0 249 -21 0 0 111 -26 0 0 105 -3 0 0 45 -9 0 0 172 -44 0 0 171 -48 0 0 103 -24 0 0 101 -26 0 0 44 -46 0 0 58 -31 0 0 241 -29 0 0 97 -29 0 0 84 20 0 0 83 -19 0 0 290 -14 0 0 233 -12 0 0 288 -14 0 0 286 -14 0 0 289 -14 0 0 287 -14 0 0 79 -14 0 0 71 -18 0 0 67 -15 0 0 261 -42 0 0 262 -42 0 0 258 -42 0 0 256 -42 0 0 259 -42 0 0 257 -42 0 0 225 -43 0 0 65 -42 0 0
EndChar
StartChar: X
Encoding: 88 88 57
Width: 547
Flags: W
HStem: 0 21G<16 112 433 531> 698 20G<29 129 427 522>
DStem: 29 718 129 718 226 368 278 443 226 368 275 295 16 0 112 0 275 295 325 368 433 0 531 0 427 718 522 718 278 443 325 368
Fore
325 368 m 1
 531 0 l 1
 433 0 l 1
 275 295 l 1
 112 0 l 1
 16 0 l 1
 226 368 l 1
 29 718 l 1
 129 718 l 1
 278 443 l 1
 427 718 l 1
 522 718 l 1
 325 368 l 1
EndSplineSet
KernsSLIF: 121 -42 0 0 117 -27 0 0 111 -31 0 0 45 -40 0 0 101 -31 0 0 97 -12 0 0 81 -33 0 0 286 -33 0 0 79 -33 0 0 67 -33 0 0
EndChar
StartChar: Y
Encoding: 89 89 58
Width: 547
Flags: W
HStem: 0 21G<233 313> 698 20G<11 104 442 535>
VStem: 233 80<0 289>
DStem: 11 718 104 718 233 289 273 373
Fore
313 289 m 1
 313 0 l 1
 233 0 l 1
 233 289 l 1
 11 718 l 1
 104 718 l 1
 273 373 l 1
 442 718 l 1
 535 718 l 1
 313 289 l 1
EndSplineSet
KernsSLIF: 118 -31 0 0 117 -54 0 0 59 -60 0 0 46 -92 0 0 112 -48 0 0 249 -69 0 0 111 -74 0 0 105 -3 0 0 45 -68 0 0 172 -99 0 0 171 -103 0 0 103 -73 0 0 101 -74 0 0 44 -92 0 0 58 -60 0 0 241 -73 0 0 97 -73 0 0 84 20 0 0 83 -33 0 0 290 -43 0 0 233 -44 0 0 288 -43 0 0 286 -43 0 0 289 -43 0 0 287 -43 0 0 79 -43 0 0 71 -47 0 0 67 -43 0 0 261 -80 0 0 262 -80 0 0 258 -80 0 0 256 -80 0 0 259 -80 0 0 257 -80 0 0 225 -82 0 0 65 -80 0 0
EndChar
StartChar: Z
Encoding: 90 90 59
Width: 501
Flags: W
HStem: 0 87<120 482> 631 87<46 380>
DStem: 380 631 482 633 19 82 120 87
Fore
482 87 m 1
 482 0 l 1
 19 0 l 1
 19 82 l 1
 380 631 l 1
 46 631 l 1
 46 718 l 1
 482 718 l 1
 482 633 l 1
 120 87 l 1
 482 87 l 1
EndSplineSet
KernsSLIF: 121 -25 0 0 118 -24 0 0
EndChar
StartChar: bracketleft
Encoding: 91 91 60
Width: 228
Flags: W
HStem: -196 72<117 205> 650 72<52 205>
VStem: 52 65<-196 650>
Fore
117 650 m 1
 117 -124 l 1
 205 -124 l 1
 205 -196 l 1
 52 -196 l 1
 52 722 l 1
 205 722 l 1
 205 650 l 1
 117 650 l 1
EndSplineSet
EndChar
StartChar: backslash
Encoding: 92 92 61
Width: 228
Flags: W
HStem: -19 21G<187 242> 717 20G<-14 40>
DStem: -14 737 40 737 187 -19 242 -19
Fore
187 -19 m 1
 -14 737 l 1
 40 737 l 1
 242 -19 l 1
 187 -19 l 1
EndSplineSet
EndChar
StartChar: bracketright
Encoding: 93 93 62
Width: 228
Flags: W
HStem: -196 72<23 176> 650 72<23 111>
VStem: 111 65<-124 722>
Fore
111 -124 m 1
 111 650 l 1
 23 650 l 1
 23 722 l 1
 176 722 l 1
 176 -196 l 1
 23 -196 l 1
 23 -124 l 1
 111 -124 l 1
EndSplineSet
EndChar
StartChar: asciicircum
Encoding: 94 94 63
Width: 385
Flags: W
HStem: 668 20G<163 222>
DStem: 163 688 193 608 -11 264 53 264 193 608 222 688 333 264 396 264
Fore
396 264 m 1
 333 264 l 1
 193 608 l 1
 53 264 l 1
 -11 264 l 1
 163 688 l 1
 222 688 l 1
 396 264 l 1
EndSplineSet
EndChar
StartChar: underscore
Encoding: 95 95 64
Width: 456
Flags: W
HStem: -125 50<0 456>
Fore
456 -125 m 1
 0 -125 l 1
 0 -75 l 1
 456 -75 l 1
 456 -125 l 1
EndSplineSet
EndChar
StartChar: quoteleft
Encoding: 96 8216 65
Width: 182
Flags: W
VStem: 53 86<469 576>
Fore
139 576 m 1
 139 469 l 1
 53 469 l 1
 53 568 l 2
 53 660 77 703 139 725 c 1
 139 678 l 1
 107 671 95 641 95 576 c 1
 139 576 l 1
EndSplineSet
KernsSLIF: 89 3 1 0 87 20 1 0 86 13 1 0 84 5 1 0 262 -52 1 0 256 -52 1 0 257 -52 1 0 225 -55 1 0 65 -52 1 0
EndChar
StartChar: a
Encoding: 97 97 66
Width: 456
Flags: W
HStem: -15 73<167 184> 465 73<205 225>
VStem: 30 75<128 148> 315 72<176 394>
Fore
117 364 m 1
 51 364 l 1
 54 416 60 441 77 469 c 0
 105 514 156 538 223 538 c 0
 325 538 387 483 387 392 c 2
 387 91 l 2
 387 71 395 60 410 60 c 0
 416 60 420 61 435 64 c 1
 435 0 l 1
 432 -1 431 -1 426 -3 c 0
 412 -8 404 -10 393 -10 c 0
 344 -10 324 13 319 70 c 1
 272 10 228 -15 167 -15 c 0
 84 -15 30 46 30 138 c 0
 30 229 77 287 160 300 c 2
 279 318 l 2
 306 322 317 340 317 378 c 0
 317 435 283 465 218 465 c 0
 155 465 127 437 117 364 c 1
315 181 m 2
 315 267 l 1
 300 253 279 248 197 234 c 0
 131 223 105 198 105 146 c 0
 105 90 133 58 182 58 c 0
 254 58 315 115 315 181 c 2
EndSplineSet
KernsSLIF: 121 -20 0 0 119 -14 0 0 118 -19 0 0 39 -10 0 0 106 -5 0 0
EndChar
StartChar: b
Encoding: 98 98 67
Width: 456
Flags: W
HStem: -15 77<223 248> 460 78<232 250> 698 20G<48 120>
VStem: 48 68<0 68 0 276> 349 75<240 290>
Fore
116 0 m 1
 48 0 l 1
 48 718 l 1
 120 718 l 1
 120 455 l 1
 157 514 194 538 248 538 c 0
 353 538 424 432 424 274 c 0
 424 99 350 -15 237 -15 c 0
 181 -15 147 8 116 68 c 1
 116 0 l 1
235 460 m 0
 158 460 117 387 117 249 c 0
 117 180 129 135 155 102 c 0
 175 77 204 62 234 62 c 0
 307 62 349 138 349 268 c 0
 349 395 310 460 235 460 c 0
EndSplineSet
KernsSLIF: 121 -15 0 0 119 -8 0 0 118 -13 0 0
EndChar
StartChar: c
Encoding: 99 99 68
Width: 410
Flags: W
HStem: -15 77<201.403 230> 460 78<214 234>
VStem: 25 77<240 274>
Fore
391 347 m 1
 321 347 l 1
 309 426 278 460 221 460 c 0
 146 460 102 386 102 259 c 0
 102 133 143 62 216 62 c 0
 271 62 306 103 321 185 c 1
 391 185 l 1
 374 52 315 -15 217 -15 c 0
 100 -15 25 89 25 252 c 0
 25 427 104 538 228 538 c 0
 324 538 378 475 391 347 c 1
EndSplineSet
KernsSLIF: 107 1 0 0 104 2 0 0
EndChar
StartChar: d
Encoding: 100 100 69
Width: 456
Flags: W
HStem: -15 77<204 224> 460 78<204 223> 698 20G<337 409>
VStem: 29 75<240 290> 336 73<224 718>
Fore
409 718 m 1
 409 0 l 1
 341 0 l 1
 341 75 l 1
 310 10 275 -15 217 -15 c 0
 103 -15 29 99 29 274 c 0
 29 432 100 538 206 538 c 0
 265 538 303 511 337 444 c 1
 337 718 l 1
 409 718 l 1
221 460 m 0
 143 460 104 397 104 269 c 0
 104 138 146 62 218 62 c 0
 249 62 278 77 298 102 c 0
 324 135 336 180 336 248 c 0
 336 385 295 460 221 460 c 0
EndSplineSet
EndChar
StartChar: e
Encoding: 101 101 70
Width: 456
Flags: W
HStem: -15 77<224 242> 233 70<110 423> 460 78<224 242>
Fore
345 164 m 1
 417 164 l 1
 398 51 329 -15 230 -15 c 0
 108 -15 33 87 33 252 c 0
 33 427 112 538 236 538 c 0
 305 538 353 506 386 437 c 0
 411 385 420 336 423 233 c 1
 110 233 l 1
 112 174 118 146 135 117 c 0
 156 81 190 62 232 62 c 0
 290 62 338 105 345 164 c 1
110 303 m 1
 348 303 l 1
 344 357 337 383 321 410 c 0
 301 442 270 460 233 460 c 0
 164 460 114 397 110 303 c 1
EndSplineSet
KernsSLIF: 121 -18 0 0 120 -19 0 0 119 -11 0 0 118 -16 0 0 116 -8 0 0 39 -5 0 0
EndChar
StartChar: f
Encoding: 102 102 71
Width: 228
Flags: W
HStem: 0 21G<71 143> 450 73<11 71 143 215> 649 79<178 187>
VStem: 71 72<0 450 523 593>
Fore
215 450 m 1
 143 450 l 1
 143 0 l 1
 71 0 l 1
 71 450 l 1
 11 450 l 1
 11 523 l 1
 71 523 l 1
 71 613 l 2
 71 688 109 728 180 728 c 0
 188 728 193 728 215 726 c 1
 215 647 l 1
 203 648 192 649 185 649 c 0
 156 649 143 631 143 588 c 2
 143 523 l 1
 215 523 l 1
 215 450 l 1
EndSplineSet
KernsSLIF: 116 17 0 0 115 -4 0 0 39 12 0 0 249 -8 0 0 250 -12 0 0 351 -12 0 0 352 -12 0 0 111 -12 0 0 108 -5 0 0 106 -5 0 0 105 -5 0 0 102 17 0 0 335 -12 0 0 101 -12 0 0 328 -9 0 0 241 -9 0 0 322 -9 0 0 323 -9 0 0 97 -9 0 0
EndChar
StartChar: g
Encoding: 103 103 72
Width: 456
Flags: W
HStem: -220 73<208 228> -15 77<208 228> 460 78<208 227>
VStem: 33 75<243 293> 337 72<3 58>
Fore
409 523 m 1
 409 43 l 2
 409 -41 399 -93 374 -136 c 0
 342 -191 286 -220 211 -220 c 0
 169 -220 133 -209 105 -188 c 0
 71 -161 57 -131 46 -64 c 1
 118 -64 l 1
 131 -123 159 -147 214 -147 c 0
 265 -147 299 -128 318 -88 c 0
 332 -60 337 -27 337 37 c 2
 337 58 l 1
 309 7 273 -15 220 -15 c 0
 107 -15 33 100 33 274 c 0
 33 432 104 538 210 538 c 0
 268 538 302 514 341 446 c 1
 341 523 l 1
 409 523 l 1
225 460 m 0
 147 460 108 397 108 269 c 0
 108 138 150 62 222 62 c 0
 296 62 340 132 340 247 c 0
 340 385 299 460 225 460 c 0
EndSplineSet
KernsSLIF: 351 4 0 0 352 4 0 0 108 4 0 0 335 4 0 0 101 4 0 0 328 1 0 0 241 1 0 0 322 1 0 0 97 1 0 0
EndChar
StartChar: h
Encoding: 104 104 73
Width: 456
Flags: W
HStem: 0 21G<53 125 331 403> 460 78<244 262> 698 20G<53 125>
VStem: 53 72<0 305 0 718> 331 72<0 369>
Fore
125 718 m 1
 125 451 l 1
 167 516 201 538 258 538 c 0
 349 538 403 471 403 356 c 2
 403 0 l 1
 331 0 l 1
 331 342 l 2
 331 425 306 460 247 460 c 0
 169 460 125 396 125 285 c 2
 125 0 l 1
 53 0 l 1
 53 718 l 1
 125 718 l 1
EndSplineSet
KernsSLIF: 121 -14 0 0 39 -3 0 0
EndChar
StartChar: i
Encoding: 105 105 74
Width: 182
Flags: W
HStem: 0 21G<55 127> 503 20G<55 127> 698 20G<55 127>
VStem: 55 72<0 523 618 718>
Fore
127 523 m 1
 127 0 l 1
 55 0 l 1
 55 523 l 1
 127 523 l 1
127 618 m 1
 55 618 l 1
 55 718 l 1
 127 718 l 1
 127 618 l 1
EndSplineSet
KernsSLIF: 84 -2 0 0
EndChar
StartChar: j
Encoding: 106 106 75
Width: 182
Flags: W
HStem: -210 79<-13 22> 503 20G<55 127> 698 20G<55 127>
VStem: 55 72<-83 523 618 718>
Fore
127 523 m 1
 127 -77 l 2
 127 -168 93 -210 20 -210 c 0
 9 -210 -1 -209 -13 -207 c 1
 -13 -131 l 1
 2 -131 l 2
 47 -131 55 -122 55 -67 c 2
 55 523 l 1
 127 523 l 1
127 718 m 1
 127 618 l 1
 55 618 l 1
 55 718 l 1
 127 718 l 1
EndSplineSet
EndChar
StartChar: k
Encoding: 107 107 76
Width: 410
Flags: W
HStem: 0 21G<55 125 318 411> 503 20G<310 401> 698 20G<55 125>
VStem: 55 70<0 198 0 718>
DStem: 185 264 237 328 318 0 411 0 310 523 401 523 125 302 237 328
Fore
237 328 m 1
 411 0 l 1
 318 0 l 1
 185 264 l 1
 125 198 l 1
 125 0 l 1
 55 0 l 1
 55 718 l 1
 125 718 l 1
 125 302 l 1
 310 523 l 1
 401 523 l 1
 237 328 l 1
EndSplineSet
KernsSLIF: 362 -3 0 0 117 -3 0 0 115 -9 0 0 46 1 0 0 351 -19 0 0 352 -19 0 0 111 -19 0 0 45 -31 0 0 103 -18 0 0 335 -19 0 0 101 -19 0 0 44 1 0 0 328 -5 0 0 241 -5 0 0 322 -5 0 0 323 -5 0 0 97 -5 0 0
EndChar
StartChar: l
Encoding: 108 108 77
Width: 182
Flags: W
HStem: 0 21G<55 127> 698 20G<55 127>
VStem: 55 72<0 718>
Fore
127 718 m 1
 127 0 l 1
 55 0 l 1
 55 718 l 1
 127 718 l 1
EndSplineSet
KernsSLIF: 121 -3 0 0 118 -3 0 0
EndChar
StartChar: m
Encoding: 109 109 78
Width: 683
Flags: W
HStem: 0 21G<53 125 306 378 559 631> 460 78<237 254 479 496>
VStem: 53 68<0 523> 306 72<0 339> 559 72<0 364>
Fore
53 0 m 1
 53 523 l 1
 121 523 l 1
 121 446 l 1
 158 511 197 538 254 538 c 0
 307 538 340 514 367 453 c 1
 416 520 444 538 496 538 c 0
 579 538 631 471 631 362 c 2
 631 0 l 1
 559 0 l 1
 559 338 l 2
 559 420 534 460 481 460 c 0
 423 460 378 398 378 319 c 2
 378 0 l 1
 306 0 l 1
 306 362 l 2
 306 424 281 460 239 460 c 0
 170 460 125 391 125 285 c 2
 125 0 l 1
 53 0 l 1
EndSplineSet
KernsSLIF: 121 -13 0 0 119 -7 0 0 118 -13 0 0 112 4 0 0
EndChar
StartChar: n
Encoding: 110 110 79
Width: 456
Flags: W
HStem: 0 21G<53 125 331 403> 460 78<241 258>
VStem: 53 68<0 523> 331 72<0 356>
Fore
121 523 m 1
 121 446 l 1
 158 511 199 538 258 538 c 0
 349 538 403 471 403 356 c 2
 403 0 l 1
 331 0 l 1
 331 322 l 2
 331 418 304 460 243 460 c 0
 170 460 125 394 125 285 c 2
 125 0 l 1
 53 0 l 1
 53 523 l 1
 121 523 l 1
EndSplineSet
KernsSLIF: 121 -14 0 0 119 -8 0 0 118 -14 0 0 39 -3 0 0 112 4 0 0 84 -75 0 0
EndChar
StartChar: o
Encoding: 111 111 80
Width: 456
Flags: W
HStem: -14 77<228 238> 461 77<220 238>
VStem: 29 75<262 291> 352 75<262 291>
Fore
231 538 m 0
 346 538 427 423 427 262 c 0
 427 99 346 -14 228 -14 c 0
 111 -14 29 99 29 262 c 0
 29 427 110 538 231 538 c 0
230 461 m 0
 152 461 104 384 104 262 c 0
 104 141 153 63 228 63 c 0
 303 63 352 141 352 262 c 0
 352 382 303 461 230 461 c 0
EndSplineSet
KernsSLIF: 121 -17 0 0 120 -18 0 0 119 -9 0 0 118 -15 0 0 116 -7 0 0 39 -8 0 0 84 -77 0 0
EndChar
StartChar: p
Encoding: 112 112 81
Width: 456
Flags: W
HStem: -15 77<223 249> 460 78<232 249>
VStem: 48 69<-207 277 -207 523> 349 75<240 290>
Fore
48 -207 m 1
 48 523 l 1
 116 523 l 1
 116 446 l 1
 154 514 189 538 247 538 c 0
 353 538 424 432 424 274 c 0
 424 100 350 -15 237 -15 c 0
 184 -15 149 7 120 58 c 1
 120 -207 l 1
 48 -207 l 1
235 460 m 0
 157 460 117 387 117 245 c 0
 117 131 162 62 234 62 c 0
 307 62 349 139 349 271 c 0
 349 394 309 460 235 460 c 0
EndSplineSet
KernsSLIF: 121 -15 0 0 116 -6 0 0
EndChar
StartChar: q
Encoding: 113 113 82
Width: 456
Flags: W
HStem: -15 77<204 224> 460 78<204 223>
VStem: 29 75<240 290> 333 72<-207 523>
Fore
405 523 m 1
 405 -207 l 1
 333 -207 l 1
 333 58 l 1
 304 7 269 -15 216 -15 c 0
 103 -15 29 100 29 274 c 0
 29 432 100 538 206 538 c 0
 264 538 298 514 337 446 c 1
 337 523 l 1
 405 523 l 1
221 460 m 0
 143 460 104 397 104 270 c 0
 104 139 146 62 218 62 c 0
 292 62 336 131 336 245 c 0
 336 385 296 460 221 460 c 0
EndSplineSet
KernsSLIF: 117 1 0 0 99 6 0 0
EndChar
StartChar: r
Encoding: 114 114 83
Width: 273
Flags: W
HStem: 0 21G<63 135> 445 93<238 255>
VStem: 63 68<0 523>
Fore
272 445 m 1
 245 445 l 2
 181 445 135 386 135 305 c 2
 135 0 l 1
 63 0 l 1
 63 523 l 1
 131 523 l 1
 131 434 l 1
 169 509 203 538 253 538 c 0
 260 538 265 537 272 535 c 1
 272 445 l 1
EndSplineSet
KernsSLIF: 122 6 0 0 121 23 0 0 120 19 0 0 119 22 0 0 118 24 0 0 116 23 0 0 59 -5 0 0 115 2 0 0 114 -3 0 0 39 14 0 0 113 -4 0 0 46 -48 0 0 112 4 0 0 249 -7 0 0 353 -11 0 0 250 -7 0 0 351 -11 0 0 354 -11 0 0 352 -11 0 0 111 -11 0 0 110 2 0 0 109 2 0 0 108 1 0 0 107 1 0 0 105 1 0 0 45 -30 0 0 104 2 0 0 103 -4 0 0 102 23 0 0 336 -10 0 0 337 -10 0 0 335 -10 0 0 101 -10 0 0 100 -4 0 0 44 -48 0 0 58 -5 0 0 332 -3 0 0 99 -6 0 0 328 -3 0 0 324 -3 0 0 241 -3 0 0 322 -3 0 0 325 -3 0 0 323 -3 0 0 97 -3 0 0
EndChar
StartChar: s
Encoding: 115 115 84
Width: 410
Flags: W
HStem: -15 77<185 225> 461 77<185 219>
VStem: 40 70<372 389> 308 72<142 157>
Fore
366 374 m 1
 296 374 l 1
 293 433 262 461 199 461 c 0
 144 461 110 433 110 387 c 0
 110 350 124 337 187 318 c 2
 260 296 l 2
 347 269 380 231 380 157 c 0
 380 52 311 -15 202 -15 c 0
 131 -15 76 13 49 64 c 0
 34 91 29 116 26 168 c 1
 96 168 l 1
 101 94 134 62 207 62 c 0
 270 62 308 93 308 144 c 0
 308 183 289 199 223 219 c 2
 139 244 l 2
 72 264 40 306 40 373 c 0
 40 473 105 538 204 538 c 0
 302 538 360 479 366 374 c 1
EndSplineSet
KernsSLIF: 116 -5 0 0 39 -5 0 0
EndChar
StartChar: t
Encoding: 116 116 85
Width: 228
Flags: W
HStem: -7 76<153 185> 450 73<11 69 141 211>
VStem: 69 72<103 450 523 669>
Fore
211 450 m 1
 141 450 l 1
 141 110 l 2
 141 81 153 69 185 69 c 2
 210 69 l 1
 210 0 l 1
 194 -2 184 -3 178 -4 c 0
 162 -7 158 -7 153 -7 c 0
 96 -7 69 29 69 105 c 2
 69 450 l 1
 11 450 l 1
 11 523 l 1
 69 523 l 1
 69 669 l 1
 141 669 l 1
 141 523 l 1
 211 523 l 1
 211 450 l 1
EndSplineSet
KernsSLIF: 59 -13 0 0 39 10 0 0 351 -10 0 0 352 -10 0 0 111 -10 0 0 104 1 0 0 335 -10 0 0 101 -10 0 0 58 -13 0 0 328 1 0 0 241 1 0 0 322 1 0 0 323 1 0 0 97 1 0 0 83 -8 0 0
EndChar
StartChar: u
Encoding: 117 117 86
Width: 456
Flags: W
HStem: -15 77<196 217> 503 20G<56 128 329 401>
VStem: 56 72<147 523> 329 72<208 523>
Fore
401 0 m 1
 333 0 l 1
 333 81 l 1
 295 9 261 -15 197 -15 c 0
 109 -15 56 45 56 147 c 2
 56 523 l 1
 128 523 l 1
 128 176 l 2
 128 101 156 62 211 62 c 0
 283 62 329 129 329 235 c 2
 329 523 l 1
 401 523 l 1
 401 0 l 1
EndSplineSet
KernsSLIF: 39 5 0 0
EndChar
StartChar: v
Encoding: 118 118 87
Width: 410
Flags: W
HStem: 0 21G<163 240> 503 20G<7 90 324 403>
Fore
202 94 m 1
 324 523 l 1
 403 523 l 1
 240 0 l 1
 163 0 l 1
 7 523 l 1
 90 523 l 1
 202 94 l 1
EndSplineSet
KernsSLIF: 59 -8 0 0 115 -10 0 0 46 -50 0 0 249 -12 0 0 353 -16 0 0 351 -16 0 0 352 -16 0 0 111 -16 0 0 108 -2 0 0 45 -3 0 0 103 -15 0 0 336 -16 0 0 337 -16 0 0 335 -16 0 0 101 -16 0 0 44 -50 0 0 58 -8 0 0 99 -12 0 0 327 -16 0 0 328 -16 0 0 324 -16 0 0 241 -16 0 0 322 -16 0 0 325 -16 0 0 323 -16 0 0 97 -16 0 0
EndChar
StartChar: w
Encoding: 119 119 88
Width: 592
Flags: W
HStem: 0 21G<135 209 382 456> 503 20G<11 90 256 337 509 581>
DStem: 256 523 294 409 173 108 209 0 294 409 337 523 382 0 421 108
Fore
294 409 m 1
 209 0 l 1
 135 0 l 1
 11 523 l 1
 90 523 l 1
 173 108 l 1
 256 523 l 1
 337 523 l 1
 421 108 l 1
 509 523 l 1
 581 523 l 1
 456 0 l 1
 382 0 l 1
 294 409 l 1
EndSplineSet
KernsSLIF: 59 -10 0 0 115 -7 0 0 46 -37 0 0 249 -5 0 0 353 -9 0 0 351 -9 0 0 352 -9 0 0 111 -9 0 0 108 -4 0 0 45 3 0 0 103 -8 0 0 336 -9 0 0 337 -9 0 0 335 -9 0 0 101 -9 0 0 44 -37 0 0 58 -10 0 0 99 -5 0 0 327 -13 0 0 328 -13 0 0 324 -13 0 0 241 -13 0 0 322 -13 0 0 325 -13 0 0 323 -13 0 0 97 -13 0 0
EndChar
StartChar: x
Encoding: 120 120 89
Width: 410
Flags: W
HStem: 0 21G<9 100 310 402> 503 20G<16 109 308 396>
DStem: 16 523 109 523 160 269 208 339 160 269 203 197 9 0 100 0 203 197 251 269 310 0 402 0 308 523 396 523 208 339 251 269
Fore
251 269 m 1
 402 0 l 1
 310 0 l 1
 203 197 l 1
 100 0 l 1
 9 0 l 1
 160 269 l 1
 16 523 l 1
 109 523 l 1
 208 339 l 1
 308 523 l 1
 396 523 l 1
 251 269 l 1
EndSplineSet
KernsSLIF: 113 -14 0 0 111 -17 0 0 335 -17 0 0 101 -17 0 0 99 -13 0 0 97 -10 0 0
EndChar
StartChar: y
Encoding: 121 121 90
Width: 410
Flags: W
HStem: -214 79<81 94> 503 20G<9 90 321 401>
Fore
205 94 m 1
 321 523 l 1
 401 523 l 1
 246 10 l 1
 182 -197 169 -214 83 -214 c 0
 73 -214 67 -213 54 -208 c 2
 48 -206 l 1
 48 -126 l 1
 62 -132 77 -135 92 -135 c 0
 122 -135 134 -121 150 -68 c 0
 153 -60 160 -38 168 -14 c 1
 9 523 l 1
 90 523 l 1
 205 94 l 1
EndSplineSet
KernsSLIF: 59 -9 0 0 115 -11 0 0 46 -49 0 0 249 -12 0 0 353 -16 0 0 351 -16 0 0 352 -16 0 0 111 -16 0 0 108 -3 0 0 45 -2 0 0 103 -15 0 0 336 -17 0 0 337 -17 0 0 335 -17 0 0 101 -17 0 0 44 -49 0 0 58 -9 0 0 99 -13 0 0 327 -16 0 0 328 -16 0 0 324 -16 0 0 241 -16 0 0 322 -16 0 0 325 -16 0 0 323 -16 0 0 97 -16 0 0
EndChar
StartChar: z
Encoding: 122 122 91
Width: 410
Flags: W
HStem: 0 73<121 385> 450 73<45 284>
DStem: 284 450 378 451 25 69 121 73
Fore
378 451 m 1
 121 73 l 1
 385 73 l 1
 385 0 l 1
 25 0 l 1
 25 69 l 1
 284 450 l 1
 45 450 l 1
 45 523 l 1
 378 523 l 1
 378 451 l 1
EndSplineSet
EndChar
StartChar: braceleft
Encoding: 123 123 92
Width: 274
Flags: W
HStem: -196 65<201 239> 657 65<184 239>
VStem: 100 65<-69 125 403 595>
Fore
34 234 m 1
 34 294 l 1
 53 297 61 301 71 314 c 0
 90 339 100 377 100 421 c 2
 100 593 l 2
 100 666 136 722 184 722 c 2
 239 722 l 1
 239 657 l 1
 203 657 l 2
 178 657 165 629 165 575 c 2
 165 405 l 2
 165 341 134 283 91 264 c 1
 137 242 165 187 165 120 c 2
 165 -49 l 2
 165 -103 178 -131 203 -131 c 2
 239 -131 l 1
 239 -196 l 1
 184 -196 l 2
 136 -196 100 -140 100 -67 c 2
 100 104 l 2
 100 150 89 189 70 214 c 0
 60 227 53 231 34 234 c 1
EndSplineSet
EndChar
StartChar: bar
Encoding: 124 124 93
Width: 213
Flags: W
HStem: -19 21G<77 137> 717 20G<77 137>
VStem: 77 60<-19 737>
Fore
77 -19 m 1
 77 737 l 1
 137 737 l 1
 137 -19 l 1
 77 -19 l 1
EndSplineSet
EndChar
StartChar: braceright
Encoding: 125 125 94
Width: 274
Flags: W
HStem: 702 20G<34 89>
VStem: 108 65<-69 125 403 595>
Fore
239 294 m 1
 239 234 l 1
 220 231 213 227 203 214 c 0
 183 189 173 151 173 104 c 2
 173 -67 l 2
 173 -140 137 -196 89 -196 c 2
 34 -196 l 1
 34 -131 l 1
 70 -131 l 2
 95 -131 108 -102 108 -49 c 2
 108 120 l 2
 108 187 136 242 182 264 c 1
 139 283 108 341 108 405 c 2
 108 575 l 2
 108 629 95 657 70 657 c 2
 34 657 l 1
 34 722 l 1
 89 722 l 2
 137 722 173 666 173 593 c 2
 173 421 l 2
 173 376 183 339 202 314 c 0
 212 301 220 297 239 294 c 1
EndSplineSet
EndChar
StartChar: asciitilde
Encoding: 126 126 95
Width: 479
Flags: W
Fore
388 305 m 1
 429 267 l 1
 395 206 366 181 326 181 c 0
 301 181 279 190 243 214 c 0
 205 239 179 249 150 249 c 0
 124 249 107 235 89 200 c 1
 50 236 l 1
 78 297 108 322 151 322 c 0
 179 322 199 314 267 277 c 0
 294 262 316 254 329 254 c 0
 349 254 366 268 388 305 c 1
EndSplineSet
EndChar
StartChar: exclamdown
Encoding: 161 161 96
Width: 273
Flags: W
HStem: 503 20G<97 176>
VStem: 97 79<-195 42 421 523>
Fore
97 421 m 1
 97 523 l 1
 176 523 l 1
 176 421 l 1
 97 421 l 1
117 352 m 1
 156 352 l 1
 176 42 l 1
 176 -195 l 1
 97 -195 l 1
 97 42 l 1
 117 352 l 1
EndSplineSet
EndChar
StartChar: cent
Encoding: 162 162 97
Width: 456
Flags: W
HStem: -19 77<230 251> 461 77<230 251>
VStem: 42 72<236 270>
DStem: 155 -1 186 -12 127 -115 161 -115 263 459 295 447 174 78 204 61 300 623 332 623 279 532 312 523
Fore
418 345 m 1
 350 345 l 1
 339 404 324 432 295 447 c 1
 204 61 l 1
 213 59 220 58 232 58 c 0
 299 58 331 91 351 183 c 1
 421 183 l 1
 402 52 337 -19 238 -19 c 0
 226 -19 216 -18 186 -12 c 1
 161 -115 l 1
 127 -115 l 1
 155 -1 l 1
 76 52 42 128 42 251 c 0
 42 430 118 538 243 538 c 0
 259 538 269 536 279 532 c 1
 300 623 l 1
 332 623 l 1
 312 523 l 1
 371 499 410 434 418 345 c 1
174 78 m 1
 263 459 l 1
 258 460 252 461 245 461 c 0
 162 461 114 385 114 252 c 0
 114 172 135 112 174 78 c 1
EndSplineSet
EndChar
StartChar: sterling
Encoding: 163 163 98
Width: 456
Flags: W
HStem: -16 83<337 355> 29 73<168 207> 317 63<27 115 167 304> 641 77<234 252>
VStem: 48 77<516 529> 130 68<239 257>
Fore
167 380 m 1x7c
 304 380 l 1
 304 317 l 1
 191 317 l 1
 196 292 198 273 198 253 c 0
 198 226 192 198 180 170 c 0
 161 128 143 104 95 61 c 1
 139 90 171 102 207 102 c 0x7c
 228 102 253 96 290 82 c 0
 317 72 335 67 345 67 c 0
 367 67 389 78 408 98 c 1
 442 32 l 1
 403 -3 375 -16 339 -16 c 0xbc
 321 -16 299 -10 261 5 c 0
 218 22 189 29 168 29 c 0
 138 29 109 17 70 -11 c 1
 30 58 l 1
 64 88 78 103 93 128 c 0
 116 165 130 209 130 243 c 0
 130 263 125 286 115 317 c 1
 27 317 l 1
 27 380 l 1
 84 380 l 1
 55 451 48 477 48 516 c 0
 48 635 129 718 245 718 c 0
 303 718 347 699 378 660 c 0
 410 621 427 566 427 505 c 2
 427 490 l 1
 355 490 l 1
 355 499 l 2
 355 583 309 641 240 641 c 0
 176 641 125 586 125 516 c 0
 125 484 135 451 167 380 c 1x7c
EndSplineSet
EndChar
StartChar: fraction
Encoding: 164 8260 99
Width: 137
Flags: W
HStem: -19 21G<-136 -89> 683 20G<226 273>
DStem: 226 703 273 703 -136 -19 -89 -19
Fore
273 703 m 1
 -89 -19 l 1
 -136 -19 l 1
 226 703 l 1
 273 703 l 1
EndSplineSet
EndChar
StartChar: yen
Encoding: 165 165 100
Width: 456
Flags: W
HStem: 0 21G<191 263> 185 57<34 191 263 422> 327 57<34 191 294 422> 668 20G<2 84 371 453>
VStem: 191 72<0 185 242 327>
Fore
34 327 m 1
 34 384 l 1
 160 384 l 1
 2 688 l 1
 84 688 l 1
 227 393 l 1
 371 688 l 1
 453 688 l 1
 294 384 l 1
 422 384 l 1
 422 327 l 1
 263 327 l 1
 263 242 l 1
 422 242 l 1
 422 185 l 1
 263 185 l 1
 263 0 l 1
 191 0 l 1
 191 185 l 1
 34 185 l 1
 34 242 l 1
 191 242 l 1
 191 327 l 1
 34 327 l 1
EndSplineSet
EndChar
StartChar: florin
Encoding: 166 402 101
Width: 456
Flags: W
HStem: -207 78<38 56> 391 70<94 183 269 363> 660 77<342 360>
DStem: 183 391 259 391 131 46 210 64 218 585 286 564 195 461 269 461
Fore
411 722 m 1
 399 644 l 1
 395 646 l 1
 392 647 l 2
 373 657 362 660 352 660 c 0
 320 660 295 624 286 564 c 1
 269 461 l 1
 363 461 l 1
 363 391 l 1
 259 391 l 1
 210 64 l 2
 182 -123 129 -207 40 -207 c 0
 19 -207 7 -204 -9 -195 c 1
 4 -114 l 1
 20 -125 32 -129 46 -129 c 0
 91 -129 110 -89 131 46 c 1
 183 391 l 1
 94 391 l 1
 94 461 l 1
 195 461 l 1
 218 585 l 2
 235 676 288 737 350 737 c 0
 372 737 387 733 411 722 c 1
EndSplineSet
EndChar
StartChar: section
Encoding: 167 167 102
Width: 456
Flags: W
HStem: -191 77<209 230> -23 20G<68 140> 660 77<228 230>
VStem: 35 68<312 338> 79 72<567 583> 306 72<-48 -28> 352 68<222 244>
DStem: 88 187 140 246 261 47 295 124 158 428 211 490 301 321 331 404
Fore
377 554 m 1xe8
 308 554 l 1
 303 628 279 660 228 660 c 0
 183 660 151 628 151 581 c 0
 151 547 168 520 211 490 c 2
 331 404 l 2
 394 358 420 312 420 244 c 0xea
 420 176 397 133 335 84 c 1
 367 41 378 13 378 -30 c 0
 378 -122 312 -191 223 -191 c 0
 164 -191 114 -161 89 -110 c 0
 75 -80 70 -55 68 -3 c 1
 140 -3 l 1
 142 -79 168 -114 221 -114 c 0
 273 -114 306 -83 306 -33 c 0
 306 -1 294 20 261 47 c 2
 88 187 l 2
 54 215 35 260 35 313 c 0xf4
 35 382 56 422 117 467 c 1
 87 508 79 530 79 567 c 0
 79 667 140 737 228 737 c 0
 286 737 332 709 356 661 c 0
 370 631 375 606 377 554 c 1xe8
140 246 m 2
 295 124 l 1
 338 159 352 184 352 224 c 0
 352 263 334 296 301 321 c 2
 158 428 l 1
 119 401 103 374 103 330 c 0xf2
 103 294 115 265 140 246 c 2
EndSplineSet
EndChar
StartChar: currency
Encoding: 168 164 103
Width: 456
Flags: W
HStem: 102 70<228 232> 528 70<214 232>
VStem: 27 60<351 372> 369 60<338 356>
DStem: 23 555 62 603 68 501 109 547 68 200 106 157 24 144 61 99 350 157 388 200 395 99 432 144 394 603 433 555 347 547 388 501
Fore
394 603 m 1
 433 555 l 1
 388 501 l 1
 417 455 429 411 429 351 c 0
 429 293 417 249 388 200 c 1
 432 144 l 1
 395 99 l 1
 350 157 l 1
 312 118 275 102 228 102 c 0
 180 102 144 118 106 157 c 1
 61 99 l 1
 24 144 l 1
 68 200 l 1
 39 248 27 292 27 351 c 0
 27 411 39 456 68 501 c 1
 23 555 l 1
 62 603 l 1
 109 547 l 1
 146 582 183 598 228 598 c 0
 273 598 310 582 347 547 c 1
 394 603 l 1
230 528 m 0
 152 528 87 448 87 351 c 0
 87 253 151 172 228 172 c 0
 305 172 369 253 369 350 c 0
 369 446 304 528 230 528 c 0
EndSplineSet
EndChar
StartChar: quotesingle
Encoding: 169 39 104
Width: 157
Flags: W
HStem: 698 20G<48 108>
VStem: 48 60<463 718>
Fore
48 463 m 1
 48 718 l 1
 108 718 l 1
 108 463 l 1
 48 463 l 1
EndSplineSet
EndChar
StartChar: quotedblleft
Encoding: 170 8220 105
Width: 273
Flags: W
VStem: 31 42<568 599.294> 31 85<469 576> 167 42<568 599.749> 167 85<469 576>
Fore
252 576 m 1x10
 252 469 l 1
 167 469 l 1x10
 167 568 l 2x20
 167 660 190 703 252 725 c 1
 252 678 l 1x10
 221 671 208 642 209 576 c 1x20
 252 576 l 1x10
116 576 m 1x40
 116 469 l 1
 31 469 l 1x40
 31 568 l 2x80
 31 660 55 703 116 725 c 1
 116 678 l 1x40
 85 671 72 641 73 576 c 1x80
 116 576 l 1x40
EndSplineSet
KernsSLIF: 89 14 1 0 87 31 1 0 86 24 1 0 84 16 1 0 262 -41 1 0 256 -41 1 0 257 -41 1 0 225 -44 1 0 65 -41 1 0
EndChar
StartChar: guillemotleft
Encoding: 171 171 106
Width: 456
Flags: W
DStem: 80 231 122 277 208 108 208 196 208 446 208 358 80 323 122 277 248 231 290 277 376 108 376 196 376 446 376 358 248 323 290 277
Fore
208 196 m 1
 208 108 l 1
 80 231 l 1
 80 323 l 1
 208 446 l 1
 208 358 l 1
 122 277 l 1
 208 196 l 1
376 196 m 1
 376 108 l 1
 248 231 l 1
 248 323 l 1
 376 446 l 1
 376 358 l 1
 290 277 l 1
 376 196 l 1
EndSplineSet
EndChar
StartChar: guilsinglleft
Encoding: 172 8249 107
Width: 273
Flags: W
DStem: 72 231 115 277 201 108 201 196 201 446 201 358 72 323 115 277
Fore
201 196 m 1
 201 108 l 1
 72 231 l 1
 72 323 l 1
 201 446 l 1
 201 358 l 1
 115 277 l 1
 201 196 l 1
EndSplineSet
EndChar
StartChar: guilsinglright
Encoding: 173 8250 108
Width: 273
Flags: W
DStem: 72 358 72 446 158 277 201 323 158 277 201 231 72 196 72 108
Fore
72 108 m 1
 72 196 l 1
 158 277 l 1
 72 358 l 1
 72 446 l 1
 201 323 l 1
 201 231 l 1
 72 108 l 1
EndSplineSet
KernsSLIF: 89 -98 1 0 87 -43 1 0 86 -64 1 0 84 -96 1 0 262 -38 1 0 256 -38 1 0 257 -38 1 0 225 -39 1 0 65 -38 1 0
EndChar
StartChar: fi
Encoding: 174 64257 109
Width: 410
Flags: W
HStem: 0 21G<70 142 284 356> 450 73<11 70 142 214> 649 79<177 188>
VStem: 70 72<0 450 523 593> 284 72<0 523 618 718>
Fore
214 450 m 1
 142 450 l 1
 142 0 l 1
 70 0 l 1
 70 450 l 1
 11 450 l 1
 11 523 l 1
 70 523 l 1
 70 613 l 2
 70 688 108 728 179 728 c 0
 187 728 191 728 214 726 c 1
 214 647 l 1
 202 648 190 649 184 649 c 0
 155 649 142 631 142 588 c 2
 142 523 l 1
 214 523 l 1
 214 450 l 1
356 523 m 1
 356 0 l 1
 284 0 l 1
 284 523 l 1
 356 523 l 1
356 618 m 1
 284 618 l 1
 284 718 l 1
 356 718 l 1
 356 618 l 1
EndSplineSet
Ligature: 0 0 'liga' f i
EndChar
StartChar: fl
Encoding: 175 64258 110
Width: 410
Flags: W
HStem: 0 21G<70 142 282 354> 450 73<11 70 142 214> 649 79<177 188>
VStem: 70 72<0 450 523 593> 282 72<0 718>
Fore
214 450 m 1
 142 450 l 1
 142 0 l 1
 70 0 l 1
 70 450 l 1
 11 450 l 1
 11 523 l 1
 70 523 l 1
 70 613 l 2
 70 688 108 728 179 728 c 0
 187 728 191 728 214 726 c 1
 214 647 l 1
 202 648 190 649 184 649 c 0
 155 649 142 631 142 588 c 2
 142 523 l 1
 214 523 l 1
 214 450 l 1
354 718 m 1
 354 0 l 1
 282 0 l 1
 282 718 l 1
 354 718 l 1
EndSplineSet
Ligature: 0 0 'liga' f l
EndChar
StartChar: endash
Encoding: 177 8211 111
Width: 456
Flags: W
HStem: 240 73<0 456>
Fore
456 313 m 1
 456 240 l 1
 0 240 l 1
 0 313 l 1
 456 313 l 1
EndSplineSet
EndChar
StartChar: dagger
Encoding: 178 8224 112
Width: 456
Flags: W
HStem: 430 77<35 190 267 421> 698 20G<190 267>
VStem: 190 77<-159 430 507 718>
Fore
267 430 m 1
 267 -159 l 1
 190 -159 l 1
 190 430 l 1
 35 430 l 1
 35 507 l 1
 190 507 l 1
 190 718 l 1
 267 718 l 1
 267 507 l 1
 421 507 l 1
 421 430 l 1
 267 430 l 1
EndSplineSet
EndChar
StartChar: daggerdbl
Encoding: 179 8225 113
Width: 456
Flags: W
HStem: 43 77<35 190 267 421> 438 77<35 190 267 421> 698 20G<190 267>
VStem: 190 77<-159 43 120 438 515 718>
Fore
267 438 m 1
 267 120 l 1
 421 120 l 1
 421 43 l 1
 267 43 l 1
 267 -159 l 1
 190 -159 l 1
 190 43 l 1
 35 43 l 1
 35 120 l 1
 190 120 l 1
 190 438 l 1
 35 438 l 1
 35 515 l 1
 190 515 l 1
 190 718 l 1
 267 718 l 1
 267 515 l 1
 421 515 l 1
 421 438 l 1
 267 438 l 1
EndSplineSet
EndChar
StartChar: periodcentered
Encoding: 180 183 114
Width: 228
Flags: W
Fore
115 315 m 0
 142 315 166 285 166 252 c 0
 166 219 142 190 114 190 c 0
 86 190 63 219 63 253 c 0
 63 287 86 315 115 315 c 0
EndSplineSet
EndChar
StartChar: paragraph
Encoding: 182 182 115
Width: 440
Flags: W
HStem: 658 60<205 348>
VStem: 191 60<-173 658> 348 60<-173 718>
Fore
191 -173 m 1
 191 344 l 1
 136 347 108 357 76 385 c 0
 36 420 15 470 15 533 c 0
 15 651 83 718 205 718 c 2
 408 718 l 1
 408 -173 l 1
 348 -173 l 1
 348 658 l 1
 251 658 l 1
 251 -173 l 1
 191 -173 l 1
EndSplineSet
EndChar
StartChar: bullet
Encoding: 183 8226 116
Width: 287
Flags: W
Fore
145 517 m 0
 215 517 273 445 273 359 c 0
 273 273 215 202 143 202 c 0
 72 202 15 272 15 358 c 0
 15 447 72 517 145 517 c 0
EndSplineSet
EndChar
StartChar: quotesinglbase
Encoding: 184 8218 117
Width: 182
Flags: W
HStem: -20 20G<43 87>
VStem: 43 86<0 107>
Fore
43 0 m 1
 43 107 l 1
 129 107 l 1
 129 8 l 2
 129 -84 105 -127 43 -149 c 1
 43 -102 l 1
 75 -95 87 -65 87 0 c 1
 43 0 l 1
EndSplineSet
EndChar
StartChar: quotedblbase
Encoding: 185 8222 118
Width: 273
Flags: W
HStem: -20 20G<21 64 157 200>
VStem: 21 85<0 107> 64 42<-22 8> 157 85<0 107> 200 42<-22 8>
Fore
21 0 m 1xc0
 21 107 l 1
 106 107 l 1
 106 8 l 2
 106 -84 82 -127 21 -149 c 1
 21 -102 l 1xc0
 52 -95 65 -65 64 0 c 1xa0
 21 0 l 1xc0
157 0 m 1x90
 157 107 l 1
 242 107 l 1
 242 8 l 2
 242 -84 219 -127 157 -149 c 1
 157 -102 l 1x90
 188 -95 201 -66 200 0 c 1x88
 157 0 l 1x90
EndSplineSet
KernsSLIF: 89 -71 1 0 87 -25 1 0 86 -53 1 0 84 -60 1 0 225 25 1 0 65 24 1 0
EndChar
StartChar: quotedblright
Encoding: 186 8221 119
Width: 273
Flags: W
HStem: 698 20G<21 106 157 242>
VStem: 21 85<611 718> 64 42<589 619> 157 85<611 718> 200 42<589 619>
Fore
21 611 m 1xc0
 21 718 l 1
 106 718 l 1
 106 619 l 2
 106 527 82 484 21 462 c 1
 21 509 l 1xc0
 52 516 65 546 64 611 c 1xa0
 21 611 l 1xc0
157 611 m 1x90
 157 718 l 1
 242 718 l 1
 242 619 l 2
 242 527 218 484 157 462 c 1
 157 509 l 1x90
 188 516 201 545 200 611 c 1x88
 157 611 l 1x90
EndSplineSet
KernsSLIF: 89 9 1 0 87 23 1 0 86 16 1 0 84 11 1 0 262 -49 1 0 256 -49 1 0 257 -49 1 0 225 -52 1 0 65 -49 1 0
EndChar
StartChar: guillemotright
Encoding: 187 187 120
Width: 456
Flags: W
DStem: 80 358 80 446 166 277 208 323 166 277 208 231 80 196 80 108 248 358 248 446 334 277 376 323 334 277 376 231 248 196 248 108
Fore
208 231 m 1
 80 108 l 1
 80 196 l 1
 166 277 l 1
 80 358 l 1
 80 446 l 1
 208 323 l 1
 208 231 l 1
376 231 m 1
 248 108 l 1
 248 196 l 1
 334 277 l 1
 248 358 l 1
 248 446 l 1
 376 323 l 1
 376 231 l 1
EndSplineSet
KernsSLIF: 89 -102 1 0 87 -48 1 0 86 -68 1 0 84 -101 1 0 262 -42 1 0 256 -42 1 0 257 -42 1 0 225 -43 1 0 65 -42 1 0
EndChar
StartChar: ellipsis
Encoding: 188 8230 121
Width: 820
Flags: W
HStem: 0 107<94 179 367 452 641 726>
VStem: 94 85<0 107> 367 85<0 107> 641 85<0 107>
Fore
179 107 m 1
 179 0 l 1
 94 0 l 1
 94 107 l 1
 179 107 l 1
452 107 m 1
 452 0 l 1
 367 0 l 1
 367 107 l 1
 452 107 l 1
726 107 m 1
 726 0 l 1
 641 0 l 1
 641 107 l 1
 726 107 l 1
EndSplineSet
Ligature: 0 1 'liga' period period period
EndChar
StartChar: perthousand
Encoding: 189 8240 122
Width: 820
Flags: W
HStem: -7 53<397 407 680.221 694> 314 53<398 407 692 694> 321 53<130 134> 642 53<131 135>
VStem: 6 57<508 526> 197 57<492 526> 273 57<180 206> 464 57<156 206> 567 57<180 206> 758 57<156 206>
DStem: 401 703 446 703 76 -19 121 -19
Fore
446 703 m 1x9fc0
 121 -19 l 1
 76 -19 l 1
 401 703 l 1
 446 703 l 1x9fc0
131 695 m 0
 208 695 254 625 254 507 c 0
 254 390 208 321 130 321 c 0xbfc0
 51 321 6 390 6 508 c 0
 6 627 51 695 131 695 c 0
131 642 m 0
 86 642 63 596 63 508 c 0
 63 420 86 374 130 374 c 0
 174 374 197 420 197 508 c 0
 197 595 174 642 131 642 c 0
398 367 m 0xdfc0
 475 367 521 297 521 180 c 0
 521 62 475 -7 397 -7 c 0
 318 -7 273 62 273 180 c 0
 273 300 318 367 398 367 c 0xdfc0
398 314 m 0
 353 314 330 269 330 180 c 0
 330 92 353 46 397 46 c 0
 441 46 464 92 464 181 c 0
 464 267 441 314 398 314 c 0
692 367 m 0
 769 367 815 297 815 180 c 0
 815 62 769 -7 691 -7 c 0
 612 -7 567 62 567 180 c 0
 567 300 612 367 692 367 c 0
692 314 m 0
 647 314 624 269 624 180 c 0
 624 92 647 46 691 46 c 0
 735 46 758 92 758 181 c 0
 758 267 735 314 692 314 c 0
EndSplineSet
EndChar
StartChar: questiondown
Encoding: 191 191 123
Width: 501
Flags: W
HStem: -201 77<247 268> 505 20G<217 297>
VStem: 75 77<-26 8> 217 80<423 525>
Fore
360 33 m 1
 432 33 l 1
 429 -56 419 -92 388 -132 c 0
 354 -176 304 -201 249 -201 c 0
 147 -201 75 -121 75 -6 c 0
 75 56 89 87 152 160 c 0
 214 232 223 255 223 343 c 1
 295 343 l 1
 294 239 284 211 218 128 c 0
 159 54 152 41 152 -5 c 0
 152 -79 190 -124 252 -124 c 0
 323 -124 358 -74 360 33 c 1
217 423 m 1
 217 525 l 1
 297 525 l 1
 297 423 l 1
 217 423 l 1
EndSplineSet
EndChar
StartChar: grave
Encoding: 193 96 124
Width: 273
Flags: W
HStem: 714 20G<11 100>
Fore
118 593 m 1
 11 734 l 1
 100 734 l 1
 173 593 l 1
 118 593 l 1
EndSplineSet
EndChar
StartChar: acute
Encoding: 194 180 125
Width: 273
Flags: W
HStem: 714 20G<173 262>
Fore
262 734 m 1
 155 593 l 1
 100 593 l 1
 173 734 l 1
 262 734 l 1
EndSplineSet
Ligature: 0 1 'liga' space acutecomb
EndChar
StartChar: circumflex
Encoding: 195 710 126
Width: 273
Flags: W
HStem: 714 20G<98 175>
DStem: 98 734 136 686 17 593 82 593 136 686 175 734 190 593 256 593
Fore
136 686 m 1
 82 593 l 1
 17 593 l 1
 98 734 l 1
 175 734 l 1
 256 593 l 1
 190 593 l 1
 136 686 l 1
EndSplineSet
EndChar
StartChar: tilde
Encoding: 196 732 127
Width: 273
Flags: W
HStem: 702 20G<235 276>
Fore
235 722 m 1
 276 722 l 1
 266 650 238 613 193 613 c 0
 181 613 168 617 146 626 c 2
 125 635 l 2
 100 646 85 650 74 650 c 0
 55 650 45 638 36 606 c 1
 -3 606 l 1
 7 680 34 713 82 713 c 0
 99 713 119 708 138 698 c 2
 156 689 l 2
 172 681 187 676 197 676 c 0
 218 676 229 689 235 722 c 1
EndSplineSet
Ligature: 0 1 'liga' space tildecomb
EndChar
StartChar: macron
Encoding: 197 175 128
Width: 273
Flags: W
HStem: 627 57<8 265>
Fore
265 684 m 1
 265 627 l 1
 8 627 l 1
 8 684 l 1
 265 684 l 1
EndSplineSet
Ligature: 0 1 'liga' space uni0304
EndChar
StartChar: breve
Encoding: 198 728 129
Width: 273
Flags: W
HStem: 711 20G<11 51 224 263>
Fore
224 731 m 1
 263 731 l 1
 251 637 212 595 134 595 c 0
 59 595 21 637 11 731 c 1
 51 731 l 1
 53 724 l 2
 66 674 92 652 139 652 c 0
 188 652 209 672 224 731 c 1
EndSplineSet
Ligature: 0 1 'liga' space uni0306
EndChar
StartChar: dotaccent
Encoding: 199 729 130
Width: 273
Flags: W
VStem: 99 75<604 706>
Fore
174 706 m 1
 174 604 l 1
 99 604 l 1
 99 706 l 1
 174 706 l 1
EndSplineSet
Ligature: 0 1 'liga' space uni0307
EndChar
StartChar: dieresis
Encoding: 200 168 131
Width: 273
Flags: W
HStem: 604 102<33 108 165 240>
VStem: 33 75<604 706> 165 75<604 706>
Fore
108 706 m 1
 108 604 l 1
 33 604 l 1
 33 706 l 1
 108 706 l 1
240 706 m 1
 240 604 l 1
 165 604 l 1
 165 706 l 1
 240 706 l 1
EndSplineSet
Ligature: 0 1 'liga' space uni0308
EndChar
StartChar: ring
Encoding: 202 730 132
Width: 273
Flags: W
HStem: 572 40<136 142> 716 40<137 142>
VStem: 61 33<652.618 669> 179 33<652.618 669>
Fore
137 756 m 0
 180 756 212 716 212 664 c 0
 212 611 180 572 136 572 c 0
 93 572 61 611 61 664 c 0
 61 717 93 756 137 756 c 0
137 716 m 0
 113 716 94 693 94 664 c 0
 94 635 113 612 136 612 c 0
 160 612 179 635 179 664 c 0
 179 692 160 716 137 716 c 0
EndSplineSet
Ligature: 0 1 'liga' space uni030A
EndChar
StartChar: cedilla
Encoding: 203 184 133
Width: 273
Flags: W
HStem: -225 47<100 116> -96 38<110 144> -20 20G<117 156>
VStem: 150 62<-146 -128>
DStem: 117 0 156 0 65 -86 118 -62
Fore
65 -86 m 1
 117 0 l 1
 156 0 l 1
 118 -62 l 1
 121 -61 l 1
 123 -61 l 2
 132 -59 137 -58 144 -58 c 0
 185 -58 212 -88 212 -133 c 0
 212 -187 173 -225 116 -225 c 0
 91 -225 69 -219 37 -203 c 1
 51 -163 l 1
 74 -175 87 -178 103 -178 c 0
 133 -178 150 -162 150 -136 c 0
 150 -113 133 -96 110 -96 c 0
 103 -96 95 -98 79 -105 c 1
 65 -86 l 1
EndSplineSet
Ligature: 0 1 'liga' space uni0327
EndChar
StartChar: hungarumlaut
Encoding: 205 733 134
Width: 273
Flags: W
HStem: 714 20G<98 187 246 335>
Fore
187 734 m 1
 80 593 l 1
 25 593 l 1
 98 734 l 1
 187 734 l 1
335 734 m 1
 228 593 l 1
 173 593 l 1
 246 734 l 1
 335 734 l 1
EndSplineSet
Ligature: 0 1 'liga' space uni030B
EndChar
StartChar: ogonek
Encoding: 206 731 135
Width: 273
Flags: W
HStem: -225 47<155 171> -20 20G<149 204>
VStem: 60 62<-135 -122>
Fore
221 -163 m 1
 235 -203 l 1
 205 -218 180 -225 155 -225 c 0
 99 -225 60 -187 60 -133 c 0
 60 -103 69 -72 85 -48 c 0
 101 -25 116 -14 149 0 c 1
 204 0 l 1
 204 -4 l 1
 139 -49 122 -74 122 -124 c 0
 122 -161 137 -178 169 -178 c 0
 185 -178 196 -175 221 -163 c 1
EndSplineSet
Ligature: 0 1 'liga' space uni0328
EndChar
StartChar: caron
Encoding: 207 711 136
Width: 273
Flags: W
HStem: 714 20G<17 82 190 256>
DStem: 17 734 82 734 98 593 136 641 190 734 256 734 136 641 175 593
Fore
82 734 m 1
 136 641 l 1
 190 734 l 1
 256 734 l 1
 175 593 l 1
 98 593 l 1
 17 734 l 1
 82 734 l 1
EndSplineSet
EndChar
StartChar: emdash
Encoding: 208 8212 137
Width: 820
Flags: W
HStem: 240 73<0 820>
Fore
820 313 m 1
 820 240 l 1
 0 240 l 1
 0 313 l 1
 820 313 l 1
EndSplineSet
EndChar
StartChar: AE
Encoding: 225 198 138
Width: 820
Flags: W
HStem: 0 87<455 780> 209 87<186 375> 325 87<455 746> 631 87<246 375 246 774>
VStem: 375 80<0 325 296 631>
DStem: 246 718 295 631 7 0 186 296 246 718 158 209 7 0 93 0
Fore
158 209 m 1
 93 0 l 1
 7 0 l 1
 246 718 l 1
 774 718 l 1
 774 631 l 1
 455 631 l 1
 455 412 l 1
 746 412 l 1
 746 325 l 1
 455 325 l 1
 455 87 l 1
 780 87 l 1
 780 0 l 1
 375 0 l 1
 375 209 l 1
 158 209 l 1
375 296 m 1
 375 631 l 1
 295 631 l 1
 186 296 l 1
 375 296 l 1
EndSplineSet
EndChar
StartChar: ordfeminine
Encoding: 227 170 139
Width: 303
Flags: W
HStem: 304 48<29 272> 405 47<257 269> 685 52<127 149>
VStem: 20 52<495 513> 204 50<527 651>
Fore
284 454 m 1
 284 410 l 1
 278 408 l 2
 269 406 263 405 257 405 c 0
 224 405 212 418 209 456 c 1
 178 420 149 405 110 405 c 0
 56 405 20 442 20 498 c 0
 20 554 53 590 112 598 c 2
 184 608 l 2
 197 610 204 622 204 643 c 0
 204 670 182 685 142 685 c 0
 102 685 83 669 79 632 c 1
 34 632 l 1
 39 704 74 737 147 737 c 0
 213 737 254 704 254 649 c 2
 254 471 l 2
 254 458 258 452 269 452 c 0
 272 452 276 453 284 454 c 1
204 531 m 2
 204 570 l 1
 198 563 181 558 129 550 c 0
 87 543 72 531 72 505 c 0
 72 474 88 457 119 457 c 0
 168 457 204 489 204 531 c 2
29 352 m 1
 272 352 l 1
 272 304 l 1
 29 304 l 1
 29 352 l 1
EndSplineSet
EndChar
StartChar: Lslash
Encoding: 232 321 140
Width: 456
Flags: W
HStem: 0 87<143 440> 698 20G<63 143>
VStem: 63 80<0 396 403 718>
DStem: 239 520 239 462 143 453 143 396
Fore
239 520 m 1
 239 462 l 1
 143 396 l 1
 143 87 l 1
 440 87 l 1
 440 0 l 1
 63 0 l 1
 63 345 l 1
 -16 290 l 1
 -16 348 l 1
 63 403 l 1
 63 718 l 1
 143 718 l 1
 143 453 l 1
 239 520 l 1
EndSplineSet
EndChar
StartChar: Oslash
Encoding: 233 216 141
Width: 638
Flags: W
HStem: -19 87<318 337> 650 87<320 337>
VStem: 32 82<332 382> 524 82<332 382>
DStem: 102 99 126 68 34 9 60 -19 463 578 484 543 156 171 178 138 582 737 607 707 515 648 539 616
Fore
607 707 m 1
 539 616 l 1
 586 533 606 457 606 358 c 0
 606 246 574 144 517 72 c 0
 470 13 400 -19 318 -19 c 0
 239 -19 183 6 126 68 c 1
 60 -19 l 1
 34 9 l 1
 102 99 l 1
 53 183 32 259 32 360 c 0
 32 472 64 574 121 646 c 0
 168 705 238 737 320 737 c 0
 401 737 458 711 515 648 c 1
 582 737 l 1
 607 707 l 1
484 543 m 1
 178 138 l 1
 220 89 261 68 318 68 c 0
 442 68 524 184 524 359 c 0
 524 433 513 485 484 543 c 1
156 171 m 1
 463 578 l 1
 420 629 378 650 320 650 c 0
 196 650 114 534 114 359 c 0
 114 286 126 232 156 171 c 1
EndSplineSet
KernsSLIF: 65 -27 0 0
EndChar
StartChar: OE
Encoding: 234 338 142
Width: 820
Flags: W
HStem: -19 83<269 287> 0 87<504 791> 325 87<504 776> 631 87<430 789> 654 83<269 286>
VStem: 30 82<316 382> 424 80<220 325 230 631>
Fore
430 641 m 1xae
 430 718 l 1
 789 718 l 1
 789 631 l 1
 504 631 l 1
 504 412 l 1
 776 412 l 1
 776 325 l 1
 504 325 l 1
 504 87 l 1
 791 87 l 1
 791 0 l 1
 429 0 l 1x76
 429 78 l 1
 380 4 344 -19 273 -19 c 0
 125 -19 30 126 30 351 c 0
 30 456 51 550 90 618 c 0
 135 698 198 737 279 737 c 0
 351 737 390 712 430 641 c 1xae
424 230 m 2
 424 492 l 2
 424 589 367 654 282 654 c 0
 172 654 112 544 112 343 c 0
 112 162 172 64 283 64 c 0xae
 368 64 424 130 424 230 c 2
EndSplineSet
EndChar
StartChar: ordmasculine
Encoding: 235 186 143
Width: 299
Flags: W
HStem: 304 48<28 271> 405 52<137.485 155> 685 52<147 154>
VStem: 20 55<559 593> 225 55<571 593>
Fore
152 737 m 0
 232 737 280 675 280 571 c 0
 280 466 232 405 150 405 c 0
 68 405 20 466 20 570 c 0
 20 677 67 737 152 737 c 0
151 685 m 0
 102 685 75 644 75 571 c 0
 75 499 102 457 150 457 c 0
 198 457 225 499 225 571 c 0
 225 643 197 685 151 685 c 0
28 352 m 1
 271 352 l 1
 271 304 l 1
 28 304 l 1
 28 352 l 1
EndSplineSet
EndChar
StartChar: ae
Encoding: 241 230 144
Width: 729
Flags: W
HStem: -15 73<169 191> 233 70<381 695> 460 78<493 510>
VStem: 30 75<128 148>
Fore
617 164 m 1
 689 164 l 1
 680 109 658 64 624 31 c 0
 591 -1 553 -15 500 -15 c 0
 423 -15 376 17 339 94 c 1
 320 62 309 48 293 32 c 0
 260 2 217 -15 171 -15 c 0
 85 -15 30 44 30 138 c 0
 30 229 77 287 160 300 c 2
 279 318 l 2
 306 322 317 340 317 378 c 0
 317 435 283 465 218 465 c 0
 155 465 128 438 117 364 c 1
 51 364 l 1
 54 416 60 441 77 469 c 0
 105 515 156 538 228 538 c 0
 292 538 323 522 367 464 c 1
 414 520 448 538 508 538 c 0
 577 538 625 506 658 437 c 0
 683 386 691 336 695 233 c 1
 381 233 l 1
 383 175 389 146 407 117 c 1
 427 81 461 62 503 62 c 0
 561 62 609 105 617 164 c 1
381 303 m 1
 620 303 l 1
 616 357 609 383 592 410 c 0
 573 442 541 460 504 460 c 0
 435 460 386 397 381 303 c 1
315 181 m 2
 315 267 l 1
 301 253 279 248 197 234 c 0
 132 223 105 197 105 146 c 0
 105 90 133 58 182 58 c 0
 254 58 315 115 315 181 c 2
EndSplineSet
KernsSLIF: 121 -19 0 0 119 -11 0 0 118 -17 0 0
EndChar
StartChar: dotlessi
Encoding: 245 305 145
Width: 228
Flags: W
HStem: 0 21G<78 150> 503 20G<78 150>
VStem: 78 72<0 523>
Fore
150 523 m 1
 150 0 l 1
 78 0 l 1
 78 523 l 1
 150 523 l 1
EndSplineSet
EndChar
StartChar: lslash
Encoding: 248 322 146
Width: 182
Flags: W
HStem: 0 21G<55 127> 698 20G<55 127>
VStem: 55 72<0 385 397 718>
Fore
198 435 m 1
 127 385 l 1
 127 0 l 1
 55 0 l 1
 55 339 l 1
 -16 289 l 1
 -16 347 l 1
 55 397 l 1
 55 718 l 1
 127 718 l 1
 127 443 l 1
 198 493 l 1
 198 435 l 1
EndSplineSet
EndChar
StartChar: oslash
Encoding: 249 248 147
Width: 501
Flags: W
HStem: -14 77<227 231> 461 77<214 231>
VStem: 29 75<262 283> 352 75<233 283>
DStem: 75 76 98 46 23 4 48 -22 317 410 334 373 124 143 143 108 415 545 440 519 362 473 383 441
Fore
440 519 m 1
 383 441 l 1
 414 383 427 331 427 261 c 0
 427 98 345 -14 227 -14 c 0
 175 -14 137 4 98 46 c 1
 48 -22 l 1
 23 4 l 1
 75 76 l 1
 43 135 29 191 29 262 c 0
 29 426 110 538 229 538 c 0
 283 538 322 519 362 473 c 1
 415 545 l 1
 440 519 l 1
124 143 m 1
 317 410 l 1
 292 446 266 461 228 461 c 0
 153 461 104 383 104 262 c 0
 104 220 110 183 124 143 c 1
334 373 m 1
 143 108 l 1
 166 77 192 63 227 63 c 0
 303 63 352 141 352 262 c 0
 352 303 347 335 334 373 c 1
EndSplineSet
EndChar
StartChar: oe
Encoding: 250 339 148
Width: 774
Flags: W
HStem: -15 77<546 549> 233 70<426 740> 461 77<220 238 540 558>
VStem: 29 75<262 290>
Fore
662 164 m 1
 734 164 l 1
 715 51 646 -15 546 -15 c 0
 473 -15 428 13 382 86 c 1
 350 17 303 -14 231 -14 c 0
 110 -14 29 97 29 262 c 0
 29 425 110 538 228 538 c 0
 299 538 349 505 389 432 c 1
 434 509 478 538 552 538 c 0
 622 538 670 506 703 437 c 0
 728 386 737 337 740 233 c 1
 426 233 l 1
 428 176 434 147 451 118 c 0
 471 82 506 62 549 62 c 0
 607 62 654 105 662 164 c 1
426 303 m 1
 665 303 l 1
 661 357 654 383 638 410 c 0
 618 442 587 460 550 460 c 0
 480 460 430 397 426 303 c 1
230 461 m 0
 153 461 104 384 104 262 c 0
 104 141 153 63 228 63 c 0
 304 63 353 141 353 262 c 0
 353 382 304 461 230 461 c 0
EndSplineSet
EndChar
StartChar: germandbls
Encoding: 251 223 149
Width: 501
Flags: W
HStem: -15 78<242 264> 354 73<242 264> 651 77<230 264>
VStem: 55 72<0 538> 368 72<528 548> 393 75<208 225>
Fore
218 -8 m 1xf4
 218 67 l 1
 228 65 242 63 253 63 c 0
 345 63 393 115 393 214 c 0xf4
 393 309 348 354 253 354 c 0
 241 354 232 353 222 350 c 1
 222 429 l 1
 227 428 238 427 245 427 c 0
 323 427 368 468 368 538 c 0
 368 608 321 651 244 651 c 0
 162 651 127 609 127 510 c 2
 127 0 l 1
 55 0 l 1
 55 532 l 2
 55 655 127 728 247 728 c 0
 365 728 440 657 440 546 c 0xf8
 440 481 420 437 373 400 c 1
 434 374 468 311 468 223 c 0
 468 159 448 95 413 51 c 0
 380 9 325 -15 262 -15 c 0
 246 -15 237 -14 221 -9 c 2
 218 -8 l 1xf4
EndSplineSet
EndChar
StartChar: Adieresis
Encoding: 256 196 150
Width: 547
Flags: W
HStem: 0 21G<11 93 449 536> 209 87<179 391> 698 20G<232 323> 799 102<169 244 301 376>
VStem: 169 75<799 901> 301 75<799 901>
DStem: 232 718 274 614 11 0 179 296 232 718 155 209 11 0 93 0
Fore
391 209 m 1
 155 209 l 1
 93 0 l 1
 11 0 l 1
 232 718 l 1
 323 718 l 1
 536 0 l 1
 449 0 l 1
 391 209 l 1
179 296 m 1
 362 296 l 1
 274 614 l 1
 179 296 l 1
244 901 m 1
 244 799 l 1
 169 799 l 1
 169 901 l 1
 244 901 l 1
376 901 m 1
 376 799 l 1
 301 799 l 1
 301 901 l 1
 376 901 l 1
EndSplineSet
KernsSLIF: 121 -27 0 0 119 -21 0 0 118 -27 0 0 117 -12 0 0 116 -15 0 0 39 -48 0 0 186 -37 0 0 113 -11 0 0 46 5 0 0 111 -13 0 0 45 -2 0 0 172 -36 0 0 171 -40 0 0 103 -14 0 0 100 -11 0 0 44 5 0 0 99 -10 0 0 97 -3 0 0 89 -78 0 0 87 -39 0 0 86 -56 0 0 85 -29 0 0 84 -74 0 0 81 -28 0 0 79 -27 0 0 71 -30 0 0 67 -28 0 0
Ligature: 0 0 'liga' A uni0308
EndChar
StartChar: Aacute
Encoding: 257 193 151
Width: 547
Flags: W
HStem: 0 21G<11 93 449 536> 209 87<179 391> 698 20G<232 323>
DStem: 232 718 274 614 11 0 179 296 232 718 155 209 11 0 93 0
Fore
391 209 m 1
 155 209 l 1
 93 0 l 1
 11 0 l 1
 232 718 l 1
 323 718 l 1
 536 0 l 1
 449 0 l 1
 391 209 l 1
179 296 m 1
 362 296 l 1
 274 614 l 1
 179 296 l 1
399 929 m 1
 292 788 l 1
 237 788 l 1
 310 929 l 1
 399 929 l 1
EndSplineSet
KernsSLIF: 121 -27 0 0 119 -21 0 0 118 -27 0 0 117 -12 0 0 116 -15 0 0 39 -48 0 0 113 -11 0 0 46 5 0 0 111 -13 0 0 45 -2 0 0 172 -36 0 0 171 -40 0 0 103 -14 0 0 101 -14 0 0 100 -11 0 0 44 5 0 0 99 -10 0 0 97 -3 0 0 89 -78 0 0 87 -39 0 0 86 -56 0 0 85 -29 0 0 84 -74 0 0 81 -28 0 0 79 -27 0 0 71 -30 0 0 67 -28 0 0
Ligature: 0 0 'liga' A acutecomb
EndChar
StartChar: Agrave
Encoding: 258 192 152
Width: 547
Flags: W
HStem: 0 21G<11 93 449 536> 209 87<179 391> 698 20G<232 323>
DStem: 232 718 274 614 11 0 179 296 232 718 155 209 11 0 93 0
Fore
391 209 m 1
 155 209 l 1
 93 0 l 1
 11 0 l 1
 232 718 l 1
 323 718 l 1
 536 0 l 1
 449 0 l 1
 391 209 l 1
179 296 m 1
 362 296 l 1
 274 614 l 1
 179 296 l 1
255 788 m 1
 148 929 l 1
 237 929 l 1
 310 788 l 1
 255 788 l 1
EndSplineSet
KernsSLIF: 46 5 0 0 44 5 0 0 89 -78 0 0 87 -39 0 0 86 -56 0 0 85 -29 0 0 84 -74 0 0 81 -28 0 0 79 -27 0 0 71 -30 0 0 67 -28 0 0
Ligature: 0 0 'liga' A gravecomb
EndChar
StartChar: Acircumflex
Encoding: 259 194 153
Width: 547
Flags: W
HStem: 0 21G<11 93 449 536> 209 87<179 391> 698 20G<232 323>
DStem: 232 718 274 614 11 0 179 296 232 718 155 209 11 0 93 0 235 929 273 881 154 788 219 788 273 881 312 929 327 788 393 788
Fore
391 209 m 1
 155 209 l 1
 93 0 l 1
 11 0 l 1
 232 718 l 1
 323 718 l 1
 536 0 l 1
 449 0 l 1
 391 209 l 1
179 296 m 1
 362 296 l 1
 274 614 l 1
 179 296 l 1
273 881 m 1
 219 788 l 1
 154 788 l 1
 235 929 l 1
 312 929 l 1
 393 788 l 1
 327 788 l 1
 273 881 l 1
EndSplineSet
KernsSLIF: 46 5 0 0 44 5 0 0 89 -78 0 0 87 -39 0 0 86 -56 0 0 85 -29 0 0 84 -74 0 0 81 -28 0 0 79 -27 0 0 71 -30 0 0 67 -28 0 0
Ligature: 0 0 'liga' A uni0302
EndChar
StartChar: Abreve
Encoding: 260 258 154
Width: 547
Flags: W
HStem: 0 21G<11 93 449 536> 209 87<179 391> 698 20G<232 323> 790 57<266 284>
DStem: 232 718 274 614 11 0 179 296 232 718 155 209 11 0 93 0
Fore
391 209 m 1
 155 209 l 1
 93 0 l 1
 11 0 l 1
 232 718 l 1
 323 718 l 1
 536 0 l 1
 449 0 l 1
 391 209 l 1
179 296 m 1
 362 296 l 1
 274 614 l 1
 179 296 l 1
361 926 m 1
 400 926 l 1
 388 832 349 790 271 790 c 0
 196 790 158 832 148 926 c 1
 188 926 l 1
 190 919 l 2
 203 869 229 847 276 847 c 0
 325 847 346 867 361 926 c 1
EndSplineSet
Ligature: 0 0 'liga' A uni0306
EndChar
StartChar: Atilde
Encoding: 261 195 155
Width: 547
Flags: W
HStem: 0 21G<11 93 449 536> 209 87<179 391> 698 20G<232 323> 808 63<324 335> 845 63<208 220>
DStem: 232 718 274 614 11 0 179 296 232 718 155 209 11 0 93 0
Fore
391 209 m 1xe0
 155 209 l 1
 93 0 l 1
 11 0 l 1
 232 718 l 1
 323 718 l 1
 536 0 l 1
 449 0 l 1
 391 209 l 1xe0
179 296 m 1
 362 296 l 1
 274 614 l 1
 179 296 l 1
371 917 m 1
 412 917 l 1
 402 845 374 808 329 808 c 0xf0
 317 808 304 812 282 821 c 2
 261 830 l 2
 236 841 221 845 210 845 c 0
 191 845 181 833 172 801 c 1
 133 801 l 1
 143 875 170 908 218 908 c 0xe8
 235 908 255 903 274 893 c 2
 292 884 l 2
 308 876 323 871 333 871 c 0xf0
 354 871 365 884 371 917 c 1
EndSplineSet
KernsSLIF: 46 5 0 0 44 5 0 0 89 -78 0 0 87 -39 0 0 86 -56 0 0 85 -29 0 0 84 -74 0 0 81 -28 0 0 79 -27 0 0 71 -30 0 0 67 -28 0 0
Ligature: 0 0 'liga' A tildecomb
EndChar
StartChar: Aring
Encoding: 262 197 156
Width: 547
Flags: W
HStem: 0 21G<11 93 449 536> 209 87<179 391> 698 20G<232 323> 760 40<273 277> 904 40<274 276>
VStem: 198 33<852 854> 316 33<852 854>
DStem: 232 718 274 614 11 0 179 296 232 718 155 209 11 0 93 0
Fore
391 209 m 1
 155 209 l 1
 93 0 l 1
 11 0 l 1
 232 718 l 1
 323 718 l 1
 536 0 l 1
 449 0 l 1
 391 209 l 1
179 296 m 1
 362 296 l 1
 274 614 l 1
 179 296 l 1
274 944 m 0
 317 944 349 904 349 852 c 0
 349 799 317 760 273 760 c 0
 230 760 198 799 198 852 c 0
 198 905 230 944 274 944 c 0
274 904 m 0
 250 904 231 881 231 852 c 0
 231 823 250 800 273 800 c 0
 297 800 316 823 316 852 c 0
 316 880 297 904 274 904 c 0
EndSplineSet
KernsSLIF: 121 -27 0 0 119 -21 0 0 118 -27 0 0 117 -12 0 0 116 -15 0 0 39 -48 0 0 186 -37 0 0 113 -11 0 0 46 5 0 0 111 -13 0 0 45 -2 0 0 172 -36 0 0 171 -40 0 0 103 -14 0 0 101 -14 0 0 100 -11 0 0 44 5 0 0 99 -10 0 0 97 -3 0 0 89 -78 0 0 87 -39 0 0 86 -56 0 0 85 -29 0 0 84 -74 0 0 81 -28 0 0 79 -27 0 0 71 -30 0 0 67 -28 0 0
Ligature: 0 0 'liga' A uni030A
EndChar
StartChar: Aogonek
Encoding: 263 260 157
Width: 547
Flags: W
HStem: -225 47<487 503> -20 20G<449 481> 0 21G<11 93> 209 87<179 391> 698 20G<232 323>
VStem: 392 62<-135 -122>
DStem: 232 718 274 614 11 0 179 296 232 718 155 209 11 0 93 0
Fore
391 209 m 1
 155 209 l 1
 93 0 l 1
 11 0 l 1
 232 718 l 1
 323 718 l 1
 536 0 l 1
 536 -4 l 1
 471 -49 454 -74 454 -124 c 0
 454 -161 469 -178 501 -178 c 0
 517 -178 528 -175 553 -163 c 1
 567 -203 l 1
 537 -218 512 -225 487 -225 c 0
 431 -225 392 -187 392 -133 c 0
 392 -95 406 -57 431 -31 c 0
 444 -17 452 -13 481 0 c 1
 449 0 l 1
 391 209 l 1
179 296 m 1
 362 296 l 1
 274 614 l 1
 179 296 l 1
EndSplineSet
Ligature: 0 0 'liga' A uni0328
EndChar
StartChar: Ccedilla
Encoding: 264 199 158
Width: 592
Flags: W
HStem: -225 47<259 276> -96 38<270 304> -19 86<304 315> 650 87<302 325>
VStem: 36 82<318 384> 310 62<-146 -128>
DStem: 267 -17 304 -19 224 -86 278 -62
Fore
304 -19 m 1
 278 -62 l 1
 291 -59 297 -58 304 -58 c 0
 345 -58 372 -88 372 -133 c 0
 372 -187 332 -225 276 -225 c 0
 251 -225 229 -219 197 -203 c 1
 211 -163 l 1
 234 -175 246 -178 263 -178 c 0
 293 -178 310 -163 310 -136 c 0
 310 -113 293 -96 270 -96 c 0
 263 -96 255 -98 238 -105 c 1
 224 -86 l 1
 267 -17 l 1
 122 5 36 145 36 358 c 0
 36 590 143 737 311 737 c 0
 399 737 472 696 514 623 c 0
 536 586 545 558 552 502 c 1
 475 502 l 1
 462 559 449 586 420 612 c 0
 392 636 354 650 313 650 c 0
 191 650 118 539 118 354 c 0
 118 173 188 67 308 67 c 0
 363 67 405 91 438 140 c 0
 459 173 469 202 481 264 c 1
 558 264 l 1
 532 123 505 72 431 19 c 1
 394 -5 351 -18 304 -19 c 1
EndSplineSet
KernsSLIF: 65 -28 0 0
Ligature: 0 0 'liga' C uni0327
EndChar
StartChar: Cacute
Encoding: 265 262 159
Width: 592
Flags: W
HStem: -19 87<291 318> 650 87<299 325>
VStem: 36 82<332 382>
Fore
552 502 m 1
 475 502 l 1
 462 559 449 586 420 612 c 0
 392 636 354 650 313 650 c 0
 191 650 118 539 118 355 c 0
 118 173 188 68 308 68 c 0
 363 68 405 92 438 141 c 0
 459 173 469 202 481 264 c 1
 558 264 l 1
 538 151 516 99 471 53 c 0
 427 6 366 -19 301 -19 c 0
 139 -19 36 127 36 358 c 0
 36 590 143 737 311 737 c 0
 399 737 472 696 514 623 c 0
 536 586 545 558 552 502 c 1
422 903 m 1
 315 762 l 1
 260 762 l 1
 333 903 l 1
 422 903 l 1
EndSplineSet
Ligature: 0 0 'liga' C acutecomb
EndChar
StartChar: Ccaron
Encoding: 266 268 160
Width: 592
Flags: W
HStem: -19 87<291 318> 650 87<299 325>
VStem: 36 82<332 382>
DStem: 197 929 262 929 278 788 316 836 370 929 436 929 316 836 355 788
Fore
552 502 m 1
 475 502 l 1
 462 559 449 586 420 612 c 0
 392 636 354 650 313 650 c 0
 191 650 118 539 118 355 c 0
 118 173 188 68 308 68 c 0
 363 68 405 92 438 141 c 0
 459 173 469 202 481 264 c 1
 558 264 l 1
 538 151 516 99 471 53 c 0
 427 6 366 -19 301 -19 c 0
 139 -19 36 127 36 358 c 0
 36 590 143 737 311 737 c 0
 399 737 472 696 514 623 c 0
 536 586 545 558 552 502 c 1
262 929 m 1
 316 836 l 1
 370 929 l 1
 436 929 l 1
 355 788 l 1
 278 788 l 1
 197 929 l 1
 262 929 l 1
EndSplineSet
Ligature: 0 0 'liga' C uni030C
EndChar
StartChar: Dcaron
Encoding: 267 270 161
Width: 592
Flags: W
HStem: 0 83<146 308> 635 83<66 307>
VStem: 66 80<0 635> 471 82<335 385>
DStem: 177 929 242 929 258 788 296 836 350 929 416 929 296 836 335 788
Fore
66 0 m 1
 66 718 l 1
 305 718 l 2
 456 718 553 580 553 367 c 0
 553 248 523 146 469 77 c 0
 429 27 370 0 302 0 c 2
 66 0 l 1
146 635 m 1
 146 83 l 1
 300 83 l 2
 406 83 471 188 471 359 c 0
 471 537 408 635 295 635 c 2
 146 635 l 1
242 929 m 1
 296 836 l 1
 350 929 l 1
 416 929 l 1
 335 788 l 1
 258 788 l 1
 177 929 l 1
 242 929 l 1
EndSplineSet
Ligature: 0 0 'liga' D uni030C
EndChar
StartChar: Edieresis
Encoding: 268 203 162
Width: 547
Flags: W
HStem: 0 87<151 505> 325 87<151 472> 631 87<71 499> 799 102<170 245 302 377>
VStem: 71 80<0 325 0 631> 170 75<799 901> 302 75<799 901>
Fore
505 87 m 1
 505 0 l 1
 71 0 l 1
 71 718 l 1
 499 718 l 1
 499 631 l 1
 151 631 l 1
 151 412 l 1
 472 412 l 1
 472 325 l 1
 151 325 l 1
 151 87 l 1
 505 87 l 1
245 901 m 1
 245 799 l 1
 170 799 l 1
 170 901 l 1
 245 901 l 1
377 901 m 1
 377 799 l 1
 302 799 l 1
 302 901 l 1
 377 901 l 1
EndSplineSet
Ligature: 0 0 'liga' E uni0308
EndChar
StartChar: Eacute
Encoding: 269 201 163
Width: 547
Flags: W
HStem: 0 87<151 505> 325 87<151 472> 631 87<71 499>
VStem: 71 80<0 325 0 631>
Fore
505 87 m 1
 505 0 l 1
 71 0 l 1
 71 718 l 1
 499 718 l 1
 499 631 l 1
 151 631 l 1
 151 412 l 1
 472 412 l 1
 472 325 l 1
 151 325 l 1
 151 87 l 1
 505 87 l 1
399 929 m 1
 292 788 l 1
 237 788 l 1
 310 929 l 1
 399 929 l 1
EndSplineSet
Ligature: 0 0 'liga' E acutecomb
EndChar
StartChar: Egrave
Encoding: 270 200 164
Width: 547
Flags: W
HStem: 0 87<151 505> 325 87<151 472> 631 87<71 499>
VStem: 71 80<0 325 0 631>
Fore
505 87 m 1
 505 0 l 1
 71 0 l 1
 71 718 l 1
 499 718 l 1
 499 631 l 1
 151 631 l 1
 151 412 l 1
 472 412 l 1
 472 325 l 1
 151 325 l 1
 151 87 l 1
 505 87 l 1
256 788 m 1
 149 929 l 1
 238 929 l 1
 311 788 l 1
 256 788 l 1
EndSplineSet
Ligature: 0 0 'liga' E gravecomb
EndChar
StartChar: Ecircumflex
Encoding: 271 202 165
Width: 547
Flags: W
HStem: 0 87<151 505> 325 87<151 472> 631 87<71 499>
VStem: 71 80<0 325 0 631>
DStem: 236 929 274 881 155 788 220 788 274 881 313 929 328 788 394 788
Fore
505 87 m 1
 505 0 l 1
 71 0 l 1
 71 718 l 1
 499 718 l 1
 499 631 l 1
 151 631 l 1
 151 412 l 1
 472 412 l 1
 472 325 l 1
 151 325 l 1
 151 87 l 1
 505 87 l 1
274 881 m 1
 220 788 l 1
 155 788 l 1
 236 929 l 1
 313 929 l 1
 394 788 l 1
 328 788 l 1
 274 881 l 1
EndSplineSet
Ligature: 0 0 'liga' E uni0302
EndChar
StartChar: Ecaron
Encoding: 272 282 166
Width: 547
Flags: W
HStem: 0 87<151 505> 325 87<151 472> 631 87<71 499>
VStem: 71 80<0 325 0 631>
DStem: 154 929 219 929 235 788 273 836 327 929 393 929 273 836 312 788
Fore
505 87 m 1
 505 0 l 1
 71 0 l 1
 71 718 l 1
 499 718 l 1
 499 631 l 1
 151 631 l 1
 151 412 l 1
 472 412 l 1
 472 325 l 1
 151 325 l 1
 151 87 l 1
 505 87 l 1
219 929 m 1
 273 836 l 1
 327 929 l 1
 393 929 l 1
 312 788 l 1
 235 788 l 1
 154 929 l 1
 219 929 l 1
EndSplineSet
Ligature: 0 0 'liga' E uni030C
EndChar
StartChar: Edotaccent
Encoding: 273 278 167
Width: 547
Flags: W
HStem: 0 87<151 505> 325 87<151 472> 631 87<71 499>
VStem: 71 80<0 325 0 631> 236 75<799 901>
Fore
505 87 m 1
 505 0 l 1
 71 0 l 1
 71 718 l 1
 499 718 l 1
 499 631 l 1
 151 631 l 1
 151 412 l 1
 472 412 l 1
 472 325 l 1
 151 325 l 1
 151 87 l 1
 505 87 l 1
311 901 m 1
 311 799 l 1
 236 799 l 1
 236 901 l 1
 311 901 l 1
EndSplineSet
Ligature: 0 0 'liga' E uni0307
EndChar
StartChar: Eogonek
Encoding: 274 280 168
Width: 547
Flags: W
HStem: -225 47<456 472> 0 87<151 450> 325 87<151 472> 631 87<71 499>
VStem: 71 80<0 325 0 631> 361 62<-135 -122>
Fore
499 718 m 1
 499 631 l 1
 151 631 l 1
 151 412 l 1
 472 412 l 1
 472 325 l 1
 151 325 l 1
 151 87 l 1
 505 87 l 1
 505 -4 l 1
 440 -49 423 -74 423 -124 c 0
 423 -161 438 -178 470 -178 c 0
 486 -178 497 -175 522 -163 c 1
 536 -203 l 1
 506 -218 481 -225 456 -225 c 0
 400 -225 361 -187 361 -133 c 0
 361 -95 375 -57 400 -31 c 0
 413 -17 421 -13 450 0 c 1
 71 0 l 1
 71 718 l 1
 499 718 l 1
EndSplineSet
Ligature: 0 0 'liga' E uni0328
EndChar
StartChar: Gbreve
Encoding: 275 286 169
Width: 638
Flags: W
HStem: -19 83<306 328> 301 83<319 502> 650 87<306 328> 790 57<306 328>
VStem: 39 82<316 386> 502 75<284 384>
Fore
319 301 m 1
 319 384 l 1
 577 384 l 1
 577 0 l 1
 525 0 l 1
 507 93 l 1
 479 52 462 35 431 15 c 0
 393 -8 353 -19 308 -19 c 0
 235 -19 179 7 132 62 c 0
 68 138 39 227 39 350 c 0
 39 581 151 737 317 737 c 0
 404 737 484 692 529 618 c 0
 550 583 559 555 567 500 c 1
 490 500 l 1
 476 558 461 584 430 611 c 0
 402 636 360 650 318 650 c 0
 197 650 121 535 121 353 c 0
 121 165 190 64 320 64 c 0
 375 64 420 86 455 129 c 0
 488 171 501 215 502 301 c 1
 319 301 l 1
407 926 m 1
 446 926 l 1
 434 832 395 790 317 790 c 0
 242 790 204 832 194 926 c 1
 234 926 l 1
 236 919 l 2
 249 869 275 847 322 847 c 0
 371 847 392 867 407 926 c 1
EndSplineSet
Ligature: 0 0 'liga' G uni0306
EndChar
StartChar: Idieresis
Encoding: 276 207 170
Width: 228
Flags: W
HStem: 0 21G<75 155> 698 20G<75 155> 799 102<11 86 143 218>
VStem: 11 75<799 901> 75 80<0 718> 143 75<799 901>
Fore
155 718 m 1xe8
 155 0 l 1
 75 0 l 1
 75 718 l 1
 155 718 l 1xe8
86 901 m 1xf0
 86 799 l 1
 11 799 l 1
 11 901 l 1
 86 901 l 1xf0
218 901 m 1xe4
 218 799 l 1
 143 799 l 1
 143 901 l 1
 218 901 l 1xe4
EndSplineSet
Ligature: 0 0 'liga' I uni0308
EndChar
StartChar: Iacute
Encoding: 277 205 171
Width: 228
Flags: W
HStem: 0 21G<75 154> 698 20G<75 154>
VStem: 75 79<0 718>
Fore
154 718 m 1
 154 0 l 1
 75 0 l 1
 75 718 l 1
 154 718 l 1
240 903 m 1
 133 762 l 1
 78 762 l 1
 151 903 l 1
 240 903 l 1
EndSplineSet
Ligature: 0 0 'liga' I acutecomb
EndChar
StartChar: Igrave
Encoding: 278 204 172
Width: 228
Flags: W
HStem: 0 21G<74 154> 698 20G<74 154>
VStem: 74 80<0 718>
Fore
154 718 m 1
 154 0 l 1
 74 0 l 1
 74 718 l 1
 154 718 l 1
96 788 m 1
 -11 929 l 1
 78 929 l 1
 151 788 l 1
 96 788 l 1
EndSplineSet
Ligature: 0 0 'liga' I gravecomb
EndChar
StartChar: Icircumflex
Encoding: 279 206 173
Width: 228
Flags: W
HStem: 0 21G<75 155> 698 20G<75 155>
VStem: 75 80<0 718>
DStem: 76 929 114 881 -5 788 60 788 114 881 153 929 168 788 234 788
Fore
155 718 m 1
 155 0 l 1
 75 0 l 1
 75 718 l 1
 155 718 l 1
114 881 m 1
 60 788 l 1
 -5 788 l 1
 76 929 l 1
 153 929 l 1
 234 788 l 1
 168 788 l 1
 114 881 l 1
EndSplineSet
Ligature: 0 0 'liga' I uni0302
EndChar
StartChar: Idotaccent
Encoding: 280 304 174
Width: 228
Flags: W
HStem: 0 21G<75 154> 698 20G<75 154>
VStem: 75 79<0 718 799 901>
Fore
154 718 m 1
 154 0 l 1
 75 0 l 1
 75 718 l 1
 154 718 l 1
152 901 m 1
 152 799 l 1
 77 799 l 1
 77 901 l 1
 152 901 l 1
EndSplineSet
Ligature: 0 0 'liga' I uni0307
EndChar
StartChar: Lacute
Encoding: 281 313 175
Width: 456
Flags: W
HStem: 0 87<141 440> 698 20G<62 142>
VStem: 62 80<0 718>
Fore
142 718 m 1
 142 87 l 1
 440 87 l 1
 440 0 l 1
 62 0 l 1
 62 718 l 1
 142 718 l 1
254 903 m 1
 147 762 l 1
 92 762 l 1
 165 903 l 1
 254 903 l 1
EndSplineSet
Ligature: 0 0 'liga' L acutecomb
EndChar
StartChar: Lcaron
Encoding: 282 317 176
Width: 456
Flags: W
HStem: 0 87<141 440> 496 36<307 322.5> 698 20G<62 142 306 389>
VStem: 62 80<0 718> 306 83<621 718>
Fore
142 718 m 1
 142 87 l 1
 440 87 l 1
 440 0 l 1
 62 0 l 1
 62 718 l 1
 142 718 l 1
306 718 m 1
 389 718 l 1
 389 625 l 2
 389 539 362 496 307 496 c 1
 307 532 l 1
 338 530 354 561 352 621 c 1
 306 621 l 1
 306 718 l 1
EndSplineSet
Ligature: 0 0 'liga' L uni030C
EndChar
StartChar: Nacute
Encoding: 283 323 177
Width: 592
Flags: W
HStem: 0 21G<62 139 441 530> 698 20G<62 156 453 530>
VStem: 62 77<0 583> 453 77<135 718>
DStem: 139 583 156 718 441 0 453 135
Fore
453 135 m 1
 453 718 l 1
 530 718 l 1
 530 0 l 1
 441 0 l 1
 139 583 l 1
 139 0 l 1
 62 0 l 1
 62 718 l 1
 156 718 l 1
 453 135 l 1
422 903 m 1
 315 762 l 1
 260 762 l 1
 333 903 l 1
 422 903 l 1
EndSplineSet
Ligature: 0 0 'liga' N acutecomb
EndChar
StartChar: Ncaron
Encoding: 284 327 178
Width: 592
Flags: W
HStem: 0 21G<62 139 441 530> 698 20G<62 156 453 530>
VStem: 62 77<0 583> 453 77<135 718>
DStem: 139 583 156 718 441 0 453 135 177 929 242 929 258 788 296 836 350 929 416 929 296 836 335 788
Fore
453 135 m 1
 453 718 l 1
 530 718 l 1
 530 0 l 1
 441 0 l 1
 139 583 l 1
 139 0 l 1
 62 0 l 1
 62 718 l 1
 156 718 l 1
 453 135 l 1
242 929 m 1
 296 836 l 1
 350 929 l 1
 416 929 l 1
 335 788 l 1
 258 788 l 1
 177 929 l 1
 242 929 l 1
EndSplineSet
Ligature: 0 0 'liga' N uni030C
EndChar
StartChar: Ntilde
Encoding: 285 209 179
Width: 592
Flags: W
HStem: 0 21G<62 139 441 530> 698 20G<62 156 453 530> 808 63<359 367> 845 63<237 252>
VStem: 62 77<0 583> 453 77<135 718>
DStem: 139 583 156 718 441 0 453 135
Fore
453 135 m 1xcc
 453 718 l 1
 530 718 l 1
 530 0 l 1
 441 0 l 1
 139 583 l 1
 139 0 l 1
 62 0 l 1
 62 718 l 1
 156 718 l 1
 453 135 l 1xcc
403 917 m 1
 444 917 l 1
 434 845 406 808 361 808 c 0xec
 349 808 336 812 314 821 c 2
 293 830 l 2
 268 841 253 845 242 845 c 0
 223 845 213 833 204 801 c 1
 165 801 l 1
 175 875 202 908 250 908 c 0xdc
 267 908 287 903 306 893 c 2
 324 884 l 2
 340 876 355 871 365 871 c 0xec
 386 871 397 884 403 917 c 1
EndSplineSet
Ligature: 0 0 'liga' N tildecomb
EndChar
StartChar: Odieresis
Encoding: 286 214 180
Width: 638
Flags: W
HStem: -19 87<319 337> 650 87<303 337> 799 102<216 291 348 423>
VStem: 32 82<358 382> 216 75<799 901> 348 75<799 901> 524 82<332 382>
Fore
323 737 m 0
 427 737 508 682 559 580 c 0
 589 518 606 437 606 358 c 0
 606 246 574 144 517 72 c 0
 470 13 400 -19 319 -19 c 0
 238 -19 168 13 121 72 c 0
 64 144 32 246 32 358 c 0
 32 472 64 576 121 646 c 0
 170 706 238 737 323 737 c 0
322 650 m 0
 195 650 114 536 114 358 c 0
 114 184 196 68 319 68 c 0
 442 68 524 184 524 359 c 0
 524 532 442 650 322 650 c 0
291 901 m 1
 291 799 l 1
 216 799 l 1
 216 901 l 1
 291 901 l 1
423 901 m 1
 423 799 l 1
 348 799 l 1
 348 901 l 1
 423 901 l 1
EndSplineSet
KernsSLIF: 89 -42 0 0 88 -35 0 0 87 -14 0 0 86 -30 0 0 84 -27 0 0 65 -29 0 0
Ligature: 0 0 'liga' O uni0308
EndChar
StartChar: Oacute
Encoding: 287 211 181
Width: 638
Flags: W
HStem: -19 87<319 339> 650 87<303 341>
VStem: 32 82<358 382> 524 82<332 382>
Fore
323 737 m 0
 427 737 508 682 559 580 c 0
 589 518 606 437 606 358 c 0
 606 246 574 144 517 72 c 0
 470 13 400 -19 319 -19 c 0
 238 -19 168 13 121 72 c 0
 64 144 32 246 32 358 c 0
 32 472 64 576 121 646 c 0
 170 706 238 737 323 737 c 0
322 650 m 0
 195 650 114 536 114 358 c 0
 114 184 196 68 319 68 c 0
 442 68 524 184 524 359 c 0
 524 532 442 650 322 650 c 0
445 929 m 1
 338 788 l 1
 283 788 l 1
 356 929 l 1
 445 929 l 1
EndSplineSet
KernsSLIF: 89 -42 0 0 87 -14 0 0 86 -30 0 0 84 -27 0 0 65 -29 0 0
Ligature: 0 0 'liga' O acutecomb
EndChar
StartChar: Ograve
Encoding: 288 210 182
Width: 638
Flags: W
HStem: -19 87<319 337> 650 87<301 337>
VStem: 32 82<358 382> 524 82<332 382>
Fore
323 737 m 0
 427 737 508 682 559 580 c 0
 589 518 606 437 606 358 c 0
 606 246 574 144 517 72 c 0
 470 13 400 -19 319 -19 c 0
 238 -19 168 13 121 72 c 0
 64 144 32 246 32 358 c 0
 32 472 64 576 121 646 c 0
 170 706 238 737 323 737 c 0
322 650 m 0
 195 650 114 536 114 358 c 0
 114 184 196 68 319 68 c 0
 442 68 524 184 524 359 c 0
 524 532 442 650 322 650 c 0
301 788 m 1
 194 929 l 1
 283 929 l 1
 356 788 l 1
 301 788 l 1
EndSplineSet
KernsSLIF: 89 -42 0 0 86 -30 0 0 84 -27 0 0
Ligature: 0 0 'liga' O gravecomb
EndChar
StartChar: Ocircumflex
Encoding: 289 212 183
Width: 638
Flags: W
HStem: -19 87<319 337> 650 87<303 337>
VStem: 32 82<358 382> 524 82<332 382>
DStem: 281 929 319 881 200 788 265 788 319 881 358 929 373 788 439 788
Fore
323 737 m 0
 427 737 508 682 559 580 c 0
 589 518 606 437 606 358 c 0
 606 246 574 144 517 72 c 0
 470 13 400 -19 319 -19 c 0
 238 -19 168 13 121 72 c 0
 64 144 32 246 32 358 c 0
 32 472 64 576 121 646 c 0
 170 706 238 737 323 737 c 0
322 650 m 0
 195 650 114 536 114 358 c 0
 114 184 196 68 319 68 c 0
 442 68 524 184 524 359 c 0
 524 532 442 650 322 650 c 0
319 881 m 1
 265 788 l 1
 200 788 l 1
 281 929 l 1
 358 929 l 1
 439 788 l 1
 373 788 l 1
 319 881 l 1
EndSplineSet
KernsSLIF: 89 -42 0 0 86 -30 0 0 84 -27 0 0
Ligature: 0 0 'liga' O uni0302
EndChar
StartChar: Otilde
Encoding: 290 213 184
Width: 638
Flags: W
HStem: -19 87<319 339> 650 87<303 341> 808 63<374 385> 845 63<255 267>
VStem: 32 82<358 382> 524 82<332 382>
Fore
323 737 m 0xcc
 427 737 508 682 559 580 c 0
 589 518 606 437 606 358 c 0
 606 246 574 144 517 72 c 0
 470 13 400 -19 319 -19 c 0
 238 -19 168 13 121 72 c 0
 64 144 32 246 32 358 c 0
 32 472 64 576 121 646 c 0
 170 706 238 737 323 737 c 0xcc
322 650 m 0
 195 650 114 536 114 358 c 0
 114 184 196 68 319 68 c 0
 442 68 524 184 524 359 c 0
 524 532 442 650 322 650 c 0
418 917 m 1
 459 917 l 1
 449 845 421 808 376 808 c 0xec
 364 808 351 812 329 821 c 2
 308 830 l 2
 283 841 268 845 257 845 c 0
 238 845 228 833 219 801 c 1
 180 801 l 1
 190 875 217 908 265 908 c 0xdc
 282 908 302 903 321 893 c 2
 339 884 l 2
 355 876 370 871 380 871 c 0xec
 401 871 412 884 418 917 c 1
EndSplineSet
KernsSLIF: 89 -42 0 0 86 -30 0 0 84 -27 0 0
Ligature: 0 0 'liga' O tildecomb
EndChar
StartChar: Ohungarumlaut
Encoding: 291 336 185
Width: 638
Flags: W
HStem: -19 87<319 337> 650 87<303 337>
VStem: 32 82<358 382> 524 82<332 382>
Fore
323 737 m 0
 427 737 508 682 559 580 c 0
 589 518 606 437 606 358 c 0
 606 246 574 144 517 72 c 0
 470 13 400 -19 319 -19 c 0
 238 -19 168 13 121 72 c 0
 64 144 32 246 32 358 c 0
 32 472 64 576 121 646 c 0
 170 706 238 737 323 737 c 0
322 650 m 0
 195 650 114 536 114 358 c 0
 114 184 196 68 319 68 c 0
 442 68 524 184 524 359 c 0
 524 532 442 650 322 650 c 0
370 929 m 1
 263 788 l 1
 208 788 l 1
 281 929 l 1
 370 929 l 1
518 929 m 1
 411 788 l 1
 356 788 l 1
 429 929 l 1
 518 929 l 1
EndSplineSet
Ligature: 0 0 'liga' O uni030B
EndChar
StartChar: Racute
Encoding: 292 340 186
Width: 592
Flags: W
HStem: 0 21G<72 152 463 561> 308 83<152 352> 635 83<72 361>
VStem: 72 80<0 308 0 635> 456 82<495 529>
Fore
152 308 m 1
 152 0 l 1
 72 0 l 1
 72 718 l 1
 345 718 l 2
 470 718 538 650 538 524 c 0
 538 443 517 399 456 353 c 1
 507 329 522 300 527 218 c 1
 531 88 l 1
 533 44 537 33 561 16 c 1
 561 0 l 1
 463 0 l 1
 456 29 450 104 450 180 c 0
 448 272 419 308 345 308 c 2
 152 308 l 1
152 635 m 1
 152 391 l 1
 336 391 l 2
 418 391 456 431 456 516 c 0
 456 596 421 635 350 635 c 2
 152 635 l 1
422 903 m 1
 315 762 l 1
 260 762 l 1
 333 903 l 1
 422 903 l 1
EndSplineSet
Ligature: 0 0 'liga' R acutecomb
EndChar
StartChar: Rcaron
Encoding: 293 344 187
Width: 592
Flags: W
HStem: 0 21G<72 152 463 561> 308 83<152 352> 635 83<72 361>
VStem: 72 80<0 308 0 635> 456 82<495 529>
DStem: 177 929 242 929 258 788 296 836 350 929 416 929 296 836 335 788
Fore
152 308 m 1
 152 0 l 1
 72 0 l 1
 72 718 l 1
 345 718 l 2
 470 718 538 650 538 524 c 0
 538 443 517 399 456 353 c 1
 507 329 522 300 527 218 c 1
 531 88 l 1
 533 44 537 33 561 16 c 1
 561 0 l 1
 463 0 l 1
 456 29 450 104 450 180 c 0
 448 272 419 308 345 308 c 2
 152 308 l 1
152 635 m 1
 152 391 l 1
 336 391 l 2
 418 391 456 431 456 516 c 0
 456 596 421 635 350 635 c 2
 152 635 l 1
242 929 m 1
 296 836 l 1
 350 929 l 1
 416 929 l 1
 335 788 l 1
 258 788 l 1
 177 929 l 1
 242 929 l 1
EndSplineSet
Ligature: 0 0 'liga' R uni030C
EndChar
StartChar: Sacute
Encoding: 294 346 188
Width: 547
Flags: W
HStem: -19 83<263 297> 654 83<270 282>
VStem: 60 77<516 542> 431 77<172 206>
Fore
492 508 m 1
 417 508 l 1
 414 548 408 569 394 593 c 0
 369 632 325 654 270 654 c 0
 186 654 137 608 137 530 c 0
 137 479 159 450 206 437 c 2
 374 390 l 2
 462 366 508 299 508 197 c 0
 508 63 420 -19 276 -19 c 0
 186 -19 128 8 83 71 c 0
 52 114 41 155 40 232 c 1
 115 232 l 1
 116 185 122 161 138 134 c 0
 165 89 214 64 280 64 c 0
 375 64 431 109 431 188 c 0
 431 257 403 284 306 312 c 2
 185 346 l 2
 102 369 60 427 60 518 c 0
 60 576 78 630 109 670 c 0
 145 715 199 737 270 737 c 0
 359 737 427 701 462 637 c 0
 480 602 487 572 492 508 c 1
399 903 m 1
 292 762 l 1
 237 762 l 1
 310 903 l 1
 399 903 l 1
EndSplineSet
Ligature: 0 0 'liga' S acutecomb
EndChar
StartChar: Scaron
Encoding: 295 352 189
Width: 547
Flags: W
HStem: -19 83<263 297> 654 83<270 282>
VStem: 60 77<516 542> 431 77<172 206>
DStem: 154 929 219 929 235 788 273 836 327 929 393 929 273 836 312 788
Fore
492 508 m 1
 417 508 l 1
 414 548 408 569 394 593 c 0
 369 632 325 654 270 654 c 0
 186 654 137 608 137 530 c 0
 137 479 159 450 206 437 c 2
 374 390 l 2
 462 366 508 299 508 197 c 0
 508 63 420 -19 276 -19 c 0
 186 -19 128 8 83 71 c 0
 52 114 41 155 40 232 c 1
 115 232 l 1
 116 185 122 161 138 134 c 0
 165 89 214 64 280 64 c 0
 375 64 431 109 431 188 c 0
 431 257 403 284 306 312 c 2
 185 346 l 2
 102 369 60 427 60 518 c 0
 60 576 78 630 109 670 c 0
 145 715 199 737 270 737 c 0
 359 737 427 701 462 637 c 0
 480 602 487 572 492 508 c 1
219 929 m 1
 273 836 l 1
 327 929 l 1
 393 929 l 1
 312 788 l 1
 235 788 l 1
 154 929 l 1
 219 929 l 1
EndSplineSet
Ligature: 0 0 'liga' S uni030C
EndChar
StartChar: Scedilla
Encoding: 296 350 190
Width: 547
Flags: W
HStem: -225 47<238 253> -96 160<247 280> 654 83<270 289>
VStem: 60 77<516 532> 287 62<-146 -128> 431 77<174 208>
DStem: 244 -17 281 -19 202 -86 255 -62
Fore
281 -19 m 1
 255 -62 l 1
 258 -61 l 1
 260 -61 l 2
 269 -59 274 -58 281 -58 c 0
 322 -58 349 -88 349 -133 c 0
 349 -187 310 -225 253 -225 c 0
 228 -225 206 -219 174 -203 c 1
 188 -163 l 1
 211 -175 224 -178 240 -178 c 0
 270 -178 287 -162 287 -136 c 0
 287 -113 270 -96 247 -96 c 0
 240 -96 232 -98 216 -105 c 1
 202 -86 l 1
 244 -17 l 1
 117 -9 35 91 40 232 c 1
 115 232 l 1
 116 185 122 161 138 134 c 0
 165 89 214 64 280 64 c 0
 375 64 431 109 431 188 c 0
 431 257 403 284 306 312 c 2
 185 346 l 2
 102 369 60 427 60 518 c 0
 60 576 78 630 109 670 c 0
 145 715 199 737 270 737 c 0
 359 737 427 701 462 637 c 0
 480 602 487 572 492 508 c 1
 417 508 l 1
 414 548 408 569 394 593 c 0
 369 632 325 654 270 654 c 0
 186 654 137 608 137 530 c 0
 137 479 159 450 206 437 c 2
 374 390 l 2
 462 366 508 299 508 197 c 0
 508 64 425 -15 281 -19 c 1
EndSplineSet
Ligature: 0 0 'liga' S uni0327
EndChar
StartChar: Tcaron
Encoding: 297 356 191
Width: 501
Flags: W
HStem: 0 21G<211 291> 631 87<11 211 11 490>
VStem: 211 80<0 631>
DStem: 131 929 196 929 212 788 250 836 304 929 370 929 250 836 289 788
Fore
11 631 m 1
 11 718 l 1
 490 718 l 1
 490 631 l 1
 291 631 l 1
 291 0 l 1
 211 0 l 1
 211 631 l 1
 11 631 l 1
196 929 m 1
 250 836 l 1
 304 929 l 1
 370 929 l 1
 289 788 l 1
 212 788 l 1
 131 929 l 1
 196 929 l 1
EndSplineSet
Ligature: 0 0 'liga' T uni030C
EndChar
StartChar: Udieresis
Encoding: 298 220 192
Width: 592
Flags: W
HStem: -19 87<288 306> 698 20G<65 145 448 528> 799 102<193 268 325 400>
VStem: 65 80<237 718> 193 75<799 901> 325 75<799 901> 448 80<236 718>
Fore
448 718 m 1
 528 718 l 1
 528 252 l 2
 528 87 436 -19 292 -19 c 0
 153 -19 65 81 65 239 c 2
 65 718 l 1
 145 718 l 1
 145 266 l 2
 145 139 199 68 295 68 c 0
 392 68 448 139 448 264 c 2
 448 718 l 1
268 901 m 1
 268 799 l 1
 193 799 l 1
 193 901 l 1
 268 901 l 1
400 901 m 1
 400 799 l 1
 325 799 l 1
 325 901 l 1
 400 901 l 1
EndSplineSet
KernsSLIF: 114 -6 0 0 46 -22 0 0 110 -1 0 0 109 -1 0 0 44 -24 0 0 65 -32 0 0
Ligature: 0 0 'liga' U uni0308
EndChar
StartChar: Uacute
Encoding: 299 218 193
Width: 592
Flags: W
HStem: -19 87<288 315> 698 20G<65 145 448 528>
VStem: 65 80<237 718> 448 80<236 718>
Fore
448 718 m 1
 528 718 l 1
 528 252 l 2
 528 87 436 -19 292 -19 c 0
 153 -19 65 81 65 239 c 2
 65 718 l 1
 145 718 l 1
 145 266 l 2
 145 139 199 68 295 68 c 0
 392 68 448 139 448 264 c 2
 448 718 l 1
422 929 m 1
 315 788 l 1
 260 788 l 1
 333 929 l 1
 422 929 l 1
EndSplineSet
KernsSLIF: 114 -6 0 0 46 -22 0 0 110 -1 0 0 109 -1 0 0 44 -24 0 0 65 -32 0 0
Ligature: 0 0 'liga' U acutecomb
EndChar
StartChar: Ugrave
Encoding: 300 217 194
Width: 592
Flags: W
HStem: -19 87<277 306> 698 20G<65 145 448 528>
VStem: 65 80<237 718> 448 80<236 718>
Fore
448 718 m 1
 528 718 l 1
 528 252 l 2
 528 87 436 -19 292 -19 c 0
 153 -19 65 81 65 239 c 2
 65 718 l 1
 145 718 l 1
 145 266 l 2
 145 139 199 68 295 68 c 0
 392 68 448 139 448 264 c 2
 448 718 l 1
279 788 m 1
 172 929 l 1
 261 929 l 1
 334 788 l 1
 279 788 l 1
EndSplineSet
KernsSLIF: 65 -32 0 0
Ligature: 0 0 'liga' U gravecomb
EndChar
StartChar: Ucircumflex
Encoding: 301 219 195
Width: 592
Flags: W
HStem: -19 87<288 306> 698 20G<65 145 448 528>
VStem: 65 80<237 718> 448 80<236 718>
DStem: 258 929 296 881 177 788 242 788 296 881 335 929 350 788 416 788
Fore
448 718 m 1
 528 718 l 1
 528 252 l 2
 528 87 436 -19 292 -19 c 0
 153 -19 65 81 65 239 c 2
 65 718 l 1
 145 718 l 1
 145 266 l 2
 145 139 199 68 295 68 c 0
 392 68 448 139 448 264 c 2
 448 718 l 1
296 881 m 1
 242 788 l 1
 177 788 l 1
 258 929 l 1
 335 929 l 1
 416 788 l 1
 350 788 l 1
 296 881 l 1
EndSplineSet
KernsSLIF: 65 -32 0 0
Ligature: 0 0 'liga' U uni0302
EndChar
StartChar: Uring
Encoding: 302 366 196
Width: 592
Flags: W
HStem: -19 87<288 306> 698 20G<65 145 448 528> 767 40<295 299> 911 40<296 298>
VStem: 65 80<237 718> 220 33<847.618 862> 338 33<847.618 862> 448 80<236 718>
Fore
448 718 m 1
 528 718 l 1
 528 252 l 2
 528 87 436 -19 292 -19 c 0
 153 -19 65 81 65 239 c 2
 65 718 l 1
 145 718 l 1
 145 266 l 2
 145 139 199 68 295 68 c 0
 392 68 448 139 448 264 c 2
 448 718 l 1
296 951 m 0
 339 951 371 911 371 859 c 0
 371 806 339 767 295 767 c 0
 252 767 220 806 220 859 c 0
 220 912 252 951 296 951 c 0
296 911 m 0
 272 911 253 888 253 859 c 0
 253 830 272 807 295 807 c 0
 319 807 338 830 338 859 c 0
 338 887 319 911 296 911 c 0
EndSplineSet
Ligature: 0 0 'liga' U uni030A
EndChar
StartChar: Uhungarumlaut
Encoding: 303 368 197
Width: 592
Flags: W
HStem: -19 87<288 306> 698 20G<65 145 448 528>
VStem: 65 80<237 718> 448 80<236 718>
Fore
448 718 m 1
 528 718 l 1
 528 252 l 2
 528 87 436 -19 292 -19 c 0
 153 -19 65 81 65 239 c 2
 65 718 l 1
 145 718 l 1
 145 266 l 2
 145 139 199 68 295 68 c 0
 392 68 448 139 448 264 c 2
 448 718 l 1
347 929 m 1
 240 788 l 1
 185 788 l 1
 258 929 l 1
 347 929 l 1
495 929 m 1
 388 788 l 1
 333 788 l 1
 406 929 l 1
 495 929 l 1
EndSplineSet
Ligature: 0 0 'liga' U uni030B
EndChar
StartChar: Yacute
Encoding: 304 221 198
Width: 547
Flags: W
HStem: 0 21G<233 313> 698 20G<11 104 442 535>
VStem: 233 80<0 289>
DStem: 11 718 104 718 233 289 273 373
Fore
313 289 m 1
 313 0 l 1
 233 0 l 1
 233 289 l 1
 11 718 l 1
 104 718 l 1
 273 373 l 1
 442 718 l 1
 535 718 l 1
 313 289 l 1
398 929 m 1
 291 788 l 1
 236 788 l 1
 309 929 l 1
 398 929 l 1
EndSplineSet
Ligature: 0 0 'liga' Y acutecomb
EndChar
StartChar: Zacute
Encoding: 305 377 199
Width: 501
Flags: W
HStem: 0 87<120 482> 631 87<46 380>
DStem: 380 631 482 633 19 82 120 87
Fore
482 87 m 1
 482 0 l 1
 19 0 l 1
 19 82 l 1
 380 631 l 1
 46 631 l 1
 46 718 l 1
 482 718 l 1
 482 633 l 1
 120 87 l 1
 482 87 l 1
376 903 m 1
 269 762 l 1
 214 762 l 1
 287 903 l 1
 376 903 l 1
EndSplineSet
Ligature: 0 0 'liga' Z acutecomb
EndChar
StartChar: Zcaron
Encoding: 306 381 200
Width: 501
Flags: W
HStem: 0 87<120 482> 631 87<46 380>
DStem: 151 929 216 929 232 788 270 836 324 929 390 929 270 836 309 788 380 631 482 633 19 82 120 87
Fore
482 87 m 1
 482 0 l 1
 19 0 l 1
 19 82 l 1
 380 631 l 1
 46 631 l 1
 46 718 l 1
 482 718 l 1
 482 633 l 1
 120 87 l 1
 482 87 l 1
216 929 m 1
 270 836 l 1
 324 929 l 1
 390 929 l 1
 309 788 l 1
 232 788 l 1
 151 929 l 1
 216 929 l 1
EndSplineSet
Ligature: 0 0 'liga' Z uni030C
EndChar
StartChar: Zdotaccent
Encoding: 307 379 201
Width: 501
Flags: W
HStem: 0 87<120 482> 631 87<46 380>
VStem: 233 75<799 901>
DStem: 380 631 482 633 19 82 120 87
Fore
482 87 m 1
 482 0 l 1
 19 0 l 1
 19 82 l 1
 380 631 l 1
 46 631 l 1
 46 718 l 1
 482 718 l 1
 482 633 l 1
 120 87 l 1
 482 87 l 1
308 901 m 1
 308 799 l 1
 233 799 l 1
 233 901 l 1
 308 901 l 1
EndSplineSet
Ligature: 0 0 'liga' Z uni0307
EndChar
StartChar: Amacron
Encoding: 308 256 202
Width: 547
Flags: W
HStem: 0 21G<11 93 449 536> 209 87<179 391> 698 20G<232 323> 822 57<145 402>
DStem: 232 718 274 614 11 0 179 296 232 718 155 209 11 0 93 0
Fore
391 209 m 1
 155 209 l 1
 93 0 l 1
 11 0 l 1
 232 718 l 1
 323 718 l 1
 536 0 l 1
 449 0 l 1
 391 209 l 1
179 296 m 1
 362 296 l 1
 274 614 l 1
 179 296 l 1
402 879 m 1
 402 822 l 1
 145 822 l 1
 145 879 l 1
 402 879 l 1
EndSplineSet
Ligature: 0 0 'liga' A uni0304
EndChar
StartChar: Tcommaaccent
Encoding: 309 354 203
Width: 501
Flags: W
HStem: -282 36<210 225.5 210.063 221.452> 0 21G<211 291> 631 87<11 211 11 490>
VStem: 209 83<-157 -60 0 631>
Fore
11 631 m 1
 11 718 l 1
 490 718 l 1
 490 631 l 1
 291 631 l 1
 291 0 l 1
 211 0 l 1
 211 631 l 1
 11 631 l 1
209 -60 m 1
 292 -60 l 1
 292 -153 l 2
 292 -239 265 -282 210 -282 c 1
 210 -246 l 1
 241 -248 257 -217 255 -157 c 1
 209 -157 l 1
 209 -60 l 1
EndSplineSet
Ligature: 0 0 'liga' T uni0327
EndChar
StartChar: Ydieresis
Encoding: 310 376 204
Width: 547
Flags: W
HStem: 0 21G<233 313> 698 20G<11 104 442 535> 799 102<169 244 301 376>
VStem: 169 75<799 901> 233 80<0 289> 301 75<799 901>
DStem: 11 718 104 718 233 289 273 373
Fore
313 289 m 1xe8
 313 0 l 1
 233 0 l 1
 233 289 l 1
 11 718 l 1
 104 718 l 1
 273 373 l 1
 442 718 l 1
 535 718 l 1
 313 289 l 1xe8
244 901 m 1xf0
 244 799 l 1
 169 799 l 1
 169 901 l 1
 244 901 l 1xf0
376 901 m 1xe4
 376 799 l 1
 301 799 l 1
 301 901 l 1
 376 901 l 1xe4
EndSplineSet
Ligature: 0 0 'liga' Y uni0308
EndChar
StartChar: Emacron
Encoding: 311 274 205
Width: 547
Flags: W
HStem: 0 87<151 505> 325 87<151 472> 631 87<71 499> 822 57<155 412>
VStem: 71 80<0 325 0 631>
Fore
505 87 m 1
 505 0 l 1
 71 0 l 1
 71 718 l 1
 499 718 l 1
 499 631 l 1
 151 631 l 1
 151 412 l 1
 472 412 l 1
 472 325 l 1
 151 325 l 1
 151 87 l 1
 505 87 l 1
412 879 m 1
 412 822 l 1
 155 822 l 1
 155 879 l 1
 412 879 l 1
EndSplineSet
Ligature: 0 0 'liga' E uni0304
EndChar
StartChar: Imacron
Encoding: 312 298 206
Width: 228
Flags: W
HStem: 0 21G<75 154> 698 20G<75 154> 822 57<-15 242>
VStem: 75 79<0 718>
Fore
154 718 m 1
 154 0 l 1
 75 0 l 1
 75 718 l 1
 154 718 l 1
242 879 m 1
 242 822 l 1
 -15 822 l 1
 -15 879 l 1
 242 879 l 1
EndSplineSet
Ligature: 0 0 'liga' I uni0304
EndChar
StartChar: Iogonek
Encoding: 313 302 207
Width: 228
Flags: W
HStem: -225 47<105 121> -20 20G<75 99> 698 20G<75 154>
VStem: 10 62<-135 -122> 75 79<-1 718>
Fore
154 718 m 1
 154 -4 l 1
 89 -49 72 -74 72 -124 c 0
 72 -161 87 -178 119 -178 c 0
 135 -178 146 -175 171 -163 c 1
 185 -203 l 1
 155 -218 130 -225 105 -225 c 0
 49 -225 10 -187 10 -133 c 0
 10 -95 24 -57 49 -31 c 0
 62 -17 70 -13 99 0 c 1
 75 0 l 1
 75 718 l 1
 154 718 l 1
EndSplineSet
Ligature: 0 0 'liga' I uni0328
EndChar
StartChar: Kcommaaccent
Encoding: 314 310 208
Width: 547
Flags: W
HStem: -282 36<233 248.5 233.063 244.452> 0 21G<62 142 441 544> 698 20G<62 142 428 538>
VStem: 62 80<0 252 0 718> 232 83<-157 -60>
DStem: 235 360 292 428 441 0 544 0 428 718 538 718 142 370 292 428
Fore
142 252 m 1
 142 0 l 1
 62 0 l 1
 62 718 l 1
 142 718 l 1
 142 370 l 1
 428 718 l 1
 538 718 l 1
 292 428 l 1
 544 0 l 1
 441 0 l 1
 235 360 l 1
 142 252 l 1
232 -60 m 1
 315 -60 l 1
 315 -153 l 2
 315 -239 288 -282 233 -282 c 1
 233 -246 l 1
 264 -248 280 -217 278 -157 c 1
 232 -157 l 1
 232 -60 l 1
EndSplineSet
Ligature: 0 0 'liga' K uni0327
EndChar
StartChar: Lcommaaccent
Encoding: 315 315 209
Width: 456
Flags: W
HStem: -282 36<188 203.5 188.063 199.452> 0 87<141 440> 698 20G<62 142>
VStem: 62 80<0 718> 187 83<-157 -60>
Fore
142 718 m 1
 142 87 l 1
 440 87 l 1
 440 0 l 1
 62 0 l 1
 62 718 l 1
 142 718 l 1
187 -60 m 1
 270 -60 l 1
 270 -153 l 2
 270 -239 243 -282 188 -282 c 1
 188 -246 l 1
 219 -248 235 -217 233 -157 c 1
 187 -157 l 1
 187 -60 l 1
EndSplineSet
Ligature: 0 0 'liga' L uni0327
EndChar
StartChar: Ncommaaccent
Encoding: 316 325 210
Width: 592
Flags: W
HStem: -282 36<256 271.5> 0 21G<62 139 441 530> 698 20G<62 156 453 530>
VStem: 62 77<0 583> 255 83<-157 -60> 453 77<135 718>
DStem: 139 583 156 718 441 0 453 135
Fore
453 135 m 1
 453 718 l 1
 530 718 l 1
 530 0 l 1
 441 0 l 1
 139 583 l 1
 139 0 l 1
 62 0 l 1
 62 718 l 1
 156 718 l 1
 453 135 l 1
255 -60 m 1
 338 -60 l 1
 338 -153 l 2
 338 -239 311 -282 256 -282 c 1
 256 -246 l 1
 287 -248 303 -217 301 -157 c 1
 255 -157 l 1
 255 -60 l 1
EndSplineSet
Ligature: 0 0 'liga' N uni0327
EndChar
StartChar: Omacron
Encoding: 317 332 211
Width: 638
Flags: W
HStem: -19 87<319 337> 650 87<303 337> 822 57<191 448>
VStem: 32 82<358 382> 524 82<332 382>
Fore
323 737 m 0
 427 737 508 682 559 580 c 0
 589 518 606 437 606 358 c 0
 606 246 574 144 517 72 c 0
 470 13 400 -19 319 -19 c 0
 238 -19 168 13 121 72 c 0
 64 144 32 246 32 358 c 0
 32 472 64 576 121 646 c 0
 170 706 238 737 323 737 c 0
322 650 m 0
 195 650 114 536 114 358 c 0
 114 184 196 68 319 68 c 0
 442 68 524 184 524 359 c 0
 524 532 442 650 322 650 c 0
448 879 m 1
 448 822 l 1
 191 822 l 1
 191 879 l 1
 448 879 l 1
EndSplineSet
Ligature: 0 0 'liga' O uni0304
EndChar
StartChar: Rcommaaccent
Encoding: 318 342 212
Width: 592
Flags: W
HStem: -282 36<256 271.5> 0 21G<72 152 463 561> 308 83<152 352> 635 83<72 361>
VStem: 72 80<0 308 0 635> 255 83<-157 -60> 456 82<501 535>
Fore
152 308 m 1
 152 0 l 1
 72 0 l 1
 72 718 l 1
 345 718 l 2
 470 718 538 650 538 524 c 0
 538 443 517 399 456 353 c 1
 507 329 522 300 527 218 c 1
 531 88 l 1
 533 44 537 33 561 16 c 1
 561 0 l 1
 463 0 l 1
 456 29 450 104 450 180 c 0
 448 272 419 308 345 308 c 2
 152 308 l 1
152 635 m 1
 152 391 l 1
 336 391 l 2
 418 391 456 431 456 516 c 0
 456 596 421 635 350 635 c 2
 152 635 l 1
255 -60 m 1
 338 -60 l 1
 338 -153 l 2
 338 -239 311 -282 256 -282 c 1
 256 -246 l 1
 287 -248 303 -217 301 -157 c 1
 255 -157 l 1
 255 -60 l 1
EndSplineSet
Ligature: 0 0 'liga' R uni0327
EndChar
StartChar: Gcommaaccent
Encoding: 319 290 213
Width: 638
Flags: W
HStem: -282 36<279 294.5> -19 83<306 328> 301 83<319 502> 650 87<306 328>
VStem: 39 82<325 386> 278 83<-157 -60> 502 75<277 384>
Fore
319 301 m 1
 319 384 l 1
 577 384 l 1
 577 0 l 1
 525 0 l 1
 507 93 l 1
 479 52 462 35 431 15 c 0
 393 -8 353 -19 308 -19 c 0
 235 -19 179 7 132 62 c 0
 68 138 39 227 39 350 c 0
 39 581 151 737 317 737 c 0
 404 737 484 692 529 618 c 0
 550 583 559 555 567 500 c 1
 490 500 l 1
 476 558 461 584 430 611 c 0
 402 636 360 650 318 650 c 0
 197 650 121 535 121 353 c 0
 121 165 190 64 320 64 c 0
 375 64 420 86 455 129 c 0
 488 171 501 215 502 301 c 1
 319 301 l 1
278 -60 m 1
 361 -60 l 1
 361 -153 l 2
 361 -239 334 -282 279 -282 c 1
 279 -246 l 1
 310 -248 326 -217 324 -157 c 1
 278 -157 l 1
 278 -60 l 1
EndSplineSet
Ligature: 0 0 'liga' G uni0327
EndChar
StartChar: Umacron
Encoding: 320 362 214
Width: 592
Flags: W
HStem: -19 87<288 306> 698 20G<65 145 448 528> 822 57<168 425>
VStem: 65 80<237 718> 448 80<236 718>
Fore
448 718 m 1
 528 718 l 1
 528 252 l 2
 528 87 436 -19 292 -19 c 0
 153 -19 65 81 65 239 c 2
 65 718 l 1
 145 718 l 1
 145 266 l 2
 145 139 199 68 295 68 c 0
 392 68 448 139 448 264 c 2
 448 718 l 1
425 879 m 1
 425 822 l 1
 168 822 l 1
 168 879 l 1
 425 879 l 1
EndSplineSet
Ligature: 0 0 'liga' U uni0304
EndChar
StartChar: Uogonek
Encoding: 321 370 215
Width: 592
Flags: W
HStem: -225 47<388 404> -19 87<288 306> 698 20G<65 145 448 528>
VStem: 65 80<237 718> 293 62<-135 -122> 448 80<237 718>
Fore
528 718 m 1
 528 252 l 2
 528 195 514 132 492 95 c 0
 481 76 456 43 407 -17 c 0
 364 -69 355 -87 355 -124 c 0
 355 -161 370 -178 402 -178 c 0
 418 -178 429 -175 454 -163 c 1
 468 -203 l 1
 437 -218 413 -225 388 -225 c 0
 332 -225 293 -187 293 -133 c 0
 293 -81 319 -33 358 -11 c 1
 335 -17 316 -19 293 -19 c 0
 153 -19 65 81 65 239 c 2
 65 718 l 1
 145 718 l 1
 145 266 l 2
 145 139 199 68 295 68 c 0
 392 68 448 139 448 264 c 2
 448 718 l 1
 528 718 l 1
EndSplineSet
Ligature: 0 0 'liga' U uni0328
EndChar
StartChar: adieresis
Encoding: 322 228 216
Width: 456
Flags: W
HStem: -15 73<167 184> 465 73<199 225> 604 102<125 200 257 332>
VStem: 30 75<128 148> 125 75<604 706> 257 75<604 706> 315 72<176 394>
Fore
117 364 m 1xfa
 51 364 l 1
 54 416 60 441 77 469 c 0
 105 514 156 538 223 538 c 0
 325 538 387 483 387 392 c 2
 387 91 l 2
 387 71 395 60 410 60 c 0
 416 60 420 61 435 64 c 1
 435 0 l 1
 432 -1 431 -1 426 -3 c 0
 412 -8 404 -10 393 -10 c 0
 344 -10 324 13 319 70 c 1
 272 10 228 -15 167 -15 c 0
 84 -15 30 46 30 138 c 0
 30 229 77 287 160 300 c 2
 279 318 l 2
 306 322 317 340 317 378 c 0
 317 435 283 465 218 465 c 0
 155 465 127 437 117 364 c 1xfa
315 181 m 2
 315 267 l 1
 300 253 279 248 197 234 c 0
 131 223 105 198 105 146 c 0
 105 90 133 58 182 58 c 0
 254 58 315 115 315 181 c 2
200 706 m 1
 200 604 l 1
 125 604 l 1
 125 706 l 1
 200 706 l 1
332 706 m 1xfc
 332 604 l 1
 257 604 l 1
 257 706 l 1
 332 706 l 1xfc
EndSplineSet
KernsSLIF: 121 -20 0 0 119 -14 0 0 118 -19 0 0
Ligature: 0 0 'liga' a uni0308
EndChar
StartChar: aacute
Encoding: 323 225 217
Width: 456
Flags: W
HStem: -15 73<167 184> 465 73<205 225> 714 20G<265 354>
VStem: 30 75<128 148> 315 72<176 394>
Fore
117 364 m 1
 51 364 l 1
 54 416 60 441 77 469 c 0
 105 514 156 538 223 538 c 0
 325 538 387 483 387 392 c 2
 387 91 l 2
 387 71 395 60 410 60 c 0
 416 60 420 61 435 64 c 1
 435 0 l 1
 432 -1 431 -1 426 -3 c 0
 412 -8 404 -10 393 -10 c 0
 344 -10 324 13 319 70 c 1
 272 10 228 -15 167 -15 c 0
 84 -15 30 46 30 138 c 0
 30 229 77 287 160 300 c 2
 279 318 l 2
 306 322 317 340 317 378 c 0
 317 435 283 465 218 465 c 0
 155 465 127 437 117 364 c 1
315 181 m 2
 315 267 l 1
 300 253 279 248 197 234 c 0
 131 223 105 198 105 146 c 0
 105 90 133 58 182 58 c 0
 254 58 315 115 315 181 c 2
354 734 m 1
 247 593 l 1
 192 593 l 1
 265 734 l 1
 354 734 l 1
EndSplineSet
KernsSLIF: 121 -20 0 0 119 -14 0 0 118 -19 0 0
Ligature: 0 0 'liga' a acutecomb
EndChar
StartChar: agrave
Encoding: 324 224 218
Width: 456
Flags: W
HStem: -15 73<167 184> 465 73<205 225> 714 20G<104 193>
VStem: 30 75<128 148> 315 72<176 394>
Fore
117 364 m 1
 51 364 l 1
 54 416 60 441 77 469 c 0
 105 514 156 538 223 538 c 0
 325 538 387 483 387 392 c 2
 387 91 l 2
 387 71 395 60 410 60 c 0
 416 60 420 61 435 64 c 1
 435 0 l 1
 432 -1 431 -1 426 -3 c 0
 412 -8 404 -10 393 -10 c 0
 344 -10 324 13 319 70 c 1
 272 10 228 -15 167 -15 c 0
 84 -15 30 46 30 138 c 0
 30 229 77 287 160 300 c 2
 279 318 l 2
 306 322 317 340 317 378 c 0
 317 435 283 465 218 465 c 0
 155 465 127 437 117 364 c 1
315 181 m 2
 315 267 l 1
 300 253 279 248 197 234 c 0
 131 223 105 198 105 146 c 0
 105 90 133 58 182 58 c 0
 254 58 315 115 315 181 c 2
211 593 m 1
 104 734 l 1
 193 734 l 1
 266 593 l 1
 211 593 l 1
EndSplineSet
KernsSLIF: 121 -20 0 0 119 -14 0 0 118 -19 0 0
Ligature: 0 0 'liga' a gravecomb
EndChar
StartChar: acircumflex
Encoding: 325 226 219
Width: 456
Flags: W
HStem: -15 73<167 184> 465 73<205 231> 714 20G<191 268>
VStem: 30 75<128 148> 315 72<176 394>
DStem: 191 734 229 686 110 593 175 593 229 686 268 734 283 593 349 593
Fore
117 364 m 1
 51 364 l 1
 54 416 60 441 77 469 c 0
 105 514 156 538 223 538 c 0
 325 538 387 483 387 392 c 2
 387 91 l 2
 387 71 395 60 410 60 c 0
 416 60 420 61 435 64 c 1
 435 0 l 1
 432 -1 431 -1 426 -3 c 0
 412 -8 404 -10 393 -10 c 0
 344 -10 324 13 319 70 c 1
 272 10 228 -15 167 -15 c 0
 84 -15 30 46 30 138 c 0
 30 229 77 287 160 300 c 2
 279 318 l 2
 306 322 317 340 317 378 c 0
 317 435 283 465 218 465 c 0
 155 465 127 437 117 364 c 1
315 181 m 2
 315 267 l 1
 300 253 279 248 197 234 c 0
 131 223 105 198 105 146 c 0
 105 90 133 58 182 58 c 0
 254 58 315 115 315 181 c 2
229 686 m 1
 175 593 l 1
 110 593 l 1
 191 734 l 1
 268 734 l 1
 349 593 l 1
 283 593 l 1
 229 686 l 1
EndSplineSet
Ligature: 0 0 'liga' a uni0302
EndChar
StartChar: abreve
Encoding: 326 259 220
Width: 456
Flags: W
HStem: -15 73<167 184> 465 73<205 233> 595 57<216 239> 711 20G<103 143 316 355>
VStem: 30 75<128 148> 315 72<176 394>
Fore
117 364 m 1
 51 364 l 1
 54 416 60 441 77 469 c 0
 105 514 156 538 223 538 c 0
 325 538 387 483 387 392 c 2
 387 91 l 2
 387 71 395 60 410 60 c 0
 416 60 420 61 435 64 c 1
 435 0 l 1
 432 -1 431 -1 426 -3 c 0
 412 -8 404 -10 393 -10 c 0
 344 -10 324 13 319 70 c 1
 272 10 228 -15 167 -15 c 0
 84 -15 30 46 30 138 c 0
 30 229 77 287 160 300 c 2
 279 318 l 2
 306 322 317 340 317 378 c 0
 317 435 283 465 218 465 c 0
 155 465 127 437 117 364 c 1
315 181 m 2
 315 267 l 1
 300 253 279 248 197 234 c 0
 131 223 105 198 105 146 c 0
 105 90 133 58 182 58 c 0
 254 58 315 115 315 181 c 2
316 731 m 1
 355 731 l 1
 343 637 304 595 226 595 c 0
 151 595 113 637 103 731 c 1
 143 731 l 1
 145 724 l 2
 158 674 184 652 231 652 c 0
 280 652 301 672 316 731 c 1
EndSplineSet
Ligature: 0 0 'liga' a uni0306
EndChar
StartChar: atilde
Encoding: 327 227 221
Width: 456
Flags: W
HStem: -15 73<167 184> 465 73<205 232> 613 63<275 287> 650 63<156 168>
VStem: 30 75<128 148> 315 72<176 394>
Fore
117 364 m 1xcc
 51 364 l 1
 54 416 60 441 77 469 c 0
 105 514 156 538 223 538 c 0
 325 538 387 483 387 392 c 2
 387 91 l 2
 387 71 395 60 410 60 c 0
 416 60 420 61 435 64 c 1
 435 0 l 1
 432 -1 431 -1 426 -3 c 0
 412 -8 404 -10 393 -10 c 0
 344 -10 324 13 319 70 c 1
 272 10 228 -15 167 -15 c 0
 84 -15 30 46 30 138 c 0
 30 229 77 287 160 300 c 2
 279 318 l 2
 306 322 317 340 317 378 c 0
 317 435 283 465 218 465 c 0
 155 465 127 437 117 364 c 1xcc
315 181 m 2
 315 267 l 1
 300 253 279 248 197 234 c 0
 131 223 105 198 105 146 c 0
 105 90 133 58 182 58 c 0
 254 58 315 115 315 181 c 2
319 722 m 1
 360 722 l 1
 350 650 322 613 277 613 c 0xec
 265 613 252 617 230 626 c 2
 209 635 l 2
 184 646 169 650 158 650 c 0
 139 650 129 638 120 606 c 1
 81 606 l 1
 91 680 118 713 166 713 c 0xdc
 183 713 203 708 222 698 c 2
 240 689 l 2
 256 681 271 676 281 676 c 0xec
 302 676 313 689 319 722 c 1
EndSplineSet
Ligature: 0 0 'liga' a tildecomb
EndChar
StartChar: aring
Encoding: 328 229 222
Width: 456
Flags: W
HStem: -15 73<167 187> 465 73<205 233> 585 40<229 233> 729 40<230 239>
VStem: 30 75<128 148> 154 33<677 679> 272 33<677 679> 315 72<176 394>
Fore
117 364 m 1
 51 364 l 1
 54 416 60 441 77 469 c 0
 105 514 156 538 223 538 c 0
 325 538 387 483 387 392 c 2
 387 91 l 2
 387 71 395 60 410 60 c 0
 416 60 420 61 435 64 c 1
 435 0 l 1
 432 -1 431 -1 426 -3 c 0
 412 -8 404 -10 393 -10 c 0
 344 -10 324 13 319 70 c 1
 272 10 228 -15 167 -15 c 0
 84 -15 30 46 30 138 c 0
 30 229 77 287 160 300 c 2
 279 318 l 2
 306 322 317 340 317 378 c 0
 317 435 283 465 218 465 c 0
 155 465 127 437 117 364 c 1
315 181 m 2
 315 267 l 1
 300 253 279 248 197 234 c 0
 131 223 105 198 105 146 c 0
 105 90 133 58 182 58 c 0
 254 58 315 115 315 181 c 2
230 769 m 0
 273 769 305 729 305 677 c 0
 305 624 273 585 229 585 c 0
 186 585 154 624 154 677 c 0
 154 730 186 769 230 769 c 0
230 729 m 0
 206 729 187 706 187 677 c 0
 187 648 206 625 229 625 c 0
 253 625 272 648 272 677 c 0
 272 705 253 729 230 729 c 0
EndSplineSet
KernsSLIF: 121 -20 0 0 119 -14 0 0 118 -19 0 0
Ligature: 0 0 'liga' a uni030A
EndChar
StartChar: aogonek
Encoding: 329 261 223
Width: 456
Flags: W
HStem: -225 47<386 402> -15 73<167 184> 465 73<205 225>
VStem: 30 75<136 160> 291 62<-135 -122> 315 72<174 394>
Fore
435 64 m 1xf4
 435 -4 l 1
 370 -49 353 -74 353 -124 c 0
 353 -161 368 -178 400 -178 c 0
 416 -178 427 -175 452 -163 c 1
 466 -203 l 1
 436 -218 411 -225 386 -225 c 0
 330 -225 291 -187 291 -133 c 0xf8
 291 -76 319 -28 366 -6 c 1
 335 3 322 25 319 70 c 1
 272 10 228 -15 167 -15 c 0
 84 -15 30 46 30 138 c 0
 30 229 77 287 160 300 c 2
 279 318 l 2
 306 322 317 340 317 378 c 0
 317 435 283 465 218 465 c 0
 155 465 127 437 117 364 c 1
 51 364 l 1
 54 416 60 441 77 469 c 0
 105 514 156 538 223 538 c 0
 325 538 387 483 387 392 c 2
 387 91 l 2
 387 71 395 60 410 60 c 0
 416 60 420 61 435 64 c 1xf4
315 181 m 2xf4
 315 267 l 1
 300 253 279 248 197 234 c 0
 131 223 105 198 105 146 c 0
 105 90 133 58 182 58 c 0
 254 58 315 115 315 181 c 2xf4
EndSplineSet
Ligature: 0 0 'liga' a uni0328
EndChar
StartChar: cacute
Encoding: 330 263 224
Width: 410
Flags: W
HStem: -15 77<201.403 230> 460 78<214 234> 714 20G<262 351>
VStem: 25 77<240 274>
Fore
391 347 m 1
 321 347 l 1
 309 426 278 460 221 460 c 0
 146 460 102 386 102 259 c 0
 102 133 143 62 216 62 c 0
 271 62 306 103 321 185 c 1
 391 185 l 1
 374 52 315 -15 217 -15 c 0
 100 -15 25 89 25 252 c 0
 25 427 104 538 228 538 c 0
 324 538 378 475 391 347 c 1
351 734 m 1
 244 593 l 1
 189 593 l 1
 262 734 l 1
 351 734 l 1
EndSplineSet
Ligature: 0 0 'liga' c acutecomb
EndChar
StartChar: ccaron
Encoding: 331 269 225
Width: 410
Flags: W
HStem: -15 77<201.403 231> 460 78<214 234> 714 20G<106 171 279 345>
VStem: 25 77<240 274>
DStem: 106 734 171 734 187 593 225 641 279 734 345 734 225 641 264 593
Fore
391 347 m 1
 321 347 l 1
 309 426 278 460 221 460 c 0
 146 460 102 386 102 259 c 0
 102 133 143 62 216 62 c 0
 271 62 306 103 321 185 c 1
 391 185 l 1
 374 52 315 -15 217 -15 c 0
 100 -15 25 89 25 252 c 0
 25 427 104 538 228 538 c 0
 324 538 378 475 391 347 c 1
171 734 m 1
 225 641 l 1
 279 734 l 1
 345 734 l 1
 264 593 l 1
 187 593 l 1
 106 734 l 1
 171 734 l 1
EndSplineSet
Ligature: 0 0 'liga' c uni030C
EndChar
StartChar: ccedilla
Encoding: 332 231 226
Width: 410
Flags: W
HStem: -225 47<168 185> -96 38<179 213> -15 76<216 230.369> 460 78<211 234>
VStem: 25 77<238 272> 219 62<-146 -128>
DStem: 179 -11 216 -15 134 -86 187 -62
Fore
216 -15 m 1
 187 -62 l 1
 199 -59 206 -58 213 -58 c 0
 254 -58 281 -88 281 -133 c 0
 281 -187 242 -225 185 -225 c 0
 160 -225 138 -219 106 -203 c 1
 120 -163 l 1
 144 -175 156 -178 172 -178 c 0
 202 -178 219 -162 219 -136 c 0
 219 -113 202 -96 179 -96 c 0
 173 -96 164 -98 148 -105 c 1
 134 -86 l 1
 179 -11 l 1
 83 9 25 108 25 252 c 0
 25 427 104 538 228 538 c 0
 324 538 378 475 391 347 c 1
 321 347 l 1
 309 426 278 460 221 460 c 0
 146 460 102 386 102 259 c 0
 102 132 143 61 216 61 c 0
 271 61 306 102 321 185 c 1
 391 185 l 1
 378 58 313 -16 216 -15 c 1
EndSplineSet
Ligature: 0 0 'liga' c uni0327
EndChar
StartChar: dcaron
Encoding: 333 271 227
Width: 496
Flags: W
HStem: -15 77<204 224> 460 78<204 223> 496 36<434 449.5> 698 20G<337 409 433 516>
VStem: 29 75<240 290> 336 73<224 718> 433 83<621 718>
Fore
409 718 m 1xde
 409 0 l 1
 341 0 l 1
 341 75 l 1
 310 10 275 -15 217 -15 c 0
 103 -15 29 99 29 274 c 0
 29 432 100 538 206 538 c 0
 265 538 303 511 337 444 c 1
 337 718 l 1
 409 718 l 1xde
221 460 m 0
 143 460 104 397 104 269 c 0
 104 138 146 62 218 62 c 0
 249 62 278 77 298 102 c 0
 324 135 336 180 336 248 c 0
 336 385 295 460 221 460 c 0
433 718 m 1
 516 718 l 1
 516 625 l 2
 516 539 489 496 434 496 c 1
 434 532 l 1xbe
 465 530 481 561 479 621 c 1
 433 621 l 1
 433 718 l 1
EndSplineSet
Ligature: 0 0 'liga' d uni030C
EndChar
StartChar: edieresis
Encoding: 334 235 228
Width: 456
Flags: W
HStem: -15 77<224 242> 233 70<110 423> 460 78<224 242> 604 102<125 200 257 332>
VStem: 125 75<604 706> 257 75<604 706>
Fore
345 164 m 1
 417 164 l 1
 398 51 329 -15 230 -15 c 0
 108 -15 33 87 33 252 c 0
 33 427 112 538 236 538 c 0
 305 538 353 506 386 437 c 0
 411 385 420 336 423 233 c 1
 110 233 l 1
 112 174 118 146 135 117 c 0
 156 81 190 62 232 62 c 0
 290 62 338 105 345 164 c 1
110 303 m 1
 348 303 l 1
 344 357 337 383 321 410 c 0
 301 442 270 460 233 460 c 0
 164 460 114 397 110 303 c 1
200 706 m 1
 200 604 l 1
 125 604 l 1
 125 706 l 1
 200 706 l 1
332 706 m 1
 332 604 l 1
 257 604 l 1
 257 706 l 1
 332 706 l 1
EndSplineSet
Ligature: 0 0 'liga' e uni0308
EndChar
StartChar: eacute
Encoding: 335 233 229
Width: 456
Flags: W
HStem: -15 77<224 247> 233 70<110 423> 460 78<224 247> 714 20G<265 354>
Fore
345 164 m 1
 417 164 l 1
 398 51 329 -15 230 -15 c 0
 108 -15 33 87 33 252 c 0
 33 427 112 538 236 538 c 0
 305 538 353 506 386 437 c 0
 411 385 420 336 423 233 c 1
 110 233 l 1
 112 174 118 146 135 117 c 0
 156 81 190 62 232 62 c 0
 290 62 338 105 345 164 c 1
110 303 m 1
 348 303 l 1
 344 357 337 383 321 410 c 0
 301 442 270 460 233 460 c 0
 164 460 114 397 110 303 c 1
354 734 m 1
 247 593 l 1
 192 593 l 1
 265 734 l 1
 354 734 l 1
EndSplineSet
KernsSLIF: 121 -18 0 0 119 -11 0 0 118 -16 0 0
Ligature: 0 0 'liga' e acutecomb
EndChar
StartChar: egrave
Encoding: 336 232 230
Width: 456
Flags: W
HStem: -15 77<224 242> 233 70<110 423> 460 78<224 242> 714 20G<103 192>
Fore
345 164 m 1
 417 164 l 1
 398 51 329 -15 230 -15 c 0
 108 -15 33 87 33 252 c 0
 33 427 112 538 236 538 c 0
 305 538 353 506 386 437 c 0
 411 385 420 336 423 233 c 1
 110 233 l 1
 112 174 118 146 135 117 c 0
 156 81 190 62 232 62 c 0
 290 62 338 105 345 164 c 1
110 303 m 1
 348 303 l 1
 344 357 337 383 321 410 c 0
 301 442 270 460 233 460 c 0
 164 460 114 397 110 303 c 1
210 593 m 1
 103 734 l 1
 192 734 l 1
 265 593 l 1
 210 593 l 1
EndSplineSet
Ligature: 0 0 'liga' e gravecomb
EndChar
StartChar: ecircumflex
Encoding: 337 234 231
Width: 456
Flags: W
HStem: -15 77<224 242> 233 70<110 423> 460 78<224 242> 714 20G<190 267>
DStem: 190 734 228 686 109 593 174 593 228 686 267 734 282 593 348 593
Fore
345 164 m 1
 417 164 l 1
 398 51 329 -15 230 -15 c 0
 108 -15 33 87 33 252 c 0
 33 427 112 538 236 538 c 0
 305 538 353 506 386 437 c 0
 411 385 420 336 423 233 c 1
 110 233 l 1
 112 174 118 146 135 117 c 0
 156 81 190 62 232 62 c 0
 290 62 338 105 345 164 c 1
110 303 m 1
 348 303 l 1
 344 357 337 383 321 410 c 0
 301 442 270 460 233 460 c 0
 164 460 114 397 110 303 c 1
228 686 m 1
 174 593 l 1
 109 593 l 1
 190 734 l 1
 267 734 l 1
 348 593 l 1
 282 593 l 1
 228 686 l 1
EndSplineSet
KernsSLIF: 121 -18 0 0 119 -11 0 0 118 -16 0 0
Ligature: 0 0 'liga' e uni0302
EndChar
StartChar: ecaron
Encoding: 338 283 232
Width: 456
Flags: W
HStem: -15 77<224 242> 233 70<110 423> 460 78<224 242> 714 20G<109 174 282 348>
DStem: 109 734 174 734 190 593 228 641 282 734 348 734 228 641 267 593
Fore
345 164 m 1
 417 164 l 1
 398 51 329 -15 230 -15 c 0
 108 -15 33 87 33 252 c 0
 33 427 112 538 236 538 c 0
 305 538 353 506 386 437 c 0
 411 385 420 336 423 233 c 1
 110 233 l 1
 112 174 118 146 135 117 c 0
 156 81 190 62 232 62 c 0
 290 62 338 105 345 164 c 1
110 303 m 1
 348 303 l 1
 344 357 337 383 321 410 c 0
 301 442 270 460 233 460 c 0
 164 460 114 397 110 303 c 1
174 734 m 1
 228 641 l 1
 282 734 l 1
 348 734 l 1
 267 593 l 1
 190 593 l 1
 109 734 l 1
 174 734 l 1
EndSplineSet
Ligature: 0 0 'liga' e uni030C
EndChar
StartChar: edotaccent
Encoding: 339 279 233
Width: 456
Flags: W
HStem: -15 77<224 242> 233 70<110 423> 460 78<224 242>
VStem: 191 75<604 706>
Fore
345 164 m 1
 417 164 l 1
 398 51 329 -15 230 -15 c 0
 108 -15 33 87 33 252 c 0
 33 427 112 538 236 538 c 0
 305 538 353 506 386 437 c 0
 411 385 420 336 423 233 c 1
 110 233 l 1
 112 174 118 146 135 117 c 0
 156 81 190 62 232 62 c 0
 290 62 338 105 345 164 c 1
110 303 m 1
 348 303 l 1
 344 357 337 383 321 410 c 0
 301 442 270 460 233 460 c 0
 164 460 114 397 110 303 c 1
266 706 m 1
 266 604 l 1
 191 604 l 1
 191 706 l 1
 266 706 l 1
EndSplineSet
Ligature: 0 0 'liga' e uni0307
EndChar
StartChar: eogonek
Encoding: 340 281 234
Width: 456
Flags: W
HStem: -225 47<306 322> -15 77<224 242> 233 70<110 423> 460 78<224 242>
VStem: 211 62<-135 -124>
Fore
373 -163 m 1
 387 -203 l 1
 356 -218 331 -225 306 -225 c 0
 250 -225 211 -187 211 -133 c 0
 211 -79 238 -31 279 -9 c 1
 261 -13 246 -15 230 -15 c 0
 108 -15 33 86 33 252 c 0
 33 427 112 538 236 538 c 0
 305 538 353 506 386 437 c 0
 411 385 420 336 423 233 c 1
 110 233 l 1
 112 174 118 146 135 117 c 0
 156 81 190 62 232 62 c 0
 290 62 338 105 345 164 c 1
 417 164 l 1
 407 106 401 93 360 46 c 1
 300 -26 273 -78 273 -126 c 0
 273 -161 289 -178 320 -178 c 0
 337 -178 348 -175 373 -163 c 1
110 303 m 1
 348 303 l 1
 344 357 337 383 321 410 c 0
 301 442 270 460 233 460 c 0
 164 460 114 397 110 303 c 1
EndSplineSet
Ligature: 0 0 'liga' e uni0328
EndChar
StartChar: gbreve
Encoding: 341 287 235
Width: 456
Flags: W
HStem: -220 73<208 233> -15 77<208 233> 460 78<208 229> 595 57<214 242> 711 20G<103 143 316 355>
VStem: 33 75<243 293> 337 72<3 58>
Fore
409 523 m 1
 409 43 l 2
 409 -41 399 -93 374 -136 c 0
 342 -191 286 -220 211 -220 c 0
 169 -220 133 -209 105 -188 c 0
 71 -161 57 -131 46 -64 c 1
 118 -64 l 1
 131 -123 159 -147 214 -147 c 0
 265 -147 299 -128 318 -88 c 0
 332 -60 337 -27 337 37 c 2
 337 58 l 1
 309 7 273 -15 220 -15 c 0
 107 -15 33 100 33 274 c 0
 33 432 104 538 210 538 c 0
 268 538 302 514 341 446 c 1
 341 523 l 1
 409 523 l 1
225 460 m 0
 147 460 108 397 108 269 c 0
 108 138 150 62 222 62 c 0
 296 62 340 132 340 247 c 0
 340 385 299 460 225 460 c 0
316 731 m 1
 355 731 l 1
 343 637 304 595 226 595 c 0
 151 595 113 637 103 731 c 1
 143 731 l 1
 145 724 l 2
 158 674 184 652 231 652 c 0
 280 652 301 672 316 731 c 1
EndSplineSet
Ligature: 0 0 'liga' g uni0306
EndChar
StartChar: idieresis
Encoding: 342 239 236
Width: 228
Flags: W
HStem: 0 21G<78 150> 503 20G<78 150> 604 102<11 86 143 218>
VStem: 11 75<604 706> 78 72<0 523> 143 75<604 706>
Fore
150 523 m 1xe8
 150 0 l 1
 78 0 l 1
 78 523 l 1
 150 523 l 1xe8
86 706 m 1xf0
 86 604 l 1
 11 604 l 1
 11 706 l 1
 86 706 l 1xf0
218 706 m 1xe4
 218 604 l 1
 143 604 l 1
 143 706 l 1
 218 706 l 1xe4
EndSplineSet
Ligature: 0 0 'liga' i uni0308
EndChar
StartChar: iacute
Encoding: 343 237 237
Width: 228
Flags: W
HStem: 0 21G<78 150> 503 20G<78 150> 714 20G<151 240>
VStem: 78 72<0 523>
Fore
150 523 m 1
 150 0 l 1
 78 0 l 1
 78 523 l 1
 150 523 l 1
240 734 m 1
 133 593 l 1
 78 593 l 1
 151 734 l 1
 240 734 l 1
EndSplineSet
Ligature: 0 0 'liga' i acutecomb
EndChar
StartChar: igrave
Encoding: 344 236 238
Width: 228
Flags: W
HStem: 0 21G<78 150> 503 20G<78 150> 714 20G<-11 78>
VStem: 78 72<0 523>
Fore
150 523 m 1
 150 0 l 1
 78 0 l 1
 78 523 l 1
 150 523 l 1
96 593 m 1
 -11 734 l 1
 78 734 l 1
 151 593 l 1
 96 593 l 1
EndSplineSet
Ligature: 0 0 'liga' i gravecomb
EndChar
StartChar: icircumflex
Encoding: 345 238 239
Width: 228
Flags: W
HStem: 0 21G<78 150> 503 20G<78 150> 714 20G<76 153>
VStem: 78 72<0 523>
DStem: 76 734 114 686 -5 593 60 593 114 686 153 734 168 593 234 593
Fore
150 523 m 1
 150 0 l 1
 78 0 l 1
 78 523 l 1
 150 523 l 1
114 686 m 1
 60 593 l 1
 -5 593 l 1
 76 734 l 1
 153 734 l 1
 234 593 l 1
 168 593 l 1
 114 686 l 1
EndSplineSet
Ligature: 0 0 'liga' i uni0302
EndChar
StartChar: lacute
Encoding: 346 314 240
Width: 182
Flags: W
HStem: 0 21G<56 128> 698 20G<56 128>
VStem: 56 72<0 718>
Fore
128 718 m 1
 128 0 l 1
 56 0 l 1
 56 718 l 1
 128 718 l 1
217 903 m 1
 110 762 l 1
 55 762 l 1
 128 903 l 1
 217 903 l 1
EndSplineSet
Ligature: 0 0 'liga' l acutecomb
EndChar
StartChar: lcaron
Encoding: 347 318 241
Width: 212
Flags: W
HStem: 0 21G<55 127> 496 36<150 165.5> 698 20G<55 127 149 232>
VStem: 55 72<0 718> 149 83<621 718>
Fore
127 718 m 1
 127 0 l 1
 55 0 l 1
 55 718 l 1
 127 718 l 1
149 718 m 1
 232 718 l 1
 232 625 l 2
 232 539 205 496 150 496 c 1
 150 532 l 1
 181 530 197 561 195 621 c 1
 149 621 l 1
 149 718 l 1
EndSplineSet
Ligature: 0 0 'liga' l uni030C
EndChar
StartChar: nacute
Encoding: 348 324 242
Width: 456
Flags: W
HStem: 0 21G<53 125 331 403> 460 78<241 258> 714 20G<265 354>
VStem: 53 68<0 523> 331 72<0 356>
Fore
121 523 m 1
 121 446 l 1
 158 511 199 538 258 538 c 0
 349 538 403 471 403 356 c 2
 403 0 l 1
 331 0 l 1
 331 322 l 2
 331 418 304 460 243 460 c 0
 170 460 125 394 125 285 c 2
 125 0 l 1
 53 0 l 1
 53 523 l 1
 121 523 l 1
354 734 m 1
 247 593 l 1
 192 593 l 1
 265 734 l 1
 354 734 l 1
EndSplineSet
Ligature: 0 0 'liga' n acutecomb
EndChar
StartChar: ncaron
Encoding: 349 328 243
Width: 456
Flags: W
HStem: 0 21G<53 125 331 403> 460 78<241 258> 714 20G<109 174 282 348>
VStem: 53 68<0 523> 331 72<0 356>
DStem: 109 734 174 734 190 593 228 641 282 734 348 734 228 641 267 593
Fore
121 523 m 1
 121 446 l 1
 158 511 199 538 258 538 c 0
 349 538 403 471 403 356 c 2
 403 0 l 1
 331 0 l 1
 331 322 l 2
 331 418 304 460 243 460 c 0
 170 460 125 394 125 285 c 2
 125 0 l 1
 53 0 l 1
 53 523 l 1
 121 523 l 1
174 734 m 1
 228 641 l 1
 282 734 l 1
 348 734 l 1
 267 593 l 1
 190 593 l 1
 109 734 l 1
 174 734 l 1
EndSplineSet
Ligature: 0 0 'liga' n uni030C
EndChar
StartChar: ntilde
Encoding: 350 241 244
Width: 456
Flags: W
HStem: 0 21G<53 125 331 403> 460 78<239 258> 613 63<274 282> 650 63<155 167>
VStem: 53 68<0 523> 331 72<0 356>
Fore
121 523 m 1xcc
 121 446 l 1
 158 511 199 538 258 538 c 0
 349 538 403 471 403 356 c 2
 403 0 l 1
 331 0 l 1
 331 322 l 2
 331 418 304 460 243 460 c 0
 170 460 125 394 125 285 c 2
 125 0 l 1
 53 0 l 1
 53 523 l 1
 121 523 l 1xcc
318 722 m 1
 359 722 l 1
 349 650 321 613 276 613 c 0xec
 264 613 251 617 229 626 c 2
 208 635 l 2
 183 646 168 650 157 650 c 0
 138 650 128 638 119 606 c 1
 80 606 l 1
 90 680 117 713 165 713 c 0xdc
 182 713 202 708 221 698 c 2
 239 689 l 2
 255 681 270 676 280 676 c 0xec
 301 676 312 689 318 722 c 1
EndSplineSet
Ligature: 0 0 'liga' n tildecomb
EndChar
StartChar: odieresis
Encoding: 351 246 245
Width: 456
Flags: W
HStem: -14 77<228 238> 461 77<220 238> 604 102<125 200 257 332>
VStem: 29 75<262 291> 125 75<604 706> 257 75<604 706> 352 75<262 291>
Fore
231 538 m 0
 346 538 427 423 427 262 c 0
 427 99 346 -14 228 -14 c 0
 111 -14 29 99 29 262 c 0
 29 427 110 538 231 538 c 0
230 461 m 0
 152 461 104 384 104 262 c 0
 104 141 153 63 228 63 c 0
 303 63 352 141 352 262 c 0
 352 382 303 461 230 461 c 0
200 706 m 1
 200 604 l 1
 125 604 l 1
 125 706 l 1
 200 706 l 1
332 706 m 1
 332 604 l 1
 257 604 l 1
 257 706 l 1
 332 706 l 1
EndSplineSet
KernsSLIF: 121 -17 0 0 120 -18 0 0 119 -9 0 0 118 -15 0 0 116 -7 0 0
Ligature: 0 0 'liga' o uni0308
EndChar
StartChar: oacute
Encoding: 352 243 246
Width: 456
Flags: W
HStem: -14 77<228 238> 461 77<220 238> 714 20G<265 354>
VStem: 29 75<262 291> 352 75<262 291>
Fore
231 538 m 0
 346 538 427 423 427 262 c 0
 427 99 346 -14 228 -14 c 0
 111 -14 29 99 29 262 c 0
 29 427 110 538 231 538 c 0
230 461 m 0
 152 461 104 384 104 262 c 0
 104 141 153 63 228 63 c 0
 303 63 352 141 352 262 c 0
 352 382 303 461 230 461 c 0
354 734 m 1
 247 593 l 1
 192 593 l 1
 265 734 l 1
 354 734 l 1
EndSplineSet
KernsSLIF: 121 -17 0 0 119 -9 0 0 118 -15 0 0
Ligature: 0 0 'liga' o acutecomb
EndChar
StartChar: ograve
Encoding: 353 242 247
Width: 456
Flags: W
HStem: -14 77<228 238> 461 77<220 238> 714 20G<104 193>
VStem: 29 75<262 291> 352 75<262 291>
Fore
231 538 m 0
 346 538 427 423 427 262 c 0
 427 99 346 -14 228 -14 c 0
 111 -14 29 99 29 262 c 0
 29 427 110 538 231 538 c 0
230 461 m 0
 152 461 104 384 104 262 c 0
 104 141 153 63 228 63 c 0
 303 63 352 141 352 262 c 0
 352 382 303 461 230 461 c 0
211 593 m 1
 104 734 l 1
 193 734 l 1
 266 593 l 1
 211 593 l 1
EndSplineSet
KernsSLIF: 121 -17 0 0 119 -9 0 0 118 -15 0 0
Ligature: 0 0 'liga' o gravecomb
EndChar
StartChar: ocircumflex
Encoding: 354 244 248
Width: 456
Flags: W
HStem: -14 77<228 238> 461 77<220 238> 714 20G<190 267>
VStem: 29 75<262 291> 352 75<262 291>
DStem: 190 734 228 686 109 593 174 593 228 686 267 734 282 593 348 593
Fore
231 538 m 0
 346 538 427 423 427 262 c 0
 427 99 346 -14 228 -14 c 0
 111 -14 29 99 29 262 c 0
 29 427 110 538 231 538 c 0
230 461 m 0
 152 461 104 384 104 262 c 0
 104 141 153 63 228 63 c 0
 303 63 352 141 352 262 c 0
 352 382 303 461 230 461 c 0
228 686 m 1
 174 593 l 1
 109 593 l 1
 190 734 l 1
 267 734 l 1
 348 593 l 1
 282 593 l 1
 228 686 l 1
EndSplineSet
KernsSLIF: 116 -7 0 0
Ligature: 0 0 'liga' o uni0302
EndChar
StartChar: otilde
Encoding: 355 245 249
Width: 456
Flags: W
HStem: -14 77<228 240> 461 77<215 240> 613 63<283 291> 650 63<164 176>
VStem: 29 75<262 291> 352 75<262 291>
Fore
231 538 m 0xcc
 346 538 427 423 427 262 c 0
 427 99 346 -14 228 -14 c 0
 111 -14 29 99 29 262 c 0
 29 427 110 538 231 538 c 0xcc
230 461 m 0
 152 461 104 384 104 262 c 0
 104 141 153 63 228 63 c 0
 303 63 352 141 352 262 c 0
 352 382 303 461 230 461 c 0
327 722 m 1
 368 722 l 1
 358 650 330 613 285 613 c 0xec
 273 613 260 617 238 626 c 2
 217 635 l 2
 192 646 177 650 166 650 c 0
 147 650 137 638 128 606 c 1
 89 606 l 1
 99 680 126 713 174 713 c 0xdc
 191 713 211 708 230 698 c 2
 248 689 l 2
 264 681 279 676 289 676 c 0xec
 310 676 321 689 327 722 c 1
EndSplineSet
Ligature: 0 0 'liga' o tildecomb
EndChar
StartChar: ohungarumlaut
Encoding: 356 337 250
Width: 456
Flags: W
HStem: -14 77<228 238> 461 77<220 238> 714 20G<190 279 338 427>
VStem: 29 75<262 291> 352 75<262 291>
Fore
231 538 m 0
 346 538 427 423 427 262 c 0
 427 99 346 -14 228 -14 c 0
 111 -14 29 99 29 262 c 0
 29 427 110 538 231 538 c 0
230 461 m 0
 152 461 104 384 104 262 c 0
 104 141 153 63 228 63 c 0
 303 63 352 141 352 262 c 0
 352 382 303 461 230 461 c 0
279 734 m 1
 172 593 l 1
 117 593 l 1
 190 734 l 1
 279 734 l 1
427 734 m 1
 320 593 l 1
 265 593 l 1
 338 734 l 1
 427 734 l 1
EndSplineSet
Ligature: 0 0 'liga' o uni030B
EndChar
StartChar: racute
Encoding: 357 341 251
Width: 273
Flags: W
HStem: 0 21G<63 135> 445 93<238 264> 714 20G<173 262>
VStem: 63 68<0 523>
Fore
272 445 m 1
 245 445 l 2
 181 445 135 386 135 305 c 2
 135 0 l 1
 63 0 l 1
 63 523 l 1
 131 523 l 1
 131 434 l 1
 169 509 203 538 253 538 c 0
 260 538 265 537 272 535 c 1
 272 445 l 1
262 734 m 1
 155 593 l 1
 100 593 l 1
 173 734 l 1
 262 734 l 1
EndSplineSet
Ligature: 0 0 'liga' r acutecomb
EndChar
StartChar: sacute
Encoding: 358 347 252
Width: 410
Flags: W
HStem: -15 77<185 225> 461 77<185 219> 714 20G<242 331>
VStem: 40 70<372 389> 308 72<142 157>
Fore
366 374 m 1
 296 374 l 1
 293 433 262 461 199 461 c 0
 144 461 110 433 110 387 c 0
 110 350 124 337 187 318 c 2
 260 296 l 2
 347 269 380 231 380 157 c 0
 380 52 311 -15 202 -15 c 0
 131 -15 76 13 49 64 c 0
 34 91 29 116 26 168 c 1
 96 168 l 1
 101 94 134 62 207 62 c 0
 270 62 308 93 308 144 c 0
 308 183 289 199 223 219 c 2
 139 244 l 2
 72 264 40 306 40 373 c 0
 40 473 105 538 204 538 c 0
 302 538 360 479 366 374 c 1
331 734 m 1
 224 593 l 1
 169 593 l 1
 242 734 l 1
 331 734 l 1
EndSplineSet
Ligature: 0 0 'liga' s acutecomb
EndChar
StartChar: scaron
Encoding: 359 353 253
Width: 410
Flags: W
HStem: -15 77<185 225> 461 77<185 219> 714 20G<86 151 259 325>
VStem: 40 70<372 389> 308 72<142 157>
DStem: 86 734 151 734 167 593 205 641 259 734 325 734 205 641 244 593
Fore
366 374 m 1
 296 374 l 1
 293 433 262 461 199 461 c 0
 144 461 110 433 110 387 c 0
 110 350 124 337 187 318 c 2
 260 296 l 2
 347 269 380 231 380 157 c 0
 380 52 311 -15 202 -15 c 0
 131 -15 76 13 49 64 c 0
 34 91 29 116 26 168 c 1
 96 168 l 1
 101 94 134 62 207 62 c 0
 270 62 308 93 308 144 c 0
 308 183 289 199 223 219 c 2
 139 244 l 2
 72 264 40 306 40 373 c 0
 40 473 105 538 204 538 c 0
 302 538 360 479 366 374 c 1
151 734 m 1
 205 641 l 1
 259 734 l 1
 325 734 l 1
 244 593 l 1
 167 593 l 1
 86 734 l 1
 151 734 l 1
EndSplineSet
Ligature: 0 0 'liga' s uni030C
EndChar
StartChar: scommaaccent
Encoding: 360 537 254
Width: 410
Flags: W
HStem: -282 36<165 180.5> -15 77<185 225> 461 77<185 219>
VStem: 40 70<372 391> 164 83<-157 -60> 308 72<142 157>
Fore
366 374 m 1
 296 374 l 1
 293 433 262 461 199 461 c 0
 144 461 110 433 110 387 c 0
 110 350 124 337 187 318 c 2
 260 296 l 2
 347 269 380 231 380 157 c 0
 380 52 311 -15 202 -15 c 0
 131 -15 76 13 49 64 c 0
 34 91 29 116 26 168 c 1
 96 168 l 1
 101 94 134 62 207 62 c 0
 270 62 308 93 308 144 c 0
 308 183 289 199 223 219 c 2
 139 244 l 2
 72 264 40 306 40 373 c 0
 40 473 105 538 204 538 c 0
 302 538 360 479 366 374 c 1
164 -60 m 1
 247 -60 l 1
 247 -153 l 2
 247 -239 220 -282 165 -282 c 1
 165 -246 l 1
 196 -248 212 -217 210 -157 c 1
 164 -157 l 1
 164 -60 l 1
EndSplineSet
Ligature: 0 0 'liga' s uni0326
EndChar
StartChar: tcaron
Encoding: 361 357 255
Width: 248
Flags: W
HStem: -7 76<153 184> -4 73<178 188> 450 73<11 69 141 211> 698 20G<185 268>
VStem: 69 72<103 450 523 669> 185 83<621 718>
Fore
186 523 m 1xbc
 186 532 l 1
 218 530 233 560 231 621 c 1
 185 621 l 1
 185 718 l 1
 268 718 l 1
 268 625 l 2
 268 556 248 512 211 498 c 1
 211 450 l 1
 141 450 l 1
 141 110 l 2
 141 81 153 69 184 69 c 2xbc
 210 69 l 1
 210 0 l 1
 202 -1 l 2
 189 -3 181 -4 178 -4 c 0x7c
 162 -7 158 -7 153 -7 c 0
 96 -7 69 29 69 105 c 2
 69 450 l 1
 11 450 l 1
 11 523 l 1
 69 523 l 1
 69 669 l 1
 141 669 l 1
 141 523 l 1
 186 523 l 1xbc
EndSplineSet
Ligature: 0 0 'liga' t uni030C
EndChar
StartChar: udieresis
Encoding: 362 252 256
Width: 456
Flags: W
HStem: -15 77<196 217> 503 20G<56 128 329 401> 604 102<125 200 257 332>
VStem: 56 72<147 523> 125 75<604 706> 257 75<604 706> 329 72<208 523>
Fore
401 0 m 1xf2
 333 0 l 1
 333 81 l 1
 295 9 261 -15 197 -15 c 0
 109 -15 56 45 56 147 c 2
 56 523 l 1
 128 523 l 1
 128 176 l 2
 128 101 156 62 211 62 c 0
 283 62 329 129 329 235 c 2
 329 523 l 1
 401 523 l 1
 401 0 l 1xf2
200 706 m 1xe8
 200 604 l 1
 125 604 l 1
 125 706 l 1
 200 706 l 1xe8
332 706 m 1xe4
 332 604 l 1
 257 604 l 1
 257 706 l 1
 332 706 l 1xe4
EndSplineSet
Ligature: 0 0 'liga' u uni0308
EndChar
StartChar: uacute
Encoding: 363 250 257
Width: 456
Flags: W
HStem: -15 77<196 217> 503 20G<56 128 329 401> 714 20G<265 354>
VStem: 56 72<147 523> 329 72<208 523>
Fore
401 0 m 1
 333 0 l 1
 333 81 l 1
 295 9 261 -15 197 -15 c 0
 109 -15 56 45 56 147 c 2
 56 523 l 1
 128 523 l 1
 128 176 l 2
 128 101 156 62 211 62 c 0
 283 62 329 129 329 235 c 2
 329 523 l 1
 401 523 l 1
 401 0 l 1
354 734 m 1
 247 593 l 1
 192 593 l 1
 265 734 l 1
 354 734 l 1
EndSplineSet
Ligature: 0 0 'liga' u acutecomb
EndChar
StartChar: ugrave
Encoding: 364 249 258
Width: 456
Flags: W
HStem: -15 77<196 217> 503 20G<56 128 329 401> 714 20G<104 193>
VStem: 56 72<147 523> 329 72<208 523>
Fore
401 0 m 1
 333 0 l 1
 333 81 l 1
 295 9 261 -15 197 -15 c 0
 109 -15 56 45 56 147 c 2
 56 523 l 1
 128 523 l 1
 128 176 l 2
 128 101 156 62 211 62 c 0
 283 62 329 129 329 235 c 2
 329 523 l 1
 401 523 l 1
 401 0 l 1
211 593 m 1
 104 734 l 1
 193 734 l 1
 266 593 l 1
 211 593 l 1
EndSplineSet
Ligature: 0 0 'liga' u gravecomb
EndChar
StartChar: ucircumflex
Encoding: 365 251 259
Width: 456
Flags: W
HStem: -15 77<196 217> 503 20G<56 128 329 401> 714 20G<190 267>
VStem: 56 72<147 523> 329 72<208 523>
DStem: 190 734 228 686 109 593 174 593 228 686 267 734 282 593 348 593
Fore
401 0 m 1
 333 0 l 1
 333 81 l 1
 295 9 261 -15 197 -15 c 0
 109 -15 56 45 56 147 c 2
 56 523 l 1
 128 523 l 1
 128 176 l 2
 128 101 156 62 211 62 c 0
 283 62 329 129 329 235 c 2
 329 523 l 1
 401 523 l 1
 401 0 l 1
228 686 m 1
 174 593 l 1
 109 593 l 1
 190 734 l 1
 267 734 l 1
 348 593 l 1
 282 593 l 1
 228 686 l 1
EndSplineSet
Ligature: 0 0 'liga' u uni0302
EndChar
StartChar: uring
Encoding: 366 367 260
Width: 456
Flags: W
HStem: -15 77<196 217> 503 20G<56 128 329 401> 572 40<227 233> 716 40<228 233>
VStem: 56 72<147 523> 152 33<664 674> 270 33<664 674> 329 72<208 523>
Fore
401 0 m 1
 333 0 l 1
 333 81 l 1
 295 9 261 -15 197 -15 c 0
 109 -15 56 45 56 147 c 2
 56 523 l 1
 128 523 l 1
 128 176 l 2
 128 101 156 62 211 62 c 0
 283 62 329 129 329 235 c 2
 329 523 l 1
 401 523 l 1
 401 0 l 1
228 756 m 0
 271 756 303 716 303 664 c 0
 303 611 271 572 227 572 c 0
 184 572 152 611 152 664 c 0
 152 717 184 756 228 756 c 0
228 716 m 0
 204 716 185 693 185 664 c 0
 185 635 204 612 227 612 c 0
 251 612 270 635 270 664 c 0
 270 692 251 716 228 716 c 0
EndSplineSet
Ligature: 0 0 'liga' u uni030A
EndChar
StartChar: uhungarumlaut
Encoding: 367 369 261
Width: 456
Flags: W
HStem: -15 77<196 217> 503 20G<56 128 329 401> 714 20G<190 279 338 427>
VStem: 56 72<147 523> 329 72<208 523>
Fore
401 0 m 1
 333 0 l 1
 333 81 l 1
 295 9 261 -15 197 -15 c 0
 109 -15 56 45 56 147 c 2
 56 523 l 1
 128 523 l 1
 128 176 l 2
 128 101 156 62 211 62 c 0
 283 62 329 129 329 235 c 2
 329 523 l 1
 401 523 l 1
 401 0 l 1
279 734 m 1
 172 593 l 1
 117 593 l 1
 190 734 l 1
 279 734 l 1
427 734 m 1
 320 593 l 1
 265 593 l 1
 338 734 l 1
 427 734 l 1
EndSplineSet
Ligature: 0 0 'liga' u uni030B
EndChar
StartChar: yacute
Encoding: 368 253 262
Width: 410
Flags: W
HStem: -214 79<81 94> 503 20G<9 90 321 401> 714 20G<242 331>
Fore
205 94 m 1
 321 523 l 1
 401 523 l 1
 246 10 l 1
 182 -197 169 -214 83 -214 c 0
 73 -214 67 -213 54 -208 c 2
 48 -206 l 1
 48 -126 l 1
 62 -132 77 -135 92 -135 c 0
 122 -135 134 -121 150 -68 c 0
 153 -60 160 -38 168 -14 c 1
 9 523 l 1
 90 523 l 1
 205 94 l 1
331 734 m 1
 224 593 l 1
 169 593 l 1
 242 734 l 1
 331 734 l 1
EndSplineSet
Ligature: 0 0 'liga' y acutecomb
EndChar
StartChar: zacute
Encoding: 369 378 263
Width: 410
Flags: W
HStem: 0 73<121 385> 450 73<45 284> 714 20G<242 331>
DStem: 284 450 378 451 25 69 121 73
Fore
378 451 m 1
 121 73 l 1
 385 73 l 1
 385 0 l 1
 25 0 l 1
 25 69 l 1
 284 450 l 1
 45 450 l 1
 45 523 l 1
 378 523 l 1
 378 451 l 1
331 734 m 1
 224 593 l 1
 169 593 l 1
 242 734 l 1
 331 734 l 1
EndSplineSet
Ligature: 0 0 'liga' z acutecomb
EndChar
StartChar: zcaron
Encoding: 370 382 264
Width: 410
Flags: W
HStem: 0 73<121 385> 450 73<45 284> 714 20G<86 151 259 325>
DStem: 86 734 151 734 167 593 205 641 259 734 325 734 205 641 244 593 284 450 378 451 25 69 121 73
Fore
378 451 m 1
 121 73 l 1
 385 73 l 1
 385 0 l 1
 25 0 l 1
 25 69 l 1
 284 450 l 1
 45 450 l 1
 45 523 l 1
 378 523 l 1
 378 451 l 1
151 734 m 1
 205 641 l 1
 259 734 l 1
 325 734 l 1
 244 593 l 1
 167 593 l 1
 86 734 l 1
 151 734 l 1
EndSplineSet
Ligature: 0 0 'liga' z uni030C
EndChar
StartChar: zdotaccent
Encoding: 371 380 265
Width: 410
Flags: W
HStem: 0 73<121 385> 450 73<45 284>
VStem: 168 75<604 706>
DStem: 284 450 378 451 25 69 121 73
Fore
378 451 m 1
 121 73 l 1
 385 73 l 1
 385 0 l 1
 25 0 l 1
 25 69 l 1
 284 450 l 1
 45 450 l 1
 45 523 l 1
 378 523 l 1
 378 451 l 1
243 706 m 1
 243 604 l 1
 168 604 l 1
 168 706 l 1
 243 706 l 1
EndSplineSet
Ligature: 0 0 'liga' z uni0307
EndChar
StartChar: ydieresis
Encoding: 372 255 266
Width: 410
Flags: W
HStem: -214 79<81 104> 503 20G<9 90 321 401> 604 102<102 177 234 309>
VStem: 102 75<604 706> 234 75<604 706>
Fore
205 94 m 1
 321 523 l 1
 401 523 l 1
 246 10 l 1
 182 -197 169 -214 83 -214 c 0
 73 -214 67 -213 54 -208 c 2
 48 -206 l 1
 48 -126 l 1
 62 -132 77 -135 92 -135 c 0
 122 -135 134 -121 150 -68 c 0
 153 -60 160 -38 168 -14 c 1
 9 523 l 1
 90 523 l 1
 205 94 l 1
177 706 m 1
 177 604 l 1
 102 604 l 1
 102 706 l 1
 177 706 l 1
309 706 m 1
 309 604 l 1
 234 604 l 1
 234 706 l 1
 309 706 l 1
EndSplineSet
Ligature: 0 0 'liga' y uni0308
EndChar
StartChar: tcommaaccent
Encoding: 373 355 267
Width: 228
Flags: W
HStem: -282 36<74 89.5> -7 76<153 185> 450 73<11 69 141 211>
VStem: 69 72<101 450 523 669>
Fore
211 450 m 1
 141 450 l 1
 141 110 l 2
 141 81 153 69 185 69 c 2
 210 69 l 1
 210 0 l 1
 194 -2 184 -3 178 -4 c 0
 162 -7 158 -7 153 -7 c 0
 96 -7 69 29 69 105 c 2
 69 450 l 1
 11 450 l 1
 11 523 l 1
 69 523 l 1
 69 669 l 1
 141 669 l 1
 141 523 l 1
 211 523 l 1
 211 450 l 1
73 -60 m 1
 156 -60 l 1
 156 -153 l 2
 156 -239 129 -282 74 -282 c 1
 74 -246 l 1
 105 -248 121 -217 119 -157 c 1
 73 -157 l 1
 73 -60 l 1
EndSplineSet
Ligature: 0 0 'liga' t uni0327
EndChar
StartChar: amacron
Encoding: 374 257 268
Width: 456
Flags: W
HStem: -15 73<167 184> 465 73<205 225> 627 57<100 357>
VStem: 30 75<128 148> 315 72<176 394>
Fore
117 364 m 1
 51 364 l 1
 54 416 60 441 77 469 c 0
 105 514 156 538 223 538 c 0
 325 538 387 483 387 392 c 2
 387 91 l 2
 387 71 395 60 410 60 c 0
 416 60 420 61 435 64 c 1
 435 0 l 1
 432 -1 431 -1 426 -3 c 0
 412 -8 404 -10 393 -10 c 0
 344 -10 324 13 319 70 c 1
 272 10 228 -15 167 -15 c 0
 84 -15 30 46 30 138 c 0
 30 229 77 287 160 300 c 2
 279 318 l 2
 306 322 317 340 317 378 c 0
 317 435 283 465 218 465 c 0
 155 465 127 437 117 364 c 1
315 181 m 2
 315 267 l 1
 300 253 279 248 197 234 c 0
 131 223 105 198 105 146 c 0
 105 90 133 58 182 58 c 0
 254 58 315 115 315 181 c 2
357 684 m 1
 357 627 l 1
 100 627 l 1
 100 684 l 1
 357 684 l 1
EndSplineSet
Ligature: 0 0 'liga' a uni0304
EndChar
StartChar: emacron
Encoding: 375 275 269
Width: 456
Flags: W
HStem: -15 77<224 242> 233 70<110 423> 460 78<224 242> 627 57<100 357>
Fore
345 164 m 1
 417 164 l 1
 398 51 329 -15 230 -15 c 0
 108 -15 33 87 33 252 c 0
 33 427 112 538 236 538 c 0
 305 538 353 506 386 437 c 0
 411 385 420 336 423 233 c 1
 110 233 l 1
 112 174 118 146 135 117 c 0
 156 81 190 62 232 62 c 0
 290 62 338 105 345 164 c 1
110 303 m 1
 348 303 l 1
 344 357 337 383 321 410 c 0
 301 442 270 460 233 460 c 0
 164 460 114 397 110 303 c 1
357 684 m 1
 357 627 l 1
 100 627 l 1
 100 684 l 1
 357 684 l 1
EndSplineSet
Ligature: 0 0 'liga' e uni0304
EndChar
StartChar: imacron
Encoding: 376 299 270
Width: 228
Flags: W
HStem: 0 21G<78 150> 503 20G<78 150> 627 57<-15 242>
VStem: 78 72<0 523>
Fore
150 523 m 1
 150 0 l 1
 78 0 l 1
 78 523 l 1
 150 523 l 1
242 684 m 1
 242 627 l 1
 -15 627 l 1
 -15 684 l 1
 242 684 l 1
EndSplineSet
Ligature: 0 0 'liga' i uni0304
EndChar
StartChar: kcommaaccent
Encoding: 377 311 271
Width: 410
Flags: W
HStem: -282 36<165 180.5 165.063 176.452> 0 21G<55 125 318 411> 503 20G<310 401> 698 20G<55 125>
VStem: 55 70<0 198 0 718> 164 83<-157 -60>
DStem: 185 264 237 328 318 0 411 0 310 523 401 523 125 302 237 328
Fore
237 328 m 1
 411 0 l 1
 318 0 l 1
 185 264 l 1
 125 198 l 1
 125 0 l 1
 55 0 l 1
 55 718 l 1
 125 718 l 1
 125 302 l 1
 310 523 l 1
 401 523 l 1
 237 328 l 1
164 -60 m 1
 247 -60 l 1
 247 -153 l 2
 247 -239 220 -282 165 -282 c 1
 165 -246 l 1
 196 -248 212 -217 210 -157 c 1
 164 -157 l 1
 164 -60 l 1
EndSplineSet
Ligature: 0 0 'liga' k uni0327
EndChar
StartChar: lcommaaccent
Encoding: 378 316 272
Width: 182
Flags: W
HStem: -282 36<51 66.5> 0 21G<55 127> 698 20G<55 127>
VStem: 50 83<-157 -60>
Fore
127 718 m 1
 127 0 l 1
 55 0 l 1
 55 718 l 1
 127 718 l 1
50 -60 m 1
 133 -60 l 1
 133 -153 l 2
 133 -239 106 -282 51 -282 c 1
 51 -246 l 1
 82 -248 98 -217 96 -157 c 1
 50 -157 l 1
 50 -60 l 1
EndSplineSet
Ligature: 0 0 'liga' l uni0327
EndChar
StartChar: ncommaaccent
Encoding: 379 326 273
Width: 456
Flags: W
HStem: -282 36<188 203.5> 0 21G<53 125 331 403> 460 78<241 258>
VStem: 53 68<0 523> 187 83<-157 -60> 331 72<0 356>
Fore
121 523 m 1
 121 446 l 1
 158 511 199 538 258 538 c 0
 349 538 403 471 403 356 c 2
 403 0 l 1
 331 0 l 1
 331 322 l 2
 331 418 304 460 243 460 c 0
 170 460 125 394 125 285 c 2
 125 0 l 1
 53 0 l 1
 53 523 l 1
 121 523 l 1
187 -60 m 1
 270 -60 l 1
 270 -153 l 2
 270 -239 243 -282 188 -282 c 1
 188 -246 l 1
 219 -248 235 -217 233 -157 c 1
 187 -157 l 1
 187 -60 l 1
EndSplineSet
Ligature: 0 0 'liga' n uni0327
EndChar
StartChar: omacron
Encoding: 380 333 274
Width: 456
Flags: W
HStem: -14 77<228 238> 461 77<220 238> 627 57<100 357>
VStem: 29 75<262 291> 352 75<262 291>
Fore
231 538 m 0
 346 538 427 423 427 262 c 0
 427 99 346 -14 228 -14 c 0
 111 -14 29 99 29 262 c 0
 29 427 110 538 231 538 c 0
230 461 m 0
 152 461 104 384 104 262 c 0
 104 141 153 63 228 63 c 0
 303 63 352 141 352 262 c 0
 352 382 303 461 230 461 c 0
357 684 m 1
 357 627 l 1
 100 627 l 1
 100 684 l 1
 357 684 l 1
EndSplineSet
Ligature: 0 0 'liga' o uni0304
EndChar
StartChar: rcommaaccent
Encoding: 381 343 275
Width: 273
Flags: W
HStem: -282 36<58 73.5> 0 21G<63 135> 445 93<243 255>
VStem: 63 68<0 523>
Fore
272 445 m 1
 245 445 l 2
 181 445 135 386 135 305 c 2
 135 0 l 1
 63 0 l 1
 63 523 l 1
 131 523 l 1
 131 434 l 1
 169 509 203 538 253 538 c 0
 260 538 265 537 272 535 c 1
 272 445 l 1
57 -60 m 1
 140 -60 l 1
 140 -153 l 2
 140 -239 113 -282 58 -282 c 1
 58 -246 l 1
 89 -248 105 -217 103 -157 c 1
 57 -157 l 1
 57 -60 l 1
EndSplineSet
Ligature: 0 0 'liga' r uni0327
EndChar
StartChar: umacron
Encoding: 382 363 276
Width: 456
Flags: W
HStem: -15 77<196 217> 503 20G<56 128 329 401> 627 57<100 357>
VStem: 56 72<147 523> 329 72<208 523>
Fore
401 0 m 1
 333 0 l 1
 333 81 l 1
 295 9 261 -15 197 -15 c 0
 109 -15 56 45 56 147 c 2
 56 523 l 1
 128 523 l 1
 128 176 l 2
 128 101 156 62 211 62 c 0
 283 62 329 129 329 235 c 2
 329 523 l 1
 401 523 l 1
 401 0 l 1
357 684 m 1
 357 627 l 1
 100 627 l 1
 100 684 l 1
 357 684 l 1
EndSplineSet
Ligature: 0 0 'liga' u uni0304
EndChar
StartChar: uogonek
Encoding: 383 371 277
Width: 456
Flags: W
HStem: -225 47<352 368> -15 77<196 217> 503 20G<56 128 329 401>
VStem: 56 72<147 523> 257 62<-135 -122> 329 72<222 523>
Fore
401 523 m 1
 401 -4 l 1
 336 -49 319 -74 319 -124 c 0
 319 -161 334 -178 366 -178 c 0
 382 -178 393 -175 418 -163 c 1
 432 -203 l 1
 402 -218 377 -225 352 -225 c 0
 296 -225 257 -187 257 -133 c 0
 257 -95 271 -57 296 -31 c 0
 309 -17 317 -13 346 0 c 1
 333 0 l 1
 333 81 l 1
 295 9 261 -15 197 -15 c 0
 109 -15 56 45 56 147 c 2
 56 523 l 1
 128 523 l 1
 128 176 l 2
 128 101 156 62 211 62 c 0
 283 62 329 129 329 235 c 2
 329 523 l 1
 401 523 l 1
EndSplineSet
Ligature: 0 0 'liga' u uni0328
EndChar
StartChar: rcaron
Encoding: 384 345 278
Width: 273
Flags: W
HStem: 0 21G<63 135> 445 93<243 255> 714 20G<44 109 217 283>
VStem: 63 68<0 523>
DStem: 44 734 109 734 125 593 163 641 217 734 283 734 163 641 202 593
Fore
272 445 m 1
 245 445 l 2
 181 445 135 386 135 305 c 2
 135 0 l 1
 63 0 l 1
 63 523 l 1
 131 523 l 1
 131 434 l 1
 169 509 203 538 253 538 c 0
 260 538 265 537 272 535 c 1
 272 445 l 1
109 734 m 1
 163 641 l 1
 217 734 l 1
 283 734 l 1
 202 593 l 1
 125 593 l 1
 44 734 l 1
 109 734 l 1
EndSplineSet
Ligature: 0 0 'liga' r uni030C
EndChar
StartChar: scedilla
Encoding: 385 351 279
Width: 410
Flags: W
HStem: -225 47<169 185> -96 158<179 207> 461 77<183 218>
VStem: 40 70<372 389> 219 62<-146 -128> 308 72<142 157>
DStem: 177 -14 215 -15 133 -86 186 -62
Fore
215 -15 m 1
 186 -62 l 1
 189 -61 l 1
 192 -61 l 2
 200 -59 206 -58 212 -58 c 0
 254 -58 281 -88 281 -133 c 0
 281 -187 241 -225 185 -225 c 0
 160 -225 137 -219 106 -203 c 1
 119 -163 l 1
 143 -175 155 -178 172 -178 c 0
 202 -178 219 -162 219 -136 c 0
 219 -113 202 -96 179 -96 c 0
 172 -96 164 -98 147 -105 c 1
 133 -86 l 1
 177 -14 l 1
 77 -2 29 56 26 168 c 1
 96 168 l 1
 101 94 134 62 207 62 c 0
 270 62 308 93 308 144 c 0
 308 183 289 199 223 219 c 2
 139 244 l 2
 72 264 40 306 40 373 c 0
 40 473 105 538 204 538 c 0
 302 538 360 479 366 374 c 1
 296 374 l 1
 293 433 262 461 199 461 c 0
 144 461 110 433 110 387 c 0
 110 350 124 337 187 318 c 2
 260 296 l 2
 347 269 380 231 380 157 c 0
 380 56 319 -8 215 -15 c 1
EndSplineSet
Ligature: 0 0 'liga' s uni0327
EndChar
StartChar: gcommaaccent
Encoding: 386 291 280
Width: 456
Flags: W
HStem: -220 73<208 228> -15 77<208 228> 460 78<208 227> 688 21G<224 270> 777 36<253.5 269>
VStem: 33 75<243 293> 187 83<591 688> 337 72<3 58>
Fore
409 523 m 1
 409 43 l 2
 409 -41 399 -93 374 -136 c 0
 342 -191 286 -220 211 -220 c 0
 169 -220 133 -209 105 -188 c 0
 71 -161 57 -131 46 -64 c 1
 118 -64 l 1
 131 -123 159 -147 214 -147 c 0
 265 -147 299 -128 318 -88 c 0
 332 -60 337 -27 337 37 c 2
 337 58 l 1
 309 7 273 -15 220 -15 c 0
 107 -15 33 100 33 274 c 0
 33 432 104 538 210 538 c 0
 268 538 302 514 341 446 c 1
 341 523 l 1
 409 523 l 1
225 460 m 0
 147 460 108 397 108 269 c 0
 108 138 150 62 222 62 c 0
 296 62 340 132 340 247 c 0
 340 385 299 460 225 460 c 0
270 591 m 1
 187 591 l 1
 187 684 l 2
 187 770 214 813 269 813 c 1
 269 777 l 1
 238 779 222 748 224 688 c 1
 270 688 l 1
 270 591 l 1
EndSplineSet
Ligature: 0 0 'liga' g uni0327
EndChar
StartChar: iogonek
Encoding: 387 303 281
Width: 182
Flags: W
HStem: -225 47<78 94> -20 20G<55 72> 503 20G<55 127> 698 20G<55 127>
VStem: -17 62<-135 -122> 55 72<-1 523 618 718>
Fore
127 523 m 1
 127 -4 l 1
 62 -49 45 -74 45 -124 c 0
 45 -161 60 -178 92 -178 c 0
 108 -178 119 -175 144 -163 c 1
 158 -203 l 1
 128 -218 103 -225 78 -225 c 0
 22 -225 -17 -187 -17 -133 c 0
 -17 -95 -3 -57 22 -31 c 0
 35 -17 43 -13 72 0 c 1
 55 0 l 1
 55 523 l 1
 127 523 l 1
127 618 m 1
 55 618 l 1
 55 718 l 1
 127 718 l 1
 127 618 l 1
EndSplineSet
Ligature: 0 0 'liga' i uni0328
EndChar
StartChar: Scommaaccent
Encoding: 388 536 282
Width: 547
Flags: W
HStem: -282 36<233 248.5> -19 83<263 297> 654 83<270 282>
VStem: 60 77<516 535> 232 83<-157 -60> 431 77<181 199>
Fore
492 508 m 1
 417 508 l 1
 414 548 408 569 394 593 c 0
 369 632 325 654 270 654 c 0
 186 654 137 608 137 530 c 0
 137 479 159 450 206 437 c 2
 374 390 l 2
 462 366 508 299 508 197 c 0
 508 63 420 -19 276 -19 c 0
 186 -19 128 8 83 71 c 0
 52 114 41 155 40 232 c 1
 115 232 l 1
 116 185 122 161 138 134 c 0
 165 89 214 64 280 64 c 0
 375 64 431 109 431 188 c 0
 431 257 403 284 306 312 c 2
 185 346 l 2
 102 369 60 427 60 518 c 0
 60 576 78 630 109 670 c 0
 145 715 199 737 270 737 c 0
 359 737 427 701 462 637 c 0
 480 602 487 572 492 508 c 1
232 -60 m 1
 315 -60 l 1
 315 -153 l 2
 315 -239 288 -282 233 -282 c 1
 233 -246 l 1
 264 -248 280 -217 278 -157 c 1
 232 -157 l 1
 232 -60 l 1
EndSplineSet
Ligature: 0 0 'liga' S uni0326
EndChar
StartChar: Eth
Encoding: 389 208 283
Width: 592
Flags: W
HStem: 0 83<146 308> 325 87<0 66 146 304> 635 83<66 309>
VStem: 66 80<0 325 412 635> 471 82<335 385>
Fore
0 325 m 1
 0 412 l 1
 66 412 l 1
 66 718 l 1
 306 718 l 2
 455 718 553 580 553 372 c 0
 553 273 531 178 495 114 c 1
 450 38 387 0 302 0 c 2
 66 0 l 1
 66 325 l 1
 0 325 l 1
304 412 m 1
 304 325 l 1
 146 325 l 1
 146 83 l 1
 301 83 l 2
 406 83 471 188 471 359 c 0
 471 537 408 635 295 635 c 2
 146 635 l 1
 146 412 l 1
 304 412 l 1
EndSplineSet
EndChar
StartChar: Dcroat
Encoding: 390 272 284
Width: 592
Flags: W
HStem: 0 83<146 308> 325 87<0 66 146 304> 635 83<66 309>
VStem: 66 80<0 325 412 635> 471 82<335 385>
Fore
0 325 m 1
 0 412 l 1
 66 412 l 1
 66 718 l 1
 306 718 l 2
 455 718 553 580 553 372 c 0
 553 273 531 178 495 114 c 1
 450 38 387 0 302 0 c 2
 66 0 l 1
 66 325 l 1
 0 325 l 1
304 412 m 1
 304 325 l 1
 146 325 l 1
 146 83 l 1
 301 83 l 2
 406 83 471 188 471 359 c 0
 471 537 408 635 295 635 c 2
 146 635 l 1
 146 412 l 1
 304 412 l 1
EndSplineSet
EndChar
StartChar: Thorn
Encoding: 391 222 285
Width: 547
Flags: W
HStem: 0 21G<71 151> 184 83<151 335> 516 83<151 328> 698 20G<71 151>
VStem: 71 80<0 184 0 516 0 718> 428 82<383 401>
Fore
71 0 m 1
 71 718 l 1
 151 718 l 1
 151 599 l 1
 335 599 l 2
 440 599 510 518 510 396 c 0
 510 268 441 184 335 184 c 2
 151 184 l 1
 151 0 l 1
 71 0 l 1
151 516 m 1
 151 267 l 1
 308 267 l 2
 388 267 428 309 428 393 c 0
 428 476 390 516 311 516 c 2
 151 516 l 1
EndSplineSet
EndChar
StartChar: dcroat
Encoding: 392 273 286
Width: 456
Flags: W
HStem: -15 77<204 224> 460 78<204 223> 600 53<200 337 409 456> 698 20G<337 409>
VStem: 29 75<240 290> 336 73<224 600 653 718>
Fore
409 653 m 1
 456 653 l 1
 456 600 l 1
 409 600 l 1
 409 0 l 1
 341 0 l 1
 341 75 l 1
 310 10 275 -15 217 -15 c 0
 103 -15 29 99 29 274 c 0
 29 432 100 538 206 538 c 0
 264 538 303 511 337 444 c 1
 337 600 l 1
 200 600 l 1
 200 653 l 1
 337 653 l 1
 337 718 l 1
 409 718 l 1
 409 653 l 1
221 460 m 0
 142 460 104 397 104 269 c 0
 104 138 146 62 218 62 c 0
 249 62 278 77 298 102 c 0
 324 135 336 181 336 248 c 0
 336 385 295 460 221 460 c 0
EndSplineSet
EndChar
StartChar: eth
Encoding: 393 240 287
Width: 456
Flags: W
HStem: -15 77<217 238> 446 77<217 238>
VStem: 29 75<240 274> 353 75<254 290>
DStem: 197 649 236 612 100 592 135 550 346 737 385 697 259 686 297 646
Fore
385 697 m 1
 297 646 l 1
 352 578 374 541 397 476 c 0
 418 416 428 357 428 290 c 0
 428 104 351 -15 230 -15 c 0
 112 -15 29 96 29 253 c 0
 29 409 109 523 219 523 c 0
 265 523 293 508 330 463 c 1
 309 522 282 565 236 612 c 1
 135 550 l 1
 100 592 l 1
 197 649 l 1
 173 671 152 686 124 701 c 1
 185 737 l 1
 215 722 235 708 259 686 c 1
 346 737 l 1
 385 697 l 1
230 446 m 0
 185 446 153 423 130 376 c 0
 114 344 104 296 104 254 c 0
 104 207 116 154 135 121 c 0
 158 81 189 62 228 62 c 0
 272 62 305 85 327 132 c 0
 343 164 353 213 353 254 c 0
 353 366 301 446 230 446 c 0
EndSplineSet
EndChar
StartChar: thorn
Encoding: 394 254 288
Width: 456
Flags: W
HStem: -15 77<223 248> 460 78<232 248> 698 20G<48 120>
VStem: 48 69<-207 277> 349 75<240 290>
Fore
48 -207 m 1
 48 718 l 1
 120 718 l 1
 120 448 l 1
 155 513 189 538 246 538 c 0
 353 538 424 433 424 274 c 0
 424 100 350 -15 237 -15 c 0
 184 -15 149 7 120 58 c 1
 120 -207 l 1
 48 -207 l 1
235 460 m 0
 157 460 117 387 117 244 c 0
 117 131 162 62 234 62 c 0
 307 62 349 139 349 271 c 0
 349 394 309 460 235 460 c 0
EndSplineSet
EndChar
StartChar: Euro
Encoding: 395 8364 289
Width: 510
Flags: W
HStem: -12 69<319 353> 264 62<24 92 178 337> 389 62<24 90 182 389> 660 70<319 339>
Fore
182 451 m 1
 414 451 l 1
 389 389 l 1
 178 389 l 1
 178 346 l 1
 178 326 l 1
 363 326 l 1
 337 264 l 1
 181 264 l 1
 186 208 191 184 203 154 c 0
 229 89 273 57 336 57 c 0
 384 57 418 71 456 107 c 1
 456 20 l 1
 409 -4 381 -12 335 -12 c 0
 232 -12 155 41 116 137 c 0
 104 168 96 207 92 264 c 1
 0 264 l 1
 25 326 l 1
 89 326 l 1
 89 353 l 2
 89 370 89 378 90 389 c 1
 0 389 l 1
 25 451 l 1
 93 451 l 1
 98 516 108 561 125 601 c 0
 161 685 229 730 322 730 c 0
 397 730 443 710 495 655 c 1
 463 573 l 1
 420 637 384 660 328 660 c 0
 242 660 196 594 182 451 c 1
EndSplineSet
EndChar
StartChar: onesuperior
Encoding: 396 185 290
Width: 273
Flags: W
HStem: 683 20G<136 182>
VStem: 124 58<281 703>
Fore
124 577 m 1
 35 577 l 1
 35 623 l 1
 105 628 122 641 136 703 c 1
 182 703 l 1
 182 281 l 1
 124 281 l 1
 124 577 l 1
EndSplineSet
EndChar
StartChar: twosuperior
Encoding: 397 178 291
Width: 273
Flags: W
HStem: 280 62<65 265> 656 58<128 148>
VStem: 208 57<567 585>
Fore
65 552 m 1
 15 552 l 1
 17 611 25 640 47 669 c 0
 68 697 104 714 143 714 c 0
 215 714 265 658 265 577 c 0
 265 515 242 481 167 435 c 2
 130 412 l 2
 98 391 79 371 65 342 c 1
 265 342 l 1
 265 280 l 1
 3 280 l 1
 6 359 32 409 88 448 c 2
 138 481 l 2
 200 523 208 534 208 583 c 0
 208 629 183 656 139 656 c 0
 91 656 69 625 65 552 c 1
EndSplineSet
EndChar
StartChar: threesuperior
Encoding: 398 179 292
Width: 273
Flags: W
HStem: 270 58<123 138> 513 20G<106 128> 656 58<123 138>
VStem: 196 57<589 607> 209 57<397 423>
Fore
4 421 m 1xe8
 60 421 l 1
 64 353 83 328 132 328 c 0
 181 328 209 358 209 410 c 0xe8
 209 461 185 481 125 481 c 2
 106 481 l 1
 106 533 l 1
 128 533 l 2
 172 533 196 556 196 598 c 0
 196 635 173 656 131 656 c 0
 87 656 67 633 63 576 c 1
 13 576 l 1
 17 668 58 714 136 714 c 0
 207 714 253 670 253 602 c 0xf0
 253 558 236 529 202 515 c 1
 248 497 266 469 266 416 c 0
 266 328 212 270 131 270 c 0
 97 270 67 282 45 303 c 0
 20 327 9 358 4 421 c 1xe8
EndSplineSet
EndChar
StartChar: degree
Encoding: 399 176 293
Width: 328
Flags: W
HStem: 411 43<164 173> 660 43<155 173>
VStem: 44 40<541.659 572> 244 40<541.659 572>
Fore
166 703 m 0
 232 703 284 639 284 557 c 0
 284 474 232 411 164 411 c 0
 96 411 44 474 44 557 c 0
 44 641 96 703 166 703 c 0
164 660 m 0
 122 660 84 611 84 557 c 0
 84 503 122 454 164 454 c 0
 206 454 244 503 244 557 c 0
 244 610 206 660 164 660 c 0
EndSplineSet
EndChar
StartChar: minus
Encoding: 400 8722 294
Width: 479
Flags: W
HStem: 216 73<32 447>
Fore
447 216 m 1
 32 216 l 1
 32 289 l 1
 447 289 l 1
 447 216 l 1
EndSplineSet
EndChar
StartChar: multiply
Encoding: 401 215 295
Width: 479
Flags: W
DStem: 32 455 75 506 198 253 239 305 198 253 239 201 32 51 74 0 239 201 282 253 405 0 447 51 405 506 447 455 239 305 282 253
Fore
198 253 m 1
 32 455 l 1
 75 506 l 1
 239 305 l 1
 405 506 l 1
 447 455 l 1
 282 253 l 1
 447 51 l 1
 405 0 l 1
 239 201 l 1
 74 0 l 1
 32 51 l 1
 198 253 l 1
EndSplineSet
EndChar
StartChar: divide
Encoding: 402 247 296
Width: 479
Flags: W
HStem: -19 136<238 243> 216 73<32 447> 388 136<238 243>
VStem: 184 112<44 62 456 462>
CounterMasks: 1 00
Fore
447 216 m 1
 32 216 l 1
 32 289 l 1
 447 289 l 1
 447 216 l 1
241 524 m 0
 270 524 296 492 296 456 c 0
 296 421 269 388 240 388 c 0
 210 388 184 420 184 456 c 0
 184 493 210 524 241 524 c 0
241 117 m 0
 270 117 296 85 296 50 c 0
 296 14 269 -19 240 -19 c 0
 210 -19 184 13 184 49 c 0
 184 86 210 117 241 117 c 0
EndSplineSet
EndChar
StartChar: trademark
Encoding: 403 8482 297
Width: 820
Flags: W
HStem: 658 60<38 142 38 306>
VStem: 142 60<306 658> 365 60<306 646> 680 60<306 718>
DStem: 425 646 457 718 532 306 553 415 648 718 680 646 553 415 573 306
Fore
457 718 m 1
 553 415 l 1
 648 718 l 1
 740 718 l 1
 740 306 l 1
 680 306 l 1
 680 646 l 1
 573 306 l 1
 532 306 l 1
 425 646 l 1
 425 306 l 1
 365 306 l 1
 365 718 l 1
 457 718 l 1
306 718 m 1
 306 658 l 1
 202 658 l 1
 202 306 l 1
 142 306 l 1
 142 658 l 1
 38 658 l 1
 38 718 l 1
 306 718 l 1
EndSplineSet
Ligature: 0 1 'liga' T M
EndChar
StartChar: plusminus
Encoding: 404 177 298
Width: 479
Flags: W
HStem: 0 73<32 447> 272 73<32 210 270 447>
VStem: 210 60<111 272 345 561>
Fore
210 345 m 1
 210 561 l 1
 270 561 l 1
 270 345 l 1
 447 345 l 1
 447 272 l 1
 270 272 l 1
 270 111 l 1
 210 111 l 1
 210 272 l 1
 32 272 l 1
 32 345 l 1
 210 345 l 1
32 0 m 1
 32 73 l 1
 447 73 l 1
 447 0 l 1
 32 0 l 1
EndSplineSet
EndChar
StartChar: onehalf
Encoding: 405 189 299
Width: 684
Flags: W
HStem: 0 62<434 634> 375 58<497 516> 683 20G<136 182 459 506>
VStem: 124 58<281 703> 577 57<279 304>
DStem: 459 703 506 703 97 -19 143 -19
Fore
506 703 m 1
 143 -19 l 1
 97 -19 l 1
 459 703 l 1
 506 703 l 1
124 577 m 1
 35 577 l 1
 35 623 l 1
 105 628 122 641 136 703 c 1
 182 703 l 1
 182 281 l 1
 124 281 l 1
 124 577 l 1
434 271 m 1
 385 271 l 1
 386 330 394 359 416 388 c 0
 437 416 473 433 512 433 c 0
 585 433 634 377 634 296 c 0
 634 234 611 201 536 155 c 2
 499 132 l 2
 468 112 447 90 434 62 c 1
 634 62 l 1
 634 0 l 1
 372 0 l 1
 376 79 401 129 458 167 c 2
 507 200 l 2
 569 242 577 253 577 302 c 0
 577 348 552 375 508 375 c 0
 461 375 438 343 434 271 c 1
EndSplineSet
Ligature: 0 1 'frac' one slash two
Ligature: 0 1 'frac' one fraction two
EndChar
StartChar: onequarter
Encoding: 406 188 300
Width: 684
Flags: W
HStem: 0 21G<513 565> 94 58<395 513 565 620> 683 20G<161 205 489 536>
VStem: 149 56<281 703> 513 52<0 94 152 422>
DStem: 489 703 536 703 126 -19 173 -19 513 422 513 342 344 154 395 152
Fore
344 94 m 1
 344 154 l 1
 513 422 l 1
 565 422 l 1
 565 152 l 1
 620 152 l 1
 620 94 l 1
 565 94 l 1
 565 0 l 1
 513 0 l 1
 513 94 l 1
 344 94 l 1
513 152 m 1
 513 342 l 1
 395 152 l 1
 513 152 l 1
536 703 m 1
 173 -19 l 1
 126 -19 l 1
 489 703 l 1
 536 703 l 1
149 580 m 1
 60 580 l 1
 60 623 l 1
 130 628 147 641 161 703 c 1
 205 703 l 1
 205 281 l 1
 149 281 l 1
 149 580 l 1
EndSplineSet
Ligature: 0 1 'frac' one slash four
Ligature: 0 1 'frac' one fraction four
EndChar
StartChar: threequarters
Encoding: 407 190 301
Width: 684
Flags: W
HStem: 0 21G<557 609> 94 58<439 557 609 664> 270 58<156 177> 513 20G<139 161> 656 58<156 177>
VStem: 229 57<588 606> 243 57<396 425> 557 52<0 94 152 422>
DStem: 537 703 584 703 175 -19 221 -19 557 422 557 342 388 154 439 152
Fore
388 94 m 1xf9
 388 154 l 1
 557 422 l 1
 609 422 l 1
 609 152 l 1
 664 152 l 1
 664 94 l 1
 609 94 l 1
 609 0 l 1
 557 0 l 1
 557 94 l 1
 388 94 l 1xf9
557 342 m 1
 439 152 l 1
 557 152 l 1
 557 342 l 1
584 703 m 1
 221 -19 l 1
 175 -19 l 1
 537 703 l 1
 584 703 l 1
37 421 m 1
 93 421 l 1
 97 353 117 328 166 328 c 0
 215 328 243 358 243 410 c 0xfb
 243 461 219 481 158 481 c 2
 139 481 l 1
 139 533 l 1
 161 533 l 2
 205 533 229 556 229 598 c 0
 229 635 206 656 165 656 c 0
 120 656 100 633 96 576 c 1
 46 576 l 1
 50 668 91 714 169 714 c 0
 240 714 286 670 286 602 c 0xfd
 286 559 269 529 235 515 c 1
 282 496 300 468 300 415 c 0xfb
 300 328 246 270 165 270 c 0
 131 270 100 282 78 303 c 0
 53 327 43 358 37 421 c 1
EndSplineSet
Ligature: 0 1 'frac' three slash four
Ligature: 0 1 'frac' three fraction four
EndChar
StartChar: commaaccent
Encoding: 408 63171 302
Width: 273
Flags: W
HStem: -282 36<96 111.5>
VStem: 95 83<-157 -60>
Fore
95 -60 m 1
 178 -60 l 1
 178 -153 l 2
 178 -239 151 -282 96 -282 c 1
 96 -246 l 1
 127 -248 143 -217 141 -157 c 1
 95 -157 l 1
 95 -60 l 1
EndSplineSet
EndChar
StartChar: copyright
Encoding: 409 169 303
Width: 604
Flags: W
HStem: -19 63<292 318> 128 67<301 326> 525 67<301 326> 674 63<307 326>
VStem: -11 62<332 382> 132 62<348 382> 555 62<359 382>
Fore
411 289 m 1
 467 289 l 1
 446 184 393 128 312 128 c 0
 207 128 132 226 132 362 c 0
 132 499 205 592 310 592 c 0
 365 592 411 566 439 520 c 0
 454 495 460 476 466 435 c 1
 411 435 l 1
 397 495 364 525 311 525 c 0
 241 525 194 461 194 364 c 0
 194 266 244 195 315 195 c 0
 366 195 401 229 411 289 c 1
307 737 m 0
 478 737 617 568 617 359 c 0
 617 149 478 -19 304 -19 c 0
 128 -19 -11 148 -11 359 c 0
 -11 572 127 737 307 737 c 0
307 674 m 0
 161 674 51 539 51 360 c 0
 51 180 160 44 303 44 c 0
 446 44 555 180 555 359 c 0
 555 535 446 674 307 674 c 0
EndSplineSet
EndChar
StartChar: registered
Encoding: 410 174 304
Width: 604
Flags: W
HStem: -19 63<292 321> 329 57<237 299> 520 57<184 326> 674 63<307 326>
VStem: -11 62<330 388> 184 53<141 329 141 520> 388 57<454 462> 555 62<359 388>
DStem: 299 329 353 332 394 141 454 141
Fore
237 329 m 1
 237 141 l 1
 184 141 l 1
 184 577 l 1
 319 577 l 2
 403 577 445 536 445 454 c 0
 445 383 416 345 353 332 c 1
 454 141 l 1
 394 141 l 1
 299 329 l 1
 237 329 l 1
237 386 m 1
 302 386 l 2
 366 386 388 404 388 454 c 0
 388 499 364 520 311 520 c 2
 237 520 l 1
 237 386 l 1
307 737 m 0
 478 737 617 568 617 359 c 0
 617 149 478 -19 304 -19 c 0
 128 -19 -11 148 -11 359 c 0
 -11 572 127 737 307 737 c 0
307 674 m 0
 161 674 51 539 51 360 c 0
 51 180 160 44 303 44 c 0
 446 44 555 180 555 359 c 0
 555 535 446 674 307 674 c 0
EndSplineSet
EndChar
StartChar: lozenge
Encoding: 411 9674 305
Width: 405
Flags: W
HStem: 0 21G<171 221>
DStem: 15 377 74 376 171 0 197 77 176 740 201 664 15 377 74 376 201 664 227 740 322 374 382 374 322 374 382 374 197 77 221 0
Fore
171 0 m 1
 15 377 l 1
 176 740 l 1
 227 740 l 1
 382 374 l 1
 221 0 l 1
 171 0 l 1
197 77 m 1
 322 374 l 1
 201 664 l 1
 74 376 l 1
 197 77 l 1
EndSplineSet
EndChar
StartChar: Delta
Encoding: 412 8710 306
Width: 502
Flags: W
HStem: 0 51<63 499>
DStem: 238 509 268 688 393 51 499 0 268 688 238 509 5 0 63 51
Fore
5 0 m 1
 268 688 l 1
 499 0 l 1
 5 0 l 1
63 51 m 1
 393 51 l 1
 238 509 l 1
 63 51 l 1
EndSplineSet
EndChar
StartChar: notequal
Encoding: 413 8800 307
Width: 479
Flags: W
HStem: 115 73<32 149 246 447> 317 73<32 233 330 447>
DStem: 149 115 216 115 120 43 173 10 233 317 300 317 179 188 246 188 306 495 359 462 263 390 330 390
Fore
300 317 m 1
 246 188 l 1
 447 188 l 1
 447 115 l 1
 216 115 l 1
 173 10 l 1
 120 43 l 1
 149 115 l 1
 32 115 l 1
 32 188 l 1
 179 188 l 1
 233 317 l 1
 32 317 l 1
 32 390 l 1
 263 390 l 1
 306 495 l 1
 359 462 l 1
 330 390 l 1
 447 390 l 1
 447 317 l 1
 300 317 l 1
EndSplineSet
Ligature: 0 1 'liga' equal uni0338
EndChar
StartChar: radical
Encoding: 414 8730 308
Width: 450
Flags: W
DStem: 94 445 132 536 302 -74 283 165 384 927 433 918 283 165 302 -74
Fore
302 -74 m 1
 94 445 l 1
 17 398 l 1
 -5 454 l 1
 132 536 l 1
 283 165 l 1
 384 927 l 1
 433 918 l 1
 302 -74 l 1
EndSplineSet
EndChar
StartChar: lessequal
Encoding: 415 8804 309
Width: 479
Flags: W
HStem: 0 73<39 439>
DStem: 39 316 120 351 439 109 439 190 439 594 439 513 39 387 120 351
Fore
439 109 m 1
 39 316 l 1
 39 387 l 1
 439 594 l 1
 439 513 l 1
 120 351 l 1
 439 190 l 1
 439 109 l 1
439 0 m 1
 39 0 l 1
 39 73 l 1
 439 73 l 1
 439 0 l 1
EndSplineSet
EndChar
StartChar: greaterequal
Encoding: 416 8805 310
Width: 479
Flags: W
HStem: 0 73<39 439>
DStem: 39 513 39 594 358 351 439 387 358 351 439 316 39 190 39 109
Fore
39 109 m 1
 39 190 l 1
 358 351 l 1
 39 513 l 1
 39 594 l 1
 439 387 l 1
 439 316 l 1
 39 109 l 1
39 0 m 1
 39 73 l 1
 439 73 l 1
 439 0 l 1
 39 0 l 1
EndSplineSet
EndChar
StartChar: logicalnot
Encoding: 417 172 311
Width: 479
Flags: W
HStem: 317 73<32 387>
VStem: 387 60<108 390>
Fore
387 108 m 1
 387 317 l 1
 32 317 l 1
 32 390 l 1
 447 390 l 1
 447 108 l 1
 387 108 l 1
EndSplineSet
EndChar
StartChar: summation
Encoding: 418 8721 312
Width: 585
Flags: W
HStem: -123 112<134 526> 587 165<19 519> 711 41<19 381>
DStem: 19 752 145 711 210 285 299 341 210 285 299 341 12 -123 134 -11
Fore
145 711 m 1xa0
 299 341 l 1
 134 -11 l 1
 403 -11 l 2
 498 -11 523 6 549 87 c 1
 570 87 l 1
 526 -123 l 1
 12 -123 l 1
 210 285 l 1
 19 752 l 1
 511 752 l 1
 519 587 l 1
 497 587 l 1xc0
 483 689 459 711 364 711 c 2
 145 711 l 1xa0
EndSplineSet
EndChar
StartChar: partialdiff
Encoding: 419 8706 313
Width: 405
Flags: W
HStem: -10 31<159 175> 367 45<181 213> 706 47<160 181>
VStem: 21 71<159 186> 311 68<402 448>
Fore
87 674 m 1
 54 725 l 1
 99 745 128 753 160 753 c 0
 285 753 379 602 379 402 c 0
 379 287 352 152 314 86 c 0
 279 23 232 -10 175 -10 c 0
 89 -10 21 76 21 184 c 0
 21 246 41 307 78 355 c 0
 107 393 140 412 181 412 c 0
 223 412 253 396 305 346 c 1
 310 395 311 420 311 448 c 0
 311 610 262 706 181 706 c 0
 151 706 124 697 87 674 c 1
300 312 m 1
 263 355 245 367 213 367 c 0
 147 367 92 272 92 159 c 0
 92 74 120 21 164 21 c 0
 200 21 236 54 257 107 c 0
 278 159 287 202 300 312 c 1
EndSplineSet
EndChar
StartChar: brokenbar
Encoding: 420 166 314
Width: 213
Flags: W
HStem: -19 21G<77 137> 717 20G<77 137>
VStem: 77 60<-19 275 460 737>
Fore
77 -19 m 1
 77 275 l 1
 137 275 l 1
 137 -19 l 1
 77 -19 l 1
77 460 m 1
 77 737 l 1
 137 737 l 1
 137 460 l 1
 77 460 l 1
EndSplineSet
EndChar
StartChar: mu
Encoding: 421 181 315
Width: 456
Flags: W
HStem: -15 77<197 217> 503 20G<56 128 329 401>
VStem: 56 72<-207 21 -207 523> 329 72<208 523>
Fore
401 0 m 1
 333 0 l 1
 333 81 l 1
 296 10 261 -15 199 -15 c 0
 165 -15 146 -5 128 21 c 1
 128 -207 l 1
 56 -207 l 1
 56 523 l 1
 128 523 l 1
 128 176 l 2
 128 101 156 62 211 62 c 0
 283 62 329 129 329 235 c 2
 329 523 l 1
 401 523 l 1
 401 0 l 1
EndSplineSet
EndChar
StartChar: afii10017
Encoding: 422 1040 316
Width: 547
Flags: W
HStem: 0 21G<11 93 449 536> 209 87<179 391> 698 20G<232 323>
DStem: 232 718 274 614 11 0 179 296 232 718 155 209 11 0 93 0
Fore
391 209 m 1
 155 209 l 1
 93 0 l 1
 11 0 l 1
 232 718 l 1
 323 718 l 1
 536 0 l 1
 449 0 l 1
 391 209 l 1
179 296 m 1
 362 296 l 1
 274 614 l 1
 179 296 l 1
EndSplineSet
EndChar
StartChar: afii10018
Encoding: 423 1041 317
Width: 551
Flags: W
HStem: 0 83<141 317> 336 78<141 317> 631 87<61 478>
VStem: 61 80<0 336 0 631> 434 80<214 225>
Fore
478 631 m 1
 141 631 l 1
 141 414 l 1
 285 414 l 2
 483 414 514 302 514 214 c 0
 514 97 435 0 315 0 c 2
 61 0 l 1
 61 718 l 1
 478 718 l 1
 478 631 l 1
141 336 m 1
 141 83 l 1
 311 83 l 2
 389 83 434 131 434 214 c 0
 434 295 388 336 297 336 c 2
 141 336 l 1
EndSplineSet
EndChar
StartChar: afii10019
Encoding: 424 1042 318
Width: 547
Flags: W
HStem: 0 83<141 322> 336 78<141 302> 635 83<61 302>
VStem: 61 80<0 336 0 635> 406 80<526 545> 434 80<214 225>
Fore
61 0 m 1xf4
 61 718 l 1
 320 718 l 2
 420 718 486 646 486 537 c 0xf8
 486 468 462 422 408 387 c 1
 485 349 514 302 514 214 c 0
 514 85 435 0 315 0 c 2
 61 0 l 1xf4
141 635 m 1
 141 414 l 1
 284 414 l 2
 367 414 406 450 406 528 c 0
 406 601 368 635 285 635 c 2
 141 635 l 1
141 336 m 1
 141 83 l 1
 311 83 l 2
 389 83 434 131 434 214 c 0xf4
 434 295 388 336 297 336 c 2
 141 336 l 1
EndSplineSet
EndChar
StartChar: afii10020
Encoding: 425 1043 319
Width: 489
Flags: W
HStem: 0 21G<61 141> 631 87<61 468>
VStem: 61 80<0 631>
Fore
141 0 m 1
 61 0 l 1
 61 718 l 1
 468 718 l 1
 468 631 l 1
 141 631 l 1
 141 0 l 1
EndSplineSet
EndChar
StartChar: afii10021
Encoding: 426 1044 320
Width: 666
Flags: W
HStem: 0 88<197 565> 633 85<185 487>
VStem: 21 80<-120 0> 185 81<529.637 632.818> 487 80<88 718> 565 80<-120 86>
Fore
74 86 m 2xf4
 177 86 185 413 185 718 c 1
 567 718 l 1
 567 86 l 1xf8
 645 86 l 1
 645 -120 l 1
 565 -120 l 1
 565 0 l 1
 101 0 l 1
 101 -120 l 1
 21 -120 l 1
 21 86 l 1
 74 86 l 2xf4
197 88 m 1
 487 88 l 1
 487 633 l 1
 266 633 l 1
 266 473 265 221 197 88 c 1
EndSplineSet
EndChar
StartChar: afii10022
Encoding: 427 1045 321
Width: 537
Flags: W
HStem: 0 87<141 495> 325 87<141 462> 631 87<61 489>
VStem: 61 80<0 325 0 631>
Fore
495 87 m 1
 495 0 l 1
 61 0 l 1
 61 718 l 1
 489 718 l 1
 489 631 l 1
 141 631 l 1
 141 412 l 1
 462 412 l 1
 462 325 l 1
 141 325 l 1
 141 87 l 1
 495 87 l 1
EndSplineSet
EndChar
StartChar: afii10023
Encoding: 428 1025 322
Width: 537
Flags: W
HStem: 0 87<141 495> 325 87<141 462> 631 87<61 489> 799 102<160 235 292 367>
VStem: 61 80<0 325 0 631> 160 75<799 901> 292 75<799 901>
Fore
495 87 m 1
 495 0 l 1
 61 0 l 1
 61 718 l 1
 489 718 l 1
 489 631 l 1
 141 631 l 1
 141 412 l 1
 462 412 l 1
 462 325 l 1
 141 325 l 1
 141 87 l 1
 495 87 l 1
235 901 m 1
 235 799 l 1
 160 799 l 1
 160 901 l 1
 235 901 l 1
367 901 m 1
 367 799 l 1
 292 799 l 1
 292 901 l 1
 367 901 l 1
EndSplineSet
Ligature: 0 1 'liga' afii10022 uni0308
LCarets: 0 65535 '    ' 1 0 
EndChar
StartChar: afii10024
Encoding: 429 1046 323
Width: 902
Flags: W
HStem: 0 21G<9 112 411 491 790 893> 698 20G<15 125 411 491 777 887>
VStem: 411 80<0 350 428 718>
DStem: 15 718 125 718 304 382 375 428 304 382 384 350 9 0 112 0 518 350 598 382 790 0 893 0 777 718 887 718 527 428 598 382
Fore
411 350 m 1
 384 350 l 1
 112 0 l 1
 9 0 l 1
 304 382 l 1
 15 718 l 1
 125 718 l 1
 375 428 l 1
 411 428 l 1
 411 718 l 1
 491 718 l 1
 491 428 l 1
 527 428 l 1
 777 718 l 1
 887 718 l 1
 598 382 l 1
 893 0 l 1
 790 0 l 1
 518 350 l 1
 491 350 l 1
 491 0 l 1
 411 0 l 1
 411 350 l 1
EndSplineSet
EndChar
StartChar: afii10025
Encoding: 430 1047 324
Width: 541
Flags: W
HStem: -19 83<265 305> 331 71<185 315> 654 83<250.584 284>
VStem: 404 77<516 542> 433 77<172 206>
Fore
185 402 m 1xe8
 307 402 l 2
 376 402 404 479 404 530 c 0
 404 608 355 654 271 654 c 0
 216 654 172 632 147 593 c 0
 133 569 127 548 124 508 c 1
 49 508 l 1
 54 572 61 602 79 637 c 0
 114 701 182 737 271 737 c 0
 342 737 396 715 432 670 c 0
 463 630 481 576 481 518 c 0xf0
 481 454 461 406 419 375 c 1
 481 343 510 282 510 197 c 0
 510 63 422 -19 278 -19 c 0
 188 -19 130 8 85 71 c 0
 54 114 43 155 42 232 c 1
 117 232 l 1
 118 185 124 161 140 134 c 0
 167 89 216 64 282 64 c 0
 377 64 433 109 433 188 c 0
 433 257 398 331 303 331 c 2
 185 331 l 1
 185 402 l 1xe8
EndSplineSet
EndChar
StartChar: afii10026
Encoding: 431 1048 325
Width: 596
Flags: W
HStem: 0 21G<61 150 452 529> 698 20G<61 138 435 529>
VStem: 61 77<0 718> 452 77<0 718>
DStem: 435 718 452 583 138 135 150 0
Fore
138 135 m 1
 435 718 l 1
 529 718 l 1
 529 0 l 1
 452 0 l 1
 452 583 l 1
 150 0 l 1
 61 0 l 1
 61 718 l 1
 138 718 l 1
 138 135 l 1
EndSplineSet
EndChar
StartChar: afii10027
Encoding: 432 1049 326
Width: 596
Flags: W
HStem: 0 21G<61 150 452 529> 698 20G<61 138 435 529> 742 57<300 318>
VStem: 61 77<0 718> 452 77<0 718>
DStem: 435 718 452 583 138 135 150 0
Fore
399 878 m 1
 438 878 l 1
 426 784 387 742 309 742 c 0
 234 742 196 784 186 878 c 1
 226 878 l 1
 228 871 l 2
 241 821 267 799 314 799 c 0
 363 799 384 819 399 878 c 1
138 135 m 1
 435 718 l 1
 529 718 l 1
 529 0 l 1
 452 0 l 1
 452 583 l 1
 150 0 l 1
 61 0 l 1
 61 718 l 1
 138 718 l 1
 138 135 l 1
EndSplineSet
Ligature: 0 1 'liga' afii10026 uni0306
LCarets: 0 65535 '    ' 1 0 
EndChar
StartChar: afii10028
Encoding: 433 1050 327
Width: 552
Flags: W
HStem: 0 21G<61 141 440 543> 698 20G<61 141 427 537>
VStem: 61 80<0 350 0 718>
DStem: 168 350 248 382 440 0 543 0 427 718 537 718 177 428 248 382
Fore
141 350 m 1
 141 0 l 1
 61 0 l 1
 61 718 l 1
 141 718 l 1
 141 428 l 1
 177 428 l 1
 427 718 l 1
 537 718 l 1
 248 382 l 1
 543 0 l 1
 440 0 l 1
 168 350 l 1
 141 350 l 1
EndSplineSet
EndChar
StartChar: afii10029
Encoding: 434 1051 328
Width: 581
Flags: W
HStem: 0 86<21 30.5878> 633 85<132 434>
VStem: 132 81<524.905 632.79> 434 80<0 718>
Fore
434 633 m 1
 213 633 l 1
 213 408 212 0 21 0 c 1
 21 86 l 1
 124 86 132 413 132 718 c 1
 514 718 l 1
 514 0 l 1
 434 0 l 1
 434 633 l 1
EndSplineSet
EndChar
StartChar: afii10030
Encoding: 435 1052 329
Width: 692
Flags: W
HStem: 0 21G<61 138 304 382 548 625> 698 20G<61 175 512 625>
VStem: 61 77<0 608> 548 77<0 718>
DStem: 136 608 175 718 304 0 344 108 512 718 550 609 344 108 382 0
Fore
625 0 m 1
 548 0 l 1
 548 424 l 2
 548 469 l 1
 549 493 549 540 550 609 c 1
 382 0 l 1
 304 0 l 1
 136 608 l 1
 137 544 137 490 137 470 c 0
 138 447 138 432 138 424 c 2
 138 0 l 1
 61 0 l 1
 61 718 l 1
 175 718 l 1
 344 108 l 1
 512 718 l 1
 625 718 l 1
 625 0 l 1
EndSplineSet
EndChar
StartChar: afii10031
Encoding: 436 1053 330
Width: 595
Flags: W
HStem: 0 21G<61 141 448 528> 334 87<141 448> 698 20G<61 141 448 528>
VStem: 61 80<0 334 0 718> 448 80<0 718>
Fore
448 421 m 1
 448 718 l 1
 528 718 l 1
 528 0 l 1
 448 0 l 1
 448 334 l 1
 141 334 l 1
 141 0 l 1
 61 0 l 1
 61 718 l 1
 141 718 l 1
 141 421 l 1
 448 421 l 1
EndSplineSet
EndChar
StartChar: afii10032
Encoding: 437 1054 331
Width: 638
Flags: W
HStem: -19 87<319 337> 650 87<303 337>
VStem: 32 82<358 382> 524 82<332 382>
Fore
323 737 m 0
 427 737 508 682 559 580 c 0
 589 518 606 437 606 358 c 0
 606 246 574 144 517 72 c 0
 470 13 400 -19 319 -19 c 0
 238 -19 168 13 121 72 c 0
 64 144 32 246 32 358 c 0
 32 472 64 576 121 646 c 0
 170 706 238 737 323 737 c 0
322 650 m 0
 195 650 114 536 114 358 c 0
 114 184 196 68 319 68 c 0
 442 68 524 184 524 359 c 0
 524 532 442 650 322 650 c 0
EndSplineSet
EndChar
StartChar: afii10033
Encoding: 438 1055 332
Width: 595
Flags: W
HStem: 0 21G<61 141 448 528> 631 87<61 448>
VStem: 61 80<0 631> 448 80<0 718>
Fore
528 718 m 1
 528 0 l 1
 448 0 l 1
 448 631 l 1
 141 631 l 1
 141 0 l 1
 61 0 l 1
 61 718 l 1
 528 718 l 1
EndSplineSet
EndChar
StartChar: afii10034
Encoding: 439 1056 333
Width: 547
Flags: W
HStem: 0 21G<61 141> 303 83<141 325> 635 83<61 318>
VStem: 61 80<0 303 0 635> 418 82<495 529>
Fore
141 303 m 1
 141 0 l 1
 61 0 l 1
 61 718 l 1
 325 718 l 2
 430 718 500 637 500 515 c 0
 500 387 431 303 325 303 c 2
 141 303 l 1
141 635 m 1
 141 386 l 1
 298 386 l 2
 378 386 418 428 418 512 c 0
 418 595 380 635 301 635 c 2
 141 635 l 1
EndSplineSet
EndChar
StartChar: afii10035
Encoding: 440 1057 334
Width: 588
Flags: W
HStem: -19 87<287 312> 650 87<295 321>
VStem: 32 82<332 382>
Fore
548 502 m 1
 471 502 l 1
 458 559 445 586 416 612 c 0
 388 636 350 650 309 650 c 0
 187 650 114 539 114 355 c 0
 114 173 184 68 304 68 c 0
 359 68 401 92 434 141 c 0
 455 173 465 202 477 264 c 1
 554 264 l 1
 534 151 512 99 467 53 c 0
 423 6 362 -19 297 -19 c 0
 135 -19 32 127 32 358 c 0
 32 590 139 737 307 737 c 0
 395 737 468 696 510 623 c 0
 532 586 541 558 548 502 c 1
EndSplineSet
EndChar
StartChar: afii10036
Encoding: 441 1058 335
Width: 503
Flags: W
HStem: 0 21G<212 292> 631 87<12 212 12 491>
VStem: 212 80<0 631>
Fore
12 631 m 1
 12 718 l 1
 491 718 l 1
 491 631 l 1
 292 631 l 1
 292 0 l 1
 212 0 l 1
 212 631 l 1
 12 631 l 1
EndSplineSet
EndChar
StartChar: afii10037
Encoding: 442 1059 336
Width: 548
Flags: W
HStem: 0 21G<79 167> 698 20G<12 105 443 536>
DStem: 12 718 105 718 227 298 274 373
Fore
167 0 m 1
 79 0 l 1
 227 298 l 1
 12 718 l 1
 105 718 l 1
 274 373 l 1
 443 718 l 1
 536 718 l 1
 167 0 l 1
EndSplineSet
EndChar
StartChar: afii10038
Encoding: 443 1060 337
Width: 737
Flags: W
HStem: 0 21G<329 408> 75 82<329 329 408 434.719> 562 83<329 329 408 435.749> 698 20G<329 408>
VStem: 34 87<351 385> 329 79<0 75 157 562 644 718> 616 87<351 385>
CounterMasks: 1 00
Fore
329 562 m 1
 176 562 121 472 121 362 c 0
 121 247 178 157 329 157 c 1
 329 562 l 1
329 645 m 1
 329 718 l 1
 408 718 l 1
 408 645 l 1
 488 645 554 637 618 576 c 0
 685 513 703 465 703 363 c 0
 703 282 678 208 619 161 c 0
 556 111 504 75 408 75 c 1
 408 0 l 1
 329 0 l 1
 329 75 l 1
 236 75 162 106 113 159 c 0
 60 216 34 278 34 363 c 0
 34 467 62 526 118 576 c 0
 186 636 244 645 329 645 c 1
408 562 m 1
 408 157 l 1
 562 157 616 249 616 362 c 0
 616 476 562 562 408 562 c 1
EndSplineSet
EndChar
StartChar: afii10039
Encoding: 444 1061 338
Width: 539
Flags: W
HStem: 0 21G<12 108 429 527> 698 20G<25 125 423 518>
DStem: 25 718 125 718 222 368 274 443 222 368 271 295 12 0 108 0 271 295 321 368 429 0 527 0 423 718 518 718 274 443 321 368
Fore
321 368 m 1
 527 0 l 1
 429 0 l 1
 271 295 l 1
 108 0 l 1
 12 0 l 1
 222 368 l 1
 25 718 l 1
 125 718 l 1
 274 443 l 1
 423 718 l 1
 518 718 l 1
 321 368 l 1
EndSplineSet
EndChar
StartChar: afii10040
Encoding: 445 1062 339
Width: 645
Flags: W
HStem: 0 87<140 544> 698 20G<61 141 448 528>
VStem: 61 80<0 718> 448 80<87 718> 544 80<-120 86>
Fore
544 0 m 1
 61 0 l 1
 61 718 l 1
 141 718 l 1
 141 87 l 1
 448 87 l 1
 448 718 l 1
 528 718 l 1
 528 86 l 1
 624 86 l 1
 624 -120 l 1
 544 -120 l 1
 544 0 l 1
EndSplineSet
EndChar
StartChar: afii10041
Encoding: 446 1063 340
Width: 547
Flags: W
HStem: 0 21G<400 480> 255 82<273 287> 698 20G<62 142 400 480>
VStem: 62 80<385 718> 400 80<0 718>
Fore
400 387 m 2
 400 718 l 1
 480 718 l 1
 480 0 l 1
 400 0 l 1
 400 291 l 1
 393 280 324 255 273 255 c 0
 192 255 62 287 62 386 c 2
 62 718 l 1
 142 718 l 1
 142 394 l 2
 142 351 222 337 273 337 c 0
 331 337 400 357 400 387 c 2
EndSplineSet
EndChar
StartChar: afii10042
Encoding: 447 1064 341
Width: 698
Flags: W
HStem: 0 87<141 631> 698 20G<61 141 306 386 551 631>
VStem: 61 80<0 718> 306 80<87 718> 551 80<87 718>
CounterMasks: 1 00
Fore
386 87 m 1
 551 87 l 1
 551 718 l 1
 631 718 l 1
 631 0 l 1
 61 0 l 1
 61 718 l 1
 141 718 l 1
 141 87 l 1
 306 88 l 1
 306 718 l 1
 386 718 l 1
 386 87 l 1
EndSplineSet
EndChar
StartChar: afii10043
Encoding: 448 1065 342
Width: 748
Flags: W
HStem: 0 87<141 647> 698 20G<61 141 306 386 551 631>
VStem: 61 80<0 718> 306 80<87 718> 551 80<87 718> 647 80<-120 86>
Fore
386 87 m 1
 551 87 l 1
 551 718 l 1
 631 718 l 1
 631 86 l 1
 727 86 l 1
 727 -120 l 1
 647 -120 l 1
 647 0 l 1
 61 0 l 1
 61 718 l 1
 141 718 l 1
 141 87 l 1
 306 88 l 1
 306 718 l 1
 386 718 l 1
 386 87 l 1
EndSplineSet
EndChar
StartChar: afii10044
Encoding: 449 1066 343
Width: 711
Flags: W
HStem: 0 83<315 499> 332 83<315 493> 631 87<12 235>
VStem: 235 80<0 332 0 718> 592 82<191 225>
Fore
235 631 m 1
 12 631 l 1
 12 718 l 1
 315 718 l 1
 315 415 l 1
 499 415 l 2
 605 415 674 331 674 203 c 0
 674 81 604 0 499 0 c 2
 235 0 l 1
 235 631 l 1
315 83 m 1
 475 83 l 2
 554 83 592 123 592 206 c 0
 592 290 552 332 472 332 c 2
 315 332 l 1
 315 83 l 1
EndSplineSet
EndChar
StartChar: afii10045
Encoding: 450 1067 344
Width: 783
Flags: W
HStem: 0 83<141 325> 332 83<141 318> 698 20G<61 141 637 716>
VStem: 61 80<0 332 0 718> 418 82<191 225> 637 79<0 718>
Fore
716 718 m 1
 716 0 l 1
 637 0 l 1
 637 718 l 1
 716 718 l 1
141 415 m 1
 325 415 l 2
 431 415 500 331 500 203 c 0
 500 81 430 0 325 0 c 2
 61 0 l 1
 61 718 l 1
 141 718 l 1
 141 415 l 1
141 83 m 1
 301 83 l 2
 380 83 418 123 418 206 c 0
 418 290 378 332 298 332 c 2
 141 332 l 1
 141 83 l 1
EndSplineSet
EndChar
StartChar: afii10046
Encoding: 451 1068 345
Width: 537
Flags: W
HStem: 0 83<141 325> 332 83<141 318> 698 20G<61 141>
VStem: 61 80<0 332 0 718> 418 82<191 225>
Fore
141 415 m 1
 325 415 l 2
 431 415 500 331 500 203 c 0
 500 81 430 0 325 0 c 2
 61 0 l 1
 61 718 l 1
 141 718 l 1
 141 415 l 1
141 83 m 1
 301 83 l 2
 380 83 418 123 418 206 c 0
 418 290 378 332 298 332 c 2
 141 332 l 1
 141 83 l 1
EndSplineSet
EndChar
StartChar: afii10047
Encoding: 452 1069 346
Width: 590
Flags: W
HStem: -19 87<271 291> 325 87<192 471> 650 87<271 291>
Fore
469 412 m 1
 456 562 386 650 277 650 c 0
 236 650 198 636 170 612 c 0
 141 586 128 559 115 502 c 1
 38 502 l 1
 45 558 54 586 76 623 c 0
 118 696 191 737 279 737 c 0
 447 737 554 590 554 358 c 0
 554 127 451 -19 289 -19 c 0
 224 -19 163 6 119 53 c 0
 74 99 52 151 32 264 c 1
 109 264 l 1
 121 202 131 173 152 141 c 0
 185 92 227 68 282 68 c 0
 395 68 464 162 471 325 c 1
 192 325 l 1
 192 412 l 1
 469 412 l 1
EndSplineSet
EndChar
StartChar: afii10048
Encoding: 453 1070 347
Width: 913
Flags: W
HStem: -19 87<594 606> 334 87<141 308> 650 87<588 606>
VStem: 61 80<0 334 0 718> 61 328<0 382> 799 82<332 382>
Fore
308 334 m 1xf4
 141 334 l 1
 141 0 l 1
 61 0 l 1
 61 718 l 1
 141 718 l 1
 141 421 l 1
 310 421 l 1
 320 511 350 589 396 646 c 0
 445 706 513 737 598 737 c 0
 702 737 783 682 834 580 c 0
 864 518 881 437 881 358 c 0
 881 246 849 144 792 72 c 0
 745 13 675 -19 594 -19 c 0
 513 -19 443 13 396 72 c 0
 343 139 312 231 308 334 c 1xf4
597 650 m 0
 470 650 389 536 389 358 c 0xec
 389 184 471 68 594 68 c 0
 717 68 799 184 799 359 c 0
 799 532 717 650 597 650 c 0
EndSplineSet
EndChar
StartChar: afii10049
Encoding: 454 1071 348
Width: 554
Flags: W
HStem: 0 21G<42 145 407 487> 304 82<233 276 250 407> 635 83<223 407>
VStem: 48 82<495 529> 407 80<0 718>
DStem: 276 304 379 303 42 0 145 0
Fore
407 303 m 1
 379 303 l 1
 145 0 l 1
 42 0 l 1
 276 304 l 1
 223 304 l 2
 117 302 48 387 48 515 c 0
 48 637 118 718 223 718 c 2
 487 718 l 1
 487 0 l 1
 407 0 l 1
 407 303 l 1
407 635 m 1
 247 635 l 2
 168 635 130 595 130 512 c 0
 130 428 170 386 250 386 c 2
 407 386 l 1
 407 635 l 1
EndSplineSet
EndChar
StartChar: afii10065
Encoding: 455 1072 349
Width: 456
Flags: W
HStem: -15 73<167 184> 465 73<205 225>
VStem: 30 75<128 148> 315 72<176 394>
Fore
117 364 m 1
 51 364 l 1
 54 416 60 441 77 469 c 0
 105 514 156 538 223 538 c 0
 325 538 387 483 387 392 c 2
 387 91 l 2
 387 71 395 60 410 60 c 0
 416 60 420 61 435 64 c 1
 435 0 l 1
 432 -1 431 -1 426 -3 c 0
 412 -8 404 -10 393 -10 c 0
 344 -10 324 13 319 70 c 1
 272 10 228 -15 167 -15 c 0
 84 -15 30 46 30 138 c 0
 30 229 77 287 160 300 c 2
 279 318 l 2
 306 322 317 340 317 378 c 0
 317 435 283 465 218 465 c 0
 155 465 127 437 117 364 c 1
315 181 m 2
 315 267 l 1
 300 253 279 248 197 234 c 0
 131 223 105 198 105 146 c 0
 105 90 133 58 182 58 c 0
 254 58 315 115 315 181 c 2
EndSplineSet
EndChar
StartChar: afii10066
Encoding: 456 1073 350
Width: 442
Flags: W
HStem: -14 77<225 235> 461 77<217 235>
VStem: 26 75<262 291> 349 75<262 291>
Fore
371 674 m 0
 307 638 263 644 197 622 c 0
 136 602 96 481 107 491 c 0
 139 521 180 538 228 538 c 0
 343 538 424 423 424 262 c 0
 424 99 343 -14 225 -14 c 0
 108 -14 26 99 26 262 c 0
 26 342 9 608 145 676 c 0
 200 704 263 690 327 720 c 0
 351 731 363 744 363 776 c 1
 419 776 l 1
 419 736 410 696 371 674 c 0
227 461 m 0
 149 461 101 384 101 262 c 0
 101 141 150 63 225 63 c 0
 300 63 349 141 349 262 c 0
 349 382 300 461 227 461 c 0
EndSplineSet
EndChar
StartChar: afii10067
Encoding: 457 1074 351
Width: 444
Flags: W
HStem: 0 70<122 247> 240 66<122 229> 454 69<54 229>
VStem: 54 68<0 240 0 454> 320 74<367 389> 348 72<146.136 164>
Fore
54 0 m 1xf4
 54 523 l 1
 234 523 l 2
 334 523 394 467 394 387 c 0xf8
 394 337 376 302 322 282 c 1
 399 255 420 234 420 161 c 0
 420 67 349 0 229 0 c 2
 54 0 l 1xf4
122 454 m 1
 122 306 l 1
 198 306 l 2
 281 306 320 323 320 380 c 0
 320 434 282 454 199 454 c 2
 122 454 l 1
122 240 m 1
 122 70 l 1
 225 70 l 2
 303 70 348 101 348 161 c 0xf4
 348 220 302 240 211 240 c 2
 122 240 l 1
EndSplineSet
EndChar
StartChar: afii10068
Encoding: 458 1075 352
Width: 337
Flags: W
HStem: 0 21G<51 123> 450 73<51 325>
VStem: 51 72<0 450>
Fore
325 450 m 1
 123 450 l 1
 123 0 l 1
 51 0 l 1
 51 523 l 1
 325 523 l 1
 325 450 l 1
EndSplineSet
EndChar
StartChar: afii10069
Encoding: 459 1076 353
Width: 536
Flags: W
HStem: 0 69<179 446> 454 69<160 376>
VStem: 21 69<-125 0> 160 72<454 523> 376 72<69 523> 446 69<-125 66>
Fore
82 66 m 2xf4
 120 66 160 291 160 523 c 1
 448 523 l 1
 448 66 l 1xf8
 515 66 l 1
 515 -125 l 1
 446 -125 l 1
 446 0 l 1
 90 0 l 1
 90 -125 l 1
 21 -125 l 1
 21 66 l 1
 82 66 l 2xf4
179 69 m 1
 376 69 l 1
 376 454 l 1
 232 454 l 1
 233 345 228 166 179 69 c 1
EndSplineSet
EndChar
StartChar: afii10070
Encoding: 460 1077 354
Width: 456
Flags: W
HStem: -15 77<224 242> 233 70<110 423> 460 78<224 242>
Fore
345 164 m 1
 417 164 l 1
 398 51 329 -15 230 -15 c 0
 108 -15 33 87 33 252 c 0
 33 427 112 538 236 538 c 0
 305 538 353 506 386 437 c 0
 411 385 420 336 423 233 c 1
 110 233 l 1
 112 174 118 146 135 117 c 0
 156 81 190 62 232 62 c 0
 290 62 338 105 345 164 c 1
110 303 m 1
 348 303 l 1
 344 357 337 383 321 410 c 0
 301 442 270 460 233 460 c 0
 164 460 114 397 110 303 c 1
EndSplineSet
EndChar
StartChar: afii10071
Encoding: 461 1105 355
Width: 456
Flags: W
HStem: -15 77<224 242> 233 70<110 423> 460 78<224 242> 604 102<125 200 257 332>
VStem: 125 75<604 706> 257 75<604 706>
Fore
345 164 m 1
 417 164 l 1
 398 51 329 -15 230 -15 c 0
 108 -15 33 87 33 252 c 0
 33 427 112 538 236 538 c 0
 305 538 353 506 386 437 c 0
 411 385 420 336 423 233 c 1
 110 233 l 1
 112 174 118 146 135 117 c 0
 156 81 190 62 232 62 c 0
 290 62 338 105 345 164 c 1
110 303 m 1
 348 303 l 1
 344 357 337 383 321 410 c 0
 301 442 270 460 233 460 c 0
 164 460 114 397 110 303 c 1
200 706 m 1
 200 604 l 1
 125 604 l 1
 125 706 l 1
 200 706 l 1
332 706 m 1
 332 604 l 1
 257 604 l 1
 257 706 l 1
 332 706 l 1
EndSplineSet
Ligature: 0 1 'liga' afii10070 uni0308
LCarets: 0 65535 '    ' 1 0 
EndChar
StartChar: afii10072
Encoding: 462 1078 356
Width: 658
Flags: W
HStem: 0 21G<8 101 294 364 557 650> 503 20G<18 109 294 364 549 640>
VStem: 294 70<0 209 302 523>
DStem: 18 523 109 523 243 262 294 302 243 262 294 209 8 0 101 0 364 209 415 262 557 0 650 0 549 523 640 523 364 302 415 262
Fore
294 0 m 1
 294 209 l 1
 101 0 l 1
 8 0 l 1
 243 262 l 1
 18 523 l 1
 109 523 l 1
 294 302 l 1
 294 523 l 1
 364 523 l 1
 364 302 l 1
 549 523 l 1
 640 523 l 1
 415 262 l 1
 650 0 l 1
 557 0 l 1
 364 209 l 1
 364 0 l 1
 294 0 l 1
EndSplineSet
EndChar
StartChar: afii10073
Encoding: 463 1079 357
Width: 410
Flags: W
HStem: -15 77<183 223> 240 69<152 223> 461 77<183 212>
VStem: 287 70<371 389> 306 72<142 159>
Fore
210 309 m 2xe8
 276 309 287 350 287 387 c 0
 287 433 253 461 198 461 c 0
 135 461 104 433 101 374 c 1
 31 374 l 1
 37 479 95 538 193 538 c 0
 292 538 357 473 357 373 c 0xf0
 357 330 343 297 315 274 c 1
 354 252 378 213 378 157 c 0
 378 52 309 -15 200 -15 c 0
 129 -15 74 13 47 64 c 0
 32 91 27 116 24 168 c 1
 94 168 l 1
 99 94 132 62 205 62 c 0
 268 62 306 93 306 144 c 0
 306 183 290 240 221 240 c 2
 152 240 l 1
 152 309 l 1
 210 309 l 2xe8
EndSplineSet
EndChar
StartChar: afii10074
Encoding: 464 1080 358
Width: 455
Flags: W
HStem: 0 21G<53 145 331 403> 503 20G<53 125 311 403>
VStem: 53 72<0 523> 331 72<0 523>
DStem: 311 523 331 427 125 91 145 0
Fore
403 523 m 1
 403 0 l 1
 331 0 l 1
 331 427 l 1
 145 0 l 1
 53 0 l 1
 53 523 l 1
 125 523 l 1
 125 91 l 1
 311 523 l 1
 311 523 377 523 403 523 c 1
EndSplineSet
EndChar
StartChar: afii10075
Encoding: 465 1081 359
Width: 455
Flags: W
HStem: 0 21G<53 145 331 403> 503 20G<53 125 311 403> 605 57<240 262>
VStem: 53 72<0 523> 331 72<0 523>
DStem: 311 523 331 427 125 91 145 0
Fore
332 741 m 1
 371 741 l 1
 359 647 320 605 242 605 c 0
 167 605 129 647 119 741 c 1
 159 741 l 1
 161 734 l 2
 174 684 200 662 247 662 c 0
 296 662 317 682 332 741 c 1
403 523 m 1
 403 0 l 1
 331 0 l 1
 331 427 l 1
 145 0 l 1
 53 0 l 1
 53 523 l 1
 125 523 l 1
 125 91 l 1
 311 523 l 1
 403 523 l 1
EndSplineSet
Ligature: 0 1 'liga' afii10074 uni0306
LCarets: 0 65535 '    ' 1 0 
EndChar
StartChar: afii10076
Encoding: 466 1082 360
Width: 417
Flags: W
HStem: 0 21G<53 122 316 409> 503 20G<53 123 308 399>
VStem: 53 69<0 209 0 523>
DStem: 122 209 174 262 316 0 409 0 308 523 399 523 123 302 174 262
Fore
174 262 m 1
 409 0 l 1
 316 0 l 1
 122 209 l 1
 122 0 l 1
 53 0 l 1
 53 523 l 1
 123 523 l 1
 123 302 l 1
 308 523 l 1
 399 523 l 1
 174 262 l 1
EndSplineSet
EndChar
StartChar: afii10077
Encoding: 467 1083 361
Width: 439
Flags: W
HStem: 0 21G<315 387> 454 69<99 315>
VStem: 99 72<394.3 453.835> 315 72<0 523>
Fore
99 523 m 1
 387 523 l 1
 387 0 l 1
 315 0 l 1
 315 454 l 1
 171 454 l 1
 172 298 171 0 21 0 c 1
 21 70 l 1
 83 70 99 291 99 523 c 1
EndSplineSet
EndChar
StartChar: afii10078
Encoding: 468 1084 362
Width: 539
Flags: W
HStem: 0 21G<53 125 231 309 415 487> 503 20G<53 158 382 487>
VStem: 53 72<0 354> 415 72<0 523>
Fore
231 0 m 1
 125 354 l 1
 125 0 l 1
 53 0 l 1
 53 523 l 1
 158 523 l 1
 270 94 l 1
 382 523 l 1
 487 523 l 1
 487 0 l 1
 415 0 l 1
 415 354 l 1
 309 0 l 1
 231 0 l 1
EndSplineSet
EndChar
StartChar: afii10079
Encoding: 469 1085 363
Width: 455
Flags: W
HStem: 0 21G<53 125 331 403> 247 70<125 331> 503 20G<53 125 331 403>
VStem: 53 72<0 247 0 523> 331 72<0 523>
Fore
403 523 m 1
 403 0 l 1
 331 0 l 1
 331 247 l 1
 125 247 l 1
 125 0 l 1
 53 0 l 1
 53 523 l 1
 125 523 l 1
 125 317 l 1
 331 317 l 1
 331 523 l 1
 403 523 l 1
EndSplineSet
EndChar
StartChar: afii10080
Encoding: 470 1086 364
Width: 456
Flags: W
HStem: -14 77<228 238> 461 77<220 238>
VStem: 29 75<262 291> 352 75<262 291>
Fore
231 538 m 0
 346 538 427 423 427 262 c 0
 427 99 346 -14 228 -14 c 0
 111 -14 29 99 29 262 c 0
 29 427 110 538 231 538 c 0
230 461 m 0
 152 461 104 384 104 262 c 0
 104 141 153 63 228 63 c 0
 303 63 352 141 352 262 c 0
 352 382 303 461 230 461 c 0
EndSplineSet
EndChar
StartChar: afii10081
Encoding: 471 1087 365
Width: 455
Flags: W
HStem: 0 21G<53 125 331 403> 454 69<53 331>
VStem: 53 72<0 454> 331 72<0 523>
Fore
403 523 m 1
 403 0 l 1
 331 0 l 1
 331 454 l 1
 125 454 l 1
 125 0 l 1
 53 0 l 1
 53 523 l 1
 403 523 l 1
EndSplineSet
EndChar
StartChar: afii10082
Encoding: 472 1088 366
Width: 456
Flags: W
HStem: -15 77<223 249> 460 78<232 249>
VStem: 48 69<-207 277 -207 523> 349 75<240 290>
Fore
48 -207 m 1
 48 523 l 1
 116 523 l 1
 116 446 l 1
 154 514 189 538 247 538 c 0
 353 538 424 432 424 274 c 0
 424 100 350 -15 237 -15 c 0
 184 -15 149 7 120 58 c 1
 120 -207 l 1
 48 -207 l 1
235 460 m 0
 157 460 117 387 117 245 c 0
 117 131 162 62 234 62 c 0
 307 62 349 139 349 271 c 0
 349 394 309 460 235 460 c 0
EndSplineSet
EndChar
